<?xml version="1.0" encoding="UTF-8"?>
<svg id="_レイヤー_2" data-name="レイヤー 2" xmlns="http://www.w3.org/2000/svg" width="327.62" height="405.49" viewBox="0 0 327.62 405.49">
  <defs>
    <style>
      .cls-1 {
        fill: #d3ebf2;
      }

      .cls-2 {
        fill: #f2c9b8;
      }

      .cls-3 {
        fill: #f2f2f2;
      }
    </style>
  </defs>
  <g id="_レイヤー_1-2" data-name="レイヤー 1">
    <g>
      <rect class="cls-2" width="28.2" height="216.87"/>
      <rect class="cls-3" x="33.46" width="294.16" height="216.87"/>
      <g>
        <path d="M7.77,76.5h5.12v-10.14h1.6v3.75h4.83v1.42h-4.83v4.96h5.91v1.46H7.77v-1.46Z"/>
        <path d="M8.1,95.55c1.25-2.34,2.1-4.38,2.71-6.57-.92.13-1.77.25-2.43.36l-.25-1.46c.69-.06,1.96-.19,2.98-.34.24-1.04.45-2.12.65-3.25l1.53.24c-.19.93-.42,1.86-.66,2.82.44-.03.83-.06,1.14-.06,1.44,0,2.4.88,2.4,2.68,0,1.29-.12,2.91-.45,4.28-.38,1.56-1.28,1.96-2.18,1.96-.71,0-1.39-.13-2.01-.36l-.12-1.65c.71.34,1.38.48,1.83.48.58,0,.88-.31,1.11-1.35.19-.88.3-2,.3-3.06s-.43-1.59-1.18-1.59c-.26,0-.62.03-1.14.09-.73,2.59-1.53,4.87-2.82,7.51l-1.41-.74ZM16.09,87.52l1.23-.92c1.17,1.39,1.95,3.06,2.64,5.19l-1.38.9c-.72-2.27-1.35-3.98-2.49-5.17ZM17.26,85.41l.79-.66c.63.6,1.05,1.11,1.56,2.01l-.86.68c-.51-.92-.94-1.49-1.5-2.03ZM18.72,84.57l.79-.66c.68.58,1.08,1.16,1.56,1.98l-.87.66c-.45-.84-.9-1.46-1.49-1.98Z"/>
        <path d="M11.14,112.26c0-1.05.95-1.81,2.23-1.81s2.39.72,3.12,2.01c.72-.48,1.19-1.19,1.19-2.03,0-1.05-1.07-1.9-2.79-1.9-1.09,0-2.42.36-3.42.99-.69.44-1.2.86-1.96,1.63l-1.04-1.12c1.65-1.28,4.05-3.39,6.21-5.82-1.21.21-2.73.34-3.99.41l-.27-1.44c1.72-.03,3.61-.15,5.77-.55l.85,1.05c-1.44,1.54-2.56,2.61-3.91,3.83.69-.21,1.33-.3,1.93-.3,2.52,0,4.16,1.33,4.16,3.19,0,2.4-2.4,4.05-5.24,4.05-1.54,0-2.85-.83-2.85-2.17ZM14.14,113.12c.39,0,.75-.05,1.11-.14-.46-.81-1.11-1.26-1.8-1.26-.51,0-.81.25-.81.58,0,.53.66.81,1.5.81Z"/>
        <path d="M9.45,129.26c0-1.32,1-2.5,2.88-3.69-.61-1.41-1.3-3.21-1.71-4.98l1.58-.38c.27,1.41.88,3.25,1.44,4.62,1.14-.6,2.5-1.21,4.02-1.84l.69,1.47c-3.94,1.35-7.35,3.1-7.35,4.63,0,.95.79,1.51,2.99,1.51,1.32,0,2.92-.1,4.67-.43l.27,1.6c-1.79.3-3.62.36-4.79.36-3.46,0-4.68-1.16-4.68-2.88Z"/>
        <path d="M8.77,142.82c1.79.04,3.72-.04,5.46-.24-.2-.46-.41-.97-.58-1.49-1.46.15-2.89.24-3.93.25l-.17-1.41c1.2.03,2.46-.02,3.66-.14-.16-.48-.3-.97-.45-1.48l1.5-.33c.09.52.21,1.08.38,1.65,1.12-.17,2.16-.38,2.95-.63l.42,1.33c-.79.23-1.84.42-2.95.57.18.51.38,1,.6,1.49,1.3-.2,2.46-.45,3.27-.74l.5,1.38c-.85.27-1.92.5-3.09.66.65,1.14,1.41,2.13,2.25,2.8l-.9,1.14c-.57-.39-.96-.57-1.68-.79-.67-.21-1.32-.3-1.9-.3-1.73,0-2.69.65-2.69,1.32,0,.97,1.35,1.36,3.51,1.36.66,0,1.68-.07,2.39-.19l.19,1.47c-.78.09-2.04.15-2.82.15-2.38,0-4.82-.56-4.82-2.73,0-1.48,1.7-2.58,4.08-2.58.72,0,1.37.09,2.03.29-.39-.54-.77-1.12-1.1-1.74-2.05.23-4.23.35-5.97.36l-.13-1.44Z"/>
      </g>
      <g>
        <path d="M50.26,31.04c0-.66.49-1.23,1.21-1.23s1.21.57,1.21,1.23-.5,1.2-1.21,1.2-1.21-.54-1.21-1.2Z"/>
        <path d="M62.17,33.89c-.58,1.16-1.33,2.15-2.17,2.9l-.85-1.25c1.08-.75,2.04-1.79,2.71-2.94h-2.31v-1.17h2.62v-1.15h-2.91v-1.17h1.75c-.17-.71-.27-1.11-.45-1.68h-1.02v-1.17h2.59v-1.81h1.38v1.81h2.33v1.17h-.81c-.17.6-.29,1.02-.54,1.68h1.53v1.17h-2.54v1.15h2.4v1.17h-2.4v.45c.88.53,1.47.92,2.13,1.49l-.72,1.21c-.5-.57-.88-.97-1.41-1.42v3.34h-1.32v-3.78ZM63.28,29.1c.22-.63.36-1.11.48-1.68h-1.92c.18.57.28,1.01.4,1.68h1.04ZM64.87,36.89c1.21-1.42,1.58-2.89,1.56-6.36v-4.54c1.81-.22,3.39-.57,4.66-1.05l1.04,1.21c-1.21.38-2.73.72-4.33.95v2.02h4.88v1.32h-1.71v7.23h-1.41v-7.23h-1.75c0,3.94-.46,5.8-1.83,7.42l-1.09-.98Z"/>
        <path d="M77.15,33.11c0-.84.03-2.66.06-3.78.03-.97.02-2.97-.01-4.27l1.72.03c-.03,1.29-.07,3.18-.12,4.12-.04,1-.08,2.75-.08,3.67,0,1.79.5,2.66,1.89,2.66,1.72,0,3.57-1.23,4.56-3.04l.83,1.63c-1.16,1.65-3.21,2.92-5.4,2.92-2.62,0-3.45-1.63-3.45-3.94Z"/>
        <path d="M90.23,33.68c-.33-1.06-.55-2.97-.55-4.71,0-.75.03-1.81.09-2.74l1.59.33c-.09,1.02-.13,1.92-.13,2.88,0,1.63.17,2.8.43,3.67.32,1.02.76,1.63,1.2,1.63.48,0,1.11-1.04,1.51-2.94l1.32,1.11c-.63,2.37-1.7,3.51-2.8,3.51-1.21,0-2.13-1.06-2.66-2.75ZM97.09,28.02l1.14-1.02c1.8,1.65,2.32,3.67,2.71,6.53l-1.54.48c-.35-2.65-.9-4.77-2.31-5.98Z"/>
        <path d="M103.4,28.73h3.15c-.21-.57-.41-1.02-.71-1.61h-3.15v-1.21h5.8v-1.47h1.53v1.47h5.89v1.21h-3.17c-.25.58-.55,1.16-.82,1.61h3.28v7.59c0,.92-.38,1.24-1.41,1.24-.52,0-1.27-.04-2.01-.1l-.24-1.33c.6.09,1.33.15,1.75.15.39,0,.49-.1.49-.49v-5.97h-2.65v.93c0,.31.09.38.64.38.46,0,.66-.06.74-.23.06-.12.1-.39.1-.66l1.01.3c-.09,1.42-.3,1.6-2,1.6-1.49,0-1.8-.15-1.8-.87v-1.45h-1.43c-.03,1.23-.58,2.13-1.68,2.71h5.28v3.3h-4.14v.71h-1.32v-3.9c-.25.12-.45.2-.84.32l-.84-.99c1.48-.34,2.19-1,2.26-2.14h-2.34v7.86h-1.41v-8.94ZM110.44,28.73c.24-.39.5-.93.75-1.61h-3.83c.27.56.48,1.02.69,1.61h2.39ZM110.71,34.77v-1.25h-2.82v1.25h2.82Z"/>
        <path d="M117.74,31.25h5.36v6.13h-1.4v-.69h-2.56v.84h-1.4v-6.29ZM121.7,35.4v-2.9h-2.56v2.9h2.56ZM119.78,25.14h7.9v4.95h-7.9v-4.95ZM126.2,28.82v-2.37h-4.93v2.37h4.93ZM124.36,31.25h5.44v6.29h-1.39v-.84h-2.66v.84h-1.39v-6.29ZM128.41,35.4v-2.9h-2.66v2.9h2.66Z"/>
        <path d="M135.37,30.92c-1.11.45-2.14.87-2.89,1.19l-.69-1.47c.92-.34,1.95-.72,3.03-1.11-.48-1.17-.95-2.17-1.49-3.21l1.46-.6c.5.97.99,2.13,1.47,3.3.23-.09.44-.17.66-.24,1.83-.65,3.33-1.16,4.51-1.16,1.82,0,3.11,1.14,3.11,2.89s-1.5,2.94-3.67,2.94c-.44,0-.79-.04-1.11-.11l-.42-1.57c.39.13.9.19,1.37.19,1.39,0,2.28-.64,2.28-1.53,0-.93-.64-1.42-1.67-1.42-.75,0-2.04.38-3.84,1.08l-.69.27c.9,2.34,1.63,4.39,2.31,6.81l-1.53.48c-.59-2.31-1.38-4.59-2.19-6.74ZM136.87,26.21l.62-1.23c1.18.34,2.16.74,3.27,1.39l-.74,1.31c-1.15-.74-2.04-1.1-3.15-1.47Z"/>
        <path d="M149.23,30.05c-1.1.02-2.08.02-2.97.02l-.02-1.47c.86.02,1.86.02,2.99,0,0-1.09,0-2.2-.02-3.31h1.52c-.02,1.11-.02,2.21-.02,3.31,1.16-.01,2.42-.01,3.75-.04-.01-1.17-.03-2.37-.06-3.49h1.51c-.01,1.14-.01,2.31-.01,3.48,1.03-.01,2.1-.04,3.19-.06l.02,1.48-3.21.04v.18c0,4.17-1.29,5.89-4.02,7.24l-1.36-.9c2.83-1.38,3.94-2.62,3.94-6.51-1.37.01-2.61.01-3.75.03,0,1.08,0,2.16.02,3.24h-1.52c.02-1.08.02-2.16.02-3.24Z"/>
        <path d="M161.15,30.3l11.97-.07.03,1.5-11.97.07-.03-1.5Z"/>
        <path d="M177.22,33.47v-.04c.02-1.32.02-2.64.02-3.96s0-2.64-.02-3.96h1.53c-.03,1.49-.03,2.79-.01,4,2.16-.31,3.94-.78,5.76-1.57l.93,1.29c-2.04.9-4.16,1.36-6.69,1.74,0,.66.01,1.32.01,1.96.01,1.67.27,2.03,2.68,2.03,1.44,0,2.69-.09,4.47-.32l.2,1.58c-1.74.18-3.51.24-5.01.24-2.58,0-3.87-.54-3.87-2.99ZM184.14,26.04l.81-.67c.57.57,1.02,1.09,1.54,2l-.9.71c-.54-.96-.82-1.32-1.46-2.03ZM185.68,25.34l.84-.71c.63.64,1.07,1.24,1.54,2.04l-.87.66c-.42-.69-.94-1.46-1.51-1.99Z"/>
        <path d="M190.18,35.68c4.08-1.83,6.3-4.96,7.59-7.75-2.19.04-4.2.09-6,.09l-.03-1.47c1.9.01,4.09,0,7.08-.08l1.02.85c-.65,1.47-1.38,2.83-2.24,4.09,1.67,1.4,3,2.66,4.26,4.32l-1.21,1.08c-1.29-1.74-2.52-3.09-3.88-4.29-1.38,1.71-3.09,3.15-5.31,4.29l-1.28-1.14Z"/>
        <path d="M204.53,36.17c1.25-2.34,2.1-4.38,2.71-6.57-.92.13-1.77.25-2.43.36l-.25-1.46c.69-.06,1.96-.19,2.98-.34.24-1.04.45-2.12.65-3.25l1.53.24c-.19.93-.42,1.86-.66,2.82.44-.03.83-.06,1.14-.06,1.44,0,2.4.88,2.4,2.68,0,1.29-.12,2.91-.45,4.28-.37,1.56-1.27,1.96-2.17,1.96-.7,0-1.39-.13-2.01-.36l-.12-1.65c.71.34,1.38.48,1.83.48.58,0,.88-.31,1.11-1.35.19-.88.3-2,.3-3.06s-.43-1.59-1.18-1.59c-.26,0-.62.03-1.14.09-.73,2.59-1.53,4.87-2.82,7.51l-1.41-.74ZM212.52,28.14l1.23-.92c1.17,1.39,1.95,3.06,2.64,5.19l-1.38.9c-.72-2.27-1.35-3.98-2.49-5.17ZM213.7,26.03l.79-.66c.63.6,1.05,1.11,1.56,2.01l-.86.68c-.51-.92-.94-1.49-1.5-2.03ZM215.15,25.19l.79-.66c.68.58,1.08,1.16,1.56,1.98l-.87.66c-.45-.84-.9-1.45-1.49-1.98Z"/>
        <path d="M218.44,26.88h5.38v1.18h-5.38v-1.18ZM218.86,32.73h4.5v4.26h-3.21v.67h-1.29v-4.93ZM219.11,24.92h4.02v1.16h-4.02v-1.16ZM219.11,28.88h4.02v1.11h-4.02v-1.11ZM219.11,30.8h4.02v1.1h-4.02v-1.1ZM222.09,35.85v-2.02h-1.95v2.02h1.95ZM224.64,31.91h2.33v-2.04h-3.13v-1.25h3.13v-1.98c-.64.1-1.56.21-2.37.29l-.54-1.19c2.37-.21,4.42-.58,5.94-1.05l.93,1.12c-.85.25-1.71.46-2.56.6v2.21h3.24v1.25h-3.24v2.04h2.44v5.76h-1.33v-.78h-3.5v.78h-1.33v-5.76ZM229.47,35.66v-2.57h-3.5v2.57h3.5Z"/>
        <path d="M232.54,36.75c.64-1,1.11-2.73,1.23-4.63l1.26.21c-.03.43-.08.87-.15,1.29.33.48.58.79.92,1.09v-3.22h-2.96v-1.19h6.62v1.19h-2.38v1.26h2.07v1.18h-2.07v1.61c.72.31,1.39.46,2.56.52l-.92-.9c.84-.38,1.67-.96,2.22-1.58h-1.04v-6.42h1.61c.1-.39.17-.71.21-1.11h-2.45v-1.17h6.46v1.17h-2.64c-.09.42-.18.76-.3,1.11h2.42v6.42h-1.28c.62.33,1.25.76,2.04,1.4l-.97,1c-.68-.6-1.44-1.17-2.25-1.67l.79-.74h-2.46l.99.71c-.75.79-1.47,1.37-2.24,1.79.66.04,1.3.06,2.08.06,1.25,0,2.33-.03,4.37-.15-.24.54-.33.88-.39,1.41-1.33.06-2.01.08-2.96.08-2.58,0-4.65-.19-5.77-.54-1.04-.33-1.91-.96-2.56-1.84-.26,1.14-.58,2.01-.99,2.71l-1.08-1.05ZM233.59,24.89h5.17v4.62h-5.17v-4.62ZM237.49,26.69v-.83h-2.62v.83h2.62ZM237.49,28.53v-.88h-2.62v.88h2.62ZM243.94,28.98v-.84h-2.75v.84h2.75ZM243.94,30.77v-.84h-2.75v.84h2.75ZM243.94,32.6v-.88h-2.75v.88h2.75Z"/>
        <path d="M248.8,32.12c0-1.42.32-3.93.86-6.79l1.53.24c-.6,2.89-.92,5.42-.92,6.58,0,.46.03,1,.11,1.46.24-.77.62-1.65.9-2.19l.9.9c-.46.93-.67,1.53-.84,2.1-.2.69-.3,1.37-.24,2l-1.18.5c-.62-1.22-1.11-2.82-1.11-4.79ZM253.15,33.75c0-.64.27-1.37.99-2.17l1.42.48c-.69.6-.92,1.08-.92,1.45,0,.75.63,1.19,2.29,1.19.66,0,1.63-.09,2.59-.32l.3,1.56c-1.04.17-2.07.21-2.7.21-2.71,0-3.99-.72-3.99-2.4ZM253.31,26.85c1.68.03,4.29-.12,6-.39l.18,1.5c-1.72.27-4.32.44-6.04.39l-.14-1.5Z"/>
        <path d="M262.46,33.71c1.35-2.04,2.19-3.66,2.8-5.29-.99.09-1.93.15-2.67.17l-.19-1.42c1-.01,2.19-.08,3.38-.2.22-.76.45-1.56.66-2.43l1.53.38c-.2.66-.38,1.28-.57,1.86.89-.12,1.73-.27,2.42-.45l.27,1.42c-.78.18-1.95.36-3.18.51-.73,2.04-1.6,3.92-3.03,6.27l-1.41-.81ZM265.54,35.01c0-1.14,1.06-2.05,2.67-2.05.36,0,.75.03,1.14.09-.03-.5-.06-1.08-.06-1.36,0-.42.06-1.16.51-1.92l1.33.76c-.29.58-.33.99-.33,1.41,0,.46.03.9.04,1.42,1.07.34,2.16.88,3.15,1.47l-.72,1.3c-.78-.55-1.58-1.02-2.35-1.35v.24c0,1.39-1,2.25-2.58,2.25-1.39,0-2.8-.71-2.8-2.27ZM268.33,35.85c.69,0,1.11-.31,1.11-.94,0-.12,0-.29-.01-.48-.34-.09-.69-.13-1-.13-.79,0-1.33.29-1.33.76,0,.53.55.79,1.25.79ZM270.59,28.64l.67-1.2c1.37.52,2.46,1.14,3.48,2.13l-.82,1.18c-1.16-1.06-2.04-1.59-3.33-2.11Z"/>
        <path d="M281.35,35.39c2.99-.31,4.59-1.38,4.59-2.88,0-.94-.64-1.84-1.92-1.84-.67,0-1.5.18-2.46.38-.95.2-2.23.5-3.21.74l-.4-1.41c.96-.21,2.08-.44,3.28-.67,1.05-.21,2.05-.39,2.85-.39,2.17,0,3.42,1.37,3.42,3.13,0,2.31-1.8,3.77-5.28,4.29l-.87-1.33Z"/>
        <path d="M291.52,36.45c1.23-2.76,2.1-5.34,2.71-7.93-1.02.07-1.98.12-2.77.15l-.17-1.51c1.04-.03,2.14-.08,3.29-.15.15-.81.3-1.63.42-2.47l1.54.24c-.14.72-.29,1.42-.44,2.12,1.11-.12,2.21-.26,3.27-.47l.24,1.5c-1.18.2-2.53.36-3.85.48-.69,2.92-1.54,5.7-2.71,8.65l-1.53-.6ZM296.75,34.51c0-.55.21-1.23.67-1.89l1.37.44c-.39.45-.57.9-.57,1.21,0,.58.66.92,2.13.92.96,0,1.98-.11,2.79-.29l.3,1.56c-.93.18-2.13.21-2.85.21-2.75,0-3.84-.9-3.84-2.16ZM297.52,29.72c1.71-.28,3.71-.42,5.4-.34l-.19,1.49c-1.63-.09-3.45.03-4.8.27l-.41-1.41Z"/>
        <path d="M50.26,62.22c0-.66.49-1.23,1.21-1.23s1.21.57,1.21,1.23-.5,1.2-1.21,1.2-1.21-.54-1.21-1.2Z"/>
        <path d="M59.56,67.57c3-.4,3.94-1.44,3.94-4.2h1.52c-.04,3.39-1.19,4.81-4.58,5.58l-.88-1.38ZM61,59.46h4.12v-1.08h-5.25v-1.2h5.25v-1.56h1.53v1.56h5.34v1.2h-5.34v1.08h4.21v1.17h-9.87v-1.17ZM60.01,61.54h11.85v2.76h-1.49v-1.58h-8.88v1.7h-1.48v-2.88ZM66.64,67.33v-3.96h1.5v3.33c0,.43.18.49,1.27.49,1.44,0,1.47-.04,1.56-1.95l1.43.42c-.09,2.74-.33,2.97-3.23,2.97-2.07,0-2.53-.24-2.53-1.3Z"/>
        <path d="M74.06,66.3h5.12v-10.14h1.6v3.75h4.83v1.42h-4.83v4.96h5.91v1.46h-12.63v-1.46Z"/>
        <path d="M91.99,62.1c-1.11.45-2.14.87-2.89,1.19l-.69-1.47c.92-.34,1.95-.72,3.03-1.11-.48-1.17-.95-2.17-1.49-3.21l1.46-.6c.5.98.99,2.13,1.47,3.3.23-.09.44-.17.66-.24,1.83-.65,3.33-1.16,4.51-1.16,1.82,0,3.11,1.14,3.11,2.9s-1.5,2.94-3.67,2.94c-.44,0-.79-.04-1.11-.11l-.42-1.57c.39.13.9.19,1.37.19,1.39,0,2.28-.64,2.28-1.53,0-.93-.64-1.42-1.67-1.42-.75,0-2.04.38-3.84,1.08l-.69.27c.9,2.34,1.63,4.39,2.31,6.81l-1.53.48c-.58-2.31-1.38-4.59-2.19-6.74ZM93.49,57.39l.62-1.23c1.18.34,2.16.73,3.27,1.39l-.74,1.31c-1.15-.74-2.04-1.1-3.15-1.47Z"/>
        <path d="M105.77,62.89c-.65,1.53-1.37,2.71-2.17,3.6l-.88-1.32c1.26-1.17,2.17-2.54,2.86-4.28h-2.62v-1.32h2.82v-1.67c-.54.1-1.16.2-2.03.29l-.58-1.2c1.96-.21,3.78-.58,5.37-1.12l.85,1.2c-.63.21-1.47.42-2.2.57v1.94h2.46v1.32h-2.46v1.04c.97.63,1.74,1.21,2.47,1.88l-.83,1.38c-.54-.66-1.04-1.18-1.65-1.75v5.42h-1.41v-5.96ZM110.47,57.33h1.42v7.89h-1.42v-7.89ZM111.28,68.46l-.3-1.53c.73.12,1.51.2,2.14.2.43,0,.55-.12.55-.56v-10.27h1.44v10.86c0,1.11-.39,1.42-1.73,1.42-.66,0-1.47-.04-2.11-.12Z"/>
        <path d="M117.28,67.09h1.88v-3.66c-.36.27-.74.48-1.23.75l-.98-1.04c1.86-.87,3.18-2.01,4.09-3.52h-3.55v-1.23h3.69c-.35-.82-.74-1.48-1.16-2.01l1.39-.61c.41.54.88,1.32,1.29,2.13l-1.12.49h2.94c.61-.96.97-1.65,1.38-2.68l1.59.55c-.36.71-.72,1.26-1.35,2.13h3.92v1.23h-3.54c.98,1.27,2.34,2.34,4.08,3.21l-.92,1.17c-.34-.2-.87-.53-1.29-.84v3.93h1.86v1.26h-12.97v-1.26ZM127.79,62.73c-1.14-.9-2.03-1.88-2.8-3.1h-2.47c-.63,1.23-1.38,2.19-2.45,3.1h7.72ZM121.84,67.09v-3.2h-1.38v3.2h1.38ZM124.42,67.09v-3.2h-1.37v3.2h1.37ZM127.09,67.09v-3.2h-1.44v3.2h1.44Z"/>
        <path d="M132.23,67.35c1.25-2.34,2.1-4.38,2.71-6.57-.92.13-1.77.25-2.43.36l-.25-1.46c.69-.06,1.96-.19,2.98-.34.24-1.04.45-2.12.65-3.25l1.53.24c-.19.93-.42,1.86-.66,2.82.44-.03.83-.06,1.14-.06,1.44,0,2.4.88,2.4,2.68,0,1.29-.12,2.91-.45,4.28-.38,1.56-1.28,1.96-2.18,1.96-.71,0-1.39-.13-2.01-.36l-.12-1.65c.71.34,1.38.48,1.83.48.58,0,.88-.31,1.11-1.35.19-.88.3-2,.3-3.06s-.43-1.59-1.18-1.59c-.26,0-.62.03-1.14.09-.73,2.59-1.53,4.87-2.82,7.51l-1.41-.74ZM140.22,59.32l1.23-.92c1.17,1.39,1.95,3.06,2.64,5.19l-1.38.9c-.72-2.27-1.35-3.98-2.49-5.17ZM141.4,57.21l.79-.66c.63.6,1.05,1.11,1.56,2.01l-.86.68c-.51-.92-.94-1.49-1.5-2.03ZM142.85,56.37l.79-.66c.68.58,1.08,1.16,1.56,1.98l-.87.66c-.45-.84-.9-1.46-1.49-1.98Z"/>
        <path d="M145.91,65.5c.44-.09.86-.21,1.91-.53v-4.62h-1.67v-1.35h1.67v-3.06h1.37v3.06h1.36v1.35h-1.36v4.15c.46-.17.9-.34,1.48-.58l.11,1.32c-1.4.66-3.03,1.29-4.38,1.71l-.48-1.46ZM150.92,57.51h1.88c-.24-.51-.48-.94-.78-1.42l1.29-.41c.36.58.63,1.14.89,1.83h1.39c.29-.55.53-1.12.79-1.92l1.41.44-.03.04c-.3.6-.45.88-.76,1.44h1.93v5h-8.01v-5ZM151.54,63.24h6.84v5.61h-1.33v-.62h-4.17v.62h-1.33v-5.61ZM154.3,59.53v-1.04h-2.08v1.04h2.08ZM154.3,61.51v-1.08h-2.08v1.08h2.08ZM157.04,65.19v-.96h-4.17v.96h4.17ZM157.04,67.18v-.99h-4.17v.99h4.17ZM157.64,59.53v-1.04h-2.1v1.04h2.1ZM157.64,61.51v-1.08h-2.1v1.08h2.1Z"/>
        <path d="M161.24,67.11c3.03-3,4.93-4.81,6.94-6.7-1.93.33-4.2.51-5.52.57l-.19-1.46c1.74-.04,5.4-.31,7.51-.78l1,1.04c-1.05.88-2.55,2.19-3.6,3.12.29-.06.56-.09.79-.09.74,0,1.11.54,1.11,1.09,0,.41-.04,1.32-.04,1.59,0,.71.17,1.08,1.05,1.08.65,0,1.91-.1,2.85-.34l.18,1.59c-1.02.21-2.28.27-2.99.27-1.88,0-2.67-.77-2.67-2.22,0-.33.03-.82.03-1.05,0-.38-.2-.75-.57-.75-.45,0-.87.24-1.39.71-.6.54-1.17,1.12-3.24,3.39l-1.26-1.05ZM164.38,57.09l.58-1.3c1.5.25,2.79.51,4.41,1.2l-.72,1.3c-1.4-.62-2.9-.95-4.28-1.2Z"/>
        <path d="M179.72,63.73c0-1.67,1.05-3.22,3.02-4.56-2.88.27-4.68.42-6.81.58l-.19-1.58c3.12-.12,7.92-.4,11.43-.97l.3,1.53c-2.08.29-2.79.51-4,1.47-1.38,1.08-2.21,2.19-2.21,3.55,0,1.71,1.37,2.59,4.04,2.94l-.67,1.45c-2.99-.42-4.89-1.86-4.89-4.42Z"/>
        <path d="M191.45,64.86c-.33-1.06-.55-2.97-.55-4.71,0-.75.03-1.81.09-2.74l1.59.33c-.09,1.02-.13,1.92-.13,2.88,0,1.63.17,2.8.43,3.67.32,1.02.76,1.63,1.2,1.63.48,0,1.11-1.04,1.51-2.94l1.32,1.11c-.63,2.37-1.7,3.51-2.8,3.51-1.22,0-2.13-1.06-2.66-2.75ZM198.3,59.2l1.14-1.02c1.8,1.65,2.32,3.67,2.71,6.53l-1.54.48c-.35-2.65-.9-4.77-2.31-5.98Z"/>
        <path d="M207.58,66.06c0-1.05.95-1.81,2.23-1.81s2.39.72,3.12,2.01c.72-.48,1.19-1.19,1.19-2.03,0-1.05-1.07-1.9-2.79-1.9-1.1,0-2.42.36-3.42.99-.69.44-1.2.86-1.96,1.63l-1.04-1.12c1.65-1.28,4.05-3.39,6.21-5.82-1.21.21-2.73.34-3.99.41l-.27-1.44c1.72-.03,3.61-.15,5.77-.55l.85,1.05c-1.44,1.54-2.56,2.61-3.91,3.83.69-.21,1.33-.3,1.93-.3,2.52,0,4.16,1.33,4.16,3.19,0,2.4-2.4,4.05-5.24,4.05-1.54,0-2.85-.83-2.85-2.17ZM210.58,66.91c.39,0,.75-.05,1.11-.14-.46-.81-1.11-1.26-1.8-1.26-.51,0-.81.25-.81.58,0,.53.66.81,1.5.81Z"/>
        <path d="M220.34,65.05c0-1.32,1-2.5,2.88-3.69-.61-1.41-1.3-3.21-1.71-4.98l1.58-.38c.27,1.41.88,3.25,1.44,4.62,1.14-.6,2.5-1.21,4.02-1.84l.69,1.47c-3.94,1.35-7.35,3.1-7.35,4.63,0,.95.79,1.51,2.99,1.51,1.32,0,2.92-.1,4.67-.43l.27,1.6c-1.79.3-3.62.36-4.79.36-3.46,0-4.68-1.16-4.68-2.88Z"/>
        <path d="M233.05,67.63c2.57-.58,3.67-1.49,3.95-3.21h-3.48v-1.21h3.57v-1.7h-.75v-.57c-.87.6-1.77,1.11-2.8,1.56l-.86-1.18c1.02-.36,2.01-.86,2.83-1.43-.62-.61-1.09-.99-1.72-1.44l.97-.87c.65.5,1.12.88,1.77,1.54.64-.58,1.12-1.16,1.5-1.74h-3.12v-1.23h5.26c.29.54.64,1.06,1.12,1.6.58-.55,1.05-1.05,1.46-1.62l1.12.79c-.57.63-1.2,1.21-1.79,1.65.13.17.43.41.78.65.52-.45,1.06-1.02,1.59-1.68l1.12.78c-.77.79-1.21,1.17-1.74,1.56.67.42,1.59.86,2.34,1.12l-.87,1.21c-.88-.36-1.75-.84-2.56-1.44v.72h-1.07v1.7h3.71v1.21h-3.71v2.33c0,.49.17.57,1.12.57,1.51,0,1.54-.03,1.62-1.77l1.38.34c-.15,2.62-.29,2.75-3.01,2.75-1.35,0-1.84-.08-2.16-.29-.25-.2-.38-.5-.38-.97v-2.96h-1.81c-.23,2.26-1.73,3.72-4.58,4.47l-.83-1.26ZM242.09,60.33c-1.04-.83-1.96-1.79-2.64-2.75-.57,1.02-1.37,1.96-2.33,2.75h4.96ZM240.26,63.21v-1.7h-1.75v1.7h1.75Z"/>
        <path d="M248.65,67.39c.72-.1,1.21-.18,2.07-.33v-2.02c-.83.46-1.86.9-2.79,1.18l-.88-1.2c2.05-.48,3.9-1.36,5.21-2.46h-4.82v-1.17h5.69v-1.06h-4.41v-1.08h4.41v-1h-5.08v-1.16h5.08v-1.47h1.5v1.47h5.17v1.16h-5.17v1h4.5v1.08h-4.5v1.06h5.76v1.17h-5.08c.3.68.73,1.41,1.18,1.95.62-.48,1.23-1.08,1.86-1.79l1.3.84c-.75.71-1.56,1.35-2.28,1.86.79.72,1.91,1.37,3.21,1.88l-1.11,1.37c-2.7-1.25-4.7-3.44-5.54-6.11-.45.54-1.05,1.08-1.75,1.59v2.62c1.23-.27,2.21-.5,3.06-.73l.03,1.26c-1.86.6-4.17,1.17-6.12,1.48l-.49-1.39Z"/>
        <path d="M263.12,59.28c1.74-.06,3.36-.17,4.9-.33-.36-.83-.66-1.71-.92-2.67l1.55-.34c.16.91.48,1.89.88,2.82,1.33-.18,2.62-.43,3.85-.75l.33,1.47c-1.05.25-2.24.48-3.51.67.81,1.5,1.83,2.81,2.77,3.53l-.93,1.21c-.5-.41-.96-.66-1.68-.88-.79-.25-1.47-.34-2.25-.34-1.7,0-2.55.76-2.55,1.56,0,1.11,1.5,1.56,3.71,1.56.84,0,1.74-.06,2.41-.15l.15,1.46c-.67.09-1.83.15-2.64.15-3.21,0-5.16-.96-5.16-2.96,0-1.62,1.65-2.91,4.08-2.91.71,0,1.46.13,2.13.34-.58-.74-1.11-1.51-1.56-2.37-1.73.21-3.57.36-5.42.44l-.17-1.5Z"/>
        <path d="M279.49,64.26c-.54.62-1.17,1.37-1.94,2.38l-1.23-.93c1.25-1.26,2.28-2.73,2.7-3.57.15-.3.33-.73.48-1.2v-.96c-.86.19-1.89.34-2.68.42l-.24-1.4c.83-.06,1.95-.2,2.91-.42,0-1.06-.02-1.86-.03-2.65l1.59.06c-.03.88-.06,1.68-.08,2.61l.63.42c-.15.51-.36,1.06-.64,1.77v.18c1.69-1.79,3.18-3.1,4.51-3.1.96,0,1.6.58,1.6,1.68,0,.65-.1,1.3-.22,2.04-.25,1.59-.36,2.77-.36,3.38,0,.81.27,1.04.72,1.04.63,0,1.33-.42,2.07-1.64l.66,1.54c-.75,1.08-1.75,1.62-2.97,1.62s-2.01-.88-2.01-2.28c0-.95.1-2.19.38-3.93.08-.5.15-1.05.15-1.44,0-.36-.12-.51-.39-.51-.72,0-2.57,1.74-4.14,3.33,0,1.96,0,3.43.03,5.7l-1.57.06c.03-1.62.06-2.92.08-4.2Z"/>
        <path d="M291.52,67.63c1.23-2.76,2.1-5.34,2.71-7.93-1.02.08-1.98.12-2.77.15l-.17-1.51c1.04-.03,2.14-.08,3.29-.15.15-.81.3-1.63.42-2.47l1.54.24c-.14.72-.29,1.42-.44,2.12,1.11-.12,2.21-.26,3.27-.47l.24,1.5c-1.18.2-2.53.36-3.85.48-.69,2.92-1.54,5.7-2.71,8.65l-1.53-.6ZM296.75,65.7c0-.55.21-1.23.67-1.89l1.37.44c-.39.45-.57.9-.57,1.21,0,.58.66.92,2.13.92.96,0,1.98-.11,2.79-.29l.3,1.56c-.93.18-2.13.21-2.85.21-2.75,0-3.84-.9-3.84-2.16ZM297.52,60.9c1.71-.28,3.71-.42,5.4-.34l-.19,1.49c-1.63-.09-3.45.03-4.8.27l-.41-1.41Z"/>
        <path d="M50.26,93.4c0-.66.49-1.23,1.21-1.23s1.21.57,1.21,1.23-.5,1.2-1.21,1.2-1.21-.54-1.21-1.2Z"/>
        <path d="M62.92,98.51c3.36-1.17,5.36-3.04,6.34-5.49-3.15.04-5.95.09-8.64.11v-1.47c2.82,0,5.71-.03,9.83-.12l.81.67c-1.04,3.78-3.39,6.21-7.14,7.57l-1.2-1.27ZM61.88,88.54c2.61.01,4.86-.02,8.08-.08l.02,1.46c-3.34.07-5.62.09-8.08.09v-1.47Z"/>
        <path d="M74.66,94.15c4.1-1.68,7.41-4.23,9.34-7l1.35.78c-.92,1.32-2.1,2.55-3.46,3.69,0,2.61.01,5.22.04,7.83h-1.56c.03-2.24.03-4.47.02-6.69-1.4.99-2.94,1.88-4.56,2.62l-1.17-1.23Z"/>
        <path d="M88.4,97.93c2.25-2.6,2.9-5.76,3.25-8.85l1.53.27c-.46,3.31-1.11,6.6-3.29,9.31l-1.5-.73ZM95.47,89.42l1.37-.75c1.47,2.23,2.96,5.96,3.95,9.07l-1.5.83c-.87-3.15-2.27-6.78-3.81-9.15ZM97.85,88.33l.88-.57c.51.66.84,1.26,1.27,2.21l-.93.6c-.41-.93-.69-1.42-1.23-2.23ZM99.4,87.55l.88-.57c.55.69.93,1.33,1.32,2.19l-.93.57c-.34-.73-.73-1.51-1.27-2.19Z"/>
        <path d="M102.56,98.45c2.58-1.81,3.58-4.72,3.27-9.69h1.53c.27,5.82-.88,8.61-3.3,10.5l-1.5-.81ZM109.64,98.2c.06-3.4.06-6.6,0-9.88h1.53c-.03,2.91-.03,5.8,0,8.68,1.42-.72,3.09-2.29,4.28-4.72l.73,1.5c-1.35,2.54-3.39,4.26-5.46,5.19l-1.08-.76Z"/>
        <path d="M117.04,92.03c2.55-1,4.44-2.64,5.75-4.93h1.7c1.38,1.94,3.4,3.46,6.01,4.53l-.92,1.25c-.9-.41-1.77-.89-2.57-1.43v1.05h-6.42v-.84c-.84.6-1.74,1.12-2.67,1.54l-.89-1.17ZM127.4,98.65c-2.82.42-6.09.78-9.03,1l-.45-1.44c.69-.03,1.57-.07,2.07-.12.51-.9.97-1.85,1.38-2.9h-3.55v-1.29h11.91v1.29h-6.69c-.45,1-.93,1.94-1.42,2.8,1.92-.13,3.43-.25,4.88-.42-.38-.42-.83-.9-1.49-1.48l1.25-.69c1.26,1.09,2.47,2.37,3.48,3.66l-1.32.92c-.45-.63-.53-.72-1-1.33ZM126.7,91.24c-1.2-.84-2.28-1.83-3.06-2.86-.69,1.12-1.5,2.04-2.5,2.86h5.57Z"/>
        <path d="M133.96,94.76c-.58.63-1.05,1.09-1.81,1.72l-.71-1.32c1.44-.99,3.13-2.83,3.97-4.36h-3.52v-1.33h2.01v-2.58h1.41v2.58h1.38l.6.62c-.53,1.03-1.12,2.02-1.84,2.94.9.54,1.59,1.02,2.58,1.83l-.92,1.23c-.66-.69-1.11-1.11-1.74-1.62v5.56h-1.41v-5.26ZM136.67,98.12h3.27v-5.83h-2.64v-1.38h2.64v-3.84h1.48v3.84h2.92v1.38h-2.92v5.83h3.44v1.4h-8.19v-1.4Z"/>
        <path d="M146.69,98.53c1.25-2.34,2.1-4.38,2.71-6.57-.92.13-1.77.25-2.43.36l-.25-1.46c.69-.06,1.96-.19,2.98-.34.24-1.04.45-2.12.65-3.25l1.53.24c-.19.93-.42,1.86-.66,2.82.44-.03.83-.06,1.14-.06,1.44,0,2.4.88,2.4,2.68,0,1.29-.12,2.91-.45,4.28-.37,1.56-1.27,1.96-2.17,1.96-.7,0-1.39-.13-2.01-.36l-.12-1.65c.71.34,1.38.48,1.83.48.58,0,.88-.31,1.11-1.35.19-.88.3-2,.3-3.06s-.43-1.59-1.18-1.59c-.26,0-.62.03-1.14.09-.73,2.59-1.53,4.87-2.82,7.51l-1.41-.74ZM154.68,90.5l1.23-.92c1.17,1.39,1.95,3.06,2.64,5.19l-1.38.9c-.72-2.27-1.35-3.98-2.49-5.17ZM155.86,88.39l.79-.66c.63.6,1.05,1.11,1.56,2.01l-.86.68c-.51-.92-.94-1.49-1.5-2.03ZM157.31,87.55l.79-.66c.68.58,1.08,1.16,1.56,1.98l-.87.66c-.45-.84-.9-1.46-1.49-1.98Z"/>
        <path d="M162.92,94.27c-.72.1-1.36.2-2.1.27l-.39-1.32,1.11-.08c.3-.33.58-.66,1-1.25-.78-1.05-1.24-1.6-1.9-2.26l.84-1.02.45.53c.58-.81,1.06-1.63,1.38-2.4l1.25.63c-.6.96-1.2,1.8-1.91,2.64l.64.85c.5-.71,1.04-1.56,1.54-2.43l1.2.72c-.75,1.14-1.84,2.54-3.01,3.86.9-.08,1.42-.13,1.86-.21l-.04-.11c-.19-.46-.27-.63-.43-1l.99-.38c.36.63.6,1.12.88,1.88.88-.3,1.86-.87,2.73-1.59-.76-.75-1.48-1.75-1.95-2.71h-.72v-1.23h5.97l.78.69c-.5,1.12-1.21,2.21-2.13,3.17.81.54,1.86,1.02,2.92,1.32l-.78,1.33c-1.2-.48-2.14-1-3.12-1.72-.95.81-2.07,1.51-3.2,2.01l-.34-.52-1.02.6-.18-.67c-.31.06-.76.15-1.04.2v5.98h-1.29v-5.76ZM160.52,98.48c.31-.95.51-2.01.62-3.53l1.26.17c-.09,1.59-.29,3-.58,3.99l-1.29-.63ZM164.48,95.09l1.06-.41c.39.78.65,1.58.92,2.73l-1.23.63c-.14-1.06-.41-2.07-.75-2.95ZM166.01,98.32h3.15v-2h-2.34v-1.25h2.34v-1.67h1.38v1.67h2.55v1.25h-2.55v2h3.17v1.27h-7.7v-1.27ZM171.29,88.88h-2.92c.38.67.93,1.35,1.56,1.86.58-.58,1.05-1.21,1.37-1.86Z"/>
        <path d="M175.55,89.09h2.51c-.33-.62-.62-1.07-1.04-1.56l1.33-.57c.52.62.88,1.16,1.27,1.81l-.79.32h2.25c-.33-.74-.58-1.21-1-1.82l1.37-.49c.45.54.81,1.2,1.14,1.96l-1.02.34h1.84c.54-.76.94-1.5,1.27-2.31l1.47.52c-.45.75-.81,1.28-1.19,1.79h2.7v3.04h-1.42v-1.91h-9.27v1.91h-1.43v-3.04ZM176.48,95.54h3.81c.13-.42.18-.58.29-1.02h-2.88v-3.43h7.83v3.43h-3.36c-.17.5-.24.72-.39,1.02h5.04v4.49h-1.5v-.58h-7.33v.58h-1.5v-4.49ZM185.31,98.27v-1.61h-7.33v1.61h7.33ZM184.13,93.53v-1.41h-5.04v1.41h5.04Z"/>
        <path d="M189.38,99.08c1.31-.39,2.29-1.2,2.61-2.14h-2.61v-1.08h2.78v-.71h-2.34v-1.04h2.34v-.71h-2.24v-2.97h5.76v1.92c.78-1.57,1.37-3.52,1.71-5.61l1.26.29c-.19.85-.4,1.63-.67,2.44h1.4c.27-.76.45-1.42.73-2.65l1.29.29c-.29.93-.55,1.72-.84,2.37h2.07v1.19h-2.06v1.62h1.79v1.14h-1.79v1.62h1.79v1.14h-1.79v1.8h2.21v1.23h-4.72v.81h-1.23v-7.62c-.18.47-.36.87-.58,1.26l-.56-.93v.67h-2.26v.71h2.37v1.04h-2.37v.71h2.79v1.08h-2.75c1,.57,1.82,1.09,2.58,1.7l-.93,1.11c-.65-.64-1.23-1.16-2.19-1.84-.5.99-1.39,1.75-2.67,2.33l-.87-1.14ZM190.91,89.17h-1.5v-1.14h1.5v-1.23h1.21v1.23h1.32v-1.23h1.21v1.23h1.53v1.14h-1.53v.94h-1.21v-.94h-1.32v.94h-1.21v-.94ZM192.22,92.44v-1.02h-1.15v1.02h1.15ZM194.54,92.44v-1.02h-1.18v1.02h1.18ZM199.37,92.29v-1.62h-1.32v1.62h1.32ZM199.37,95.05v-1.62h-1.32v1.62h1.32ZM199.37,97.99v-1.8h-1.32v1.8h1.32Z"/>
        <path d="M50.26,124.58c0-.66.49-1.23,1.21-1.23s1.21.57,1.21,1.23-.5,1.2-1.21,1.2-1.21-.54-1.21-1.2Z"/>
        <path d="M62.45,125.1c-.76.94-1.57,1.72-2.4,2.31l-.92-1.11c1.84-1.36,3.3-3.15,4.18-5.13h-3.63v-1.26h4.11c.22-.64.4-1.33.51-1.98l1.47.2c-.13.67-.29,1.21-.48,1.78h6.94v1.26h-7.39c-.25.57-.38.85-.6,1.26h6.38v7.41c0,.99-.34,1.28-1.53,1.28-.78,0-1.56-.04-2.21-.11l-.21-1.46c.6.12,1.32.18,1.95.18.44,0,.57-.12.57-.51v-1.17h-5.33v3.15h-1.42v-6.1ZM69.2,124.7v-1.11h-5.33v1.11h5.33ZM69.2,126.96v-1.17h-5.33v1.17h5.33Z"/>
        <path d="M77.29,126.6c-.88.46-1.77.85-2.49,1.09l-.95-1.23c1.79-.5,3.71-1.39,5.29-2.43-.53-.6-1.05-1.11-1.71-1.68-.71.6-1.41,1.08-2.24,1.51l-1-1.08c2.28-1.12,3.96-2.73,5.1-4.86l1.5.3c-.24.42-.42.71-.6.95h4.17l.76.69c-1.33,2.07-3.21,3.96-5.14,5.21h5.82v6.12h-1.48v-.69h-5.55v.71h-1.49v-4.6ZM82.93,120.45h-3.58c-.32.39-.63.72-.96,1.02.79.6,1.32,1.08,1.95,1.69,1.14-.92,2.01-1.83,2.59-2.71ZM84.32,129.23v-2.89h-5.55v2.89h5.55Z"/>
        <path d="M88.94,127.25c1.35-2.04,2.19-3.66,2.8-5.29-.99.09-1.93.15-2.67.17l-.19-1.42c1-.01,2.19-.08,3.38-.2.22-.76.45-1.56.66-2.43l1.53.38c-.2.66-.38,1.28-.57,1.86.89-.12,1.73-.27,2.42-.45l.27,1.42c-.78.18-1.95.36-3.18.51-.73,2.04-1.6,3.92-3.03,6.27l-1.41-.81ZM92.02,128.55c0-1.14,1.06-2.05,2.67-2.05.36,0,.75.03,1.14.09-.03-.5-.06-1.08-.06-1.36,0-.42.06-1.16.51-1.92l1.33.76c-.29.58-.33.99-.33,1.41,0,.46.03.9.04,1.42,1.06.34,2.16.88,3.15,1.47l-.72,1.3c-.78-.55-1.58-1.02-2.35-1.35v.24c0,1.39-1,2.25-2.58,2.25-1.39,0-2.8-.71-2.8-2.27ZM94.81,129.39c.69,0,1.11-.31,1.11-.94,0-.12,0-.29-.01-.48-.34-.09-.69-.13-1-.13-.79,0-1.33.29-1.33.76,0,.53.55.79,1.25.79ZM97.07,122.18l.67-1.2c1.37.52,2.46,1.14,3.48,2.13l-.82,1.18c-1.16-1.06-2.04-1.59-3.33-2.11Z"/>
        <path d="M103.58,125.33c4.1-1.68,7.41-4.23,9.34-7l1.35.78c-.92,1.32-2.1,2.55-3.46,3.69,0,2.61.01,5.22.04,7.83h-1.56c.03-2.24.03-4.47.02-6.69-1.4.99-2.94,1.88-4.56,2.62l-1.17-1.23Z"/>
        <path d="M122.93,123.23c-.47-.48-.63-.6-.83-.6-.18,0-.33.14-.62.54-.99,1.41-1.58,2.17-2.94,3.9l-1.23-1.07c1.42-1.6,2.24-2.61,3.43-4.18.44-.57.84-.79,1.29-.79.5,0,.83.2,1.54.92,1.92,1.92,4.05,3.93,6.65,6.3l-1.08,1.3c-2.75-2.76-4.26-4.29-6.22-6.31ZM125.12,121.32l.74-.76c.64.54,1.2,1.14,1.83,1.92l-.76.83c-.6-.78-1.12-1.38-1.8-1.98ZM126.55,120.27l.72-.78c.72.6,1.25,1.12,1.86,1.91l-.78.81c-.54-.73-1.15-1.38-1.8-1.93Z"/>
        <path d="M133.21,121.23l.9-1.29c1.3.67,2.17,1.21,3.51,2.28l-.96,1.32c-1.18-1.02-2.29-1.75-3.45-2.31ZM133.81,128.67c3.96-.99,7.03-3.29,9.07-7.54l1.16,1.47c-2.28,4.12-5.04,6.43-9.41,7.62l-.82-1.54Z"/>
        <path d="M150.55,118.44h1.56v3.87c1.86.79,3.97,2.01,5.56,3.27l-1,1.29c-1.44-1.2-3.13-2.28-4.56-2.97v6.92h-1.56v-12.38Z"/>
        <path d="M164.29,124.46c-1.11.45-2.14.87-2.89,1.19l-.69-1.47c.92-.34,1.95-.72,3.03-1.11-.48-1.17-.95-2.17-1.49-3.21l1.46-.6c.5.97.99,2.13,1.47,3.3.23-.09.44-.17.66-.24,1.83-.65,3.33-1.16,4.51-1.16,1.82,0,3.11,1.14,3.11,2.89s-1.5,2.94-3.67,2.94c-.44,0-.79-.04-1.11-.11l-.42-1.57c.39.13.9.19,1.37.19,1.39,0,2.28-.64,2.28-1.53,0-.93-.64-1.42-1.67-1.42-.75,0-2.04.38-3.84,1.08l-.69.27c.9,2.34,1.63,4.39,2.31,6.81l-1.53.48c-.59-2.31-1.38-4.59-2.19-6.74ZM165.79,119.75l.62-1.23c1.18.34,2.16.74,3.27,1.39l-.74,1.31c-1.15-.74-2.04-1.1-3.15-1.47Z"/>
        <path d="M177.62,129.72c4.17-1.63,6.27-4.72,7.08-7.92-2.7.07-6.08.12-8.46.13l-.03-1.5c2.59,0,5.73-.04,9.5-.12l.78.63c-.96,4.93-3.33,7.92-7.44,9.87l-1.42-1.1ZM185.64,119.22c0-.86.69-1.54,1.54-1.54s1.54.69,1.54,1.54-.67,1.54-1.54,1.54-1.54-.67-1.54-1.54ZM187.91,119.22c0-.41-.32-.72-.72-.72s-.73.31-.73.72.33.73.73.73.72-.33.72-.73Z"/>
        <path d="M190.97,120.39c3.41-.03,6.79-.04,10.2-.08-.06,3.1-.06,6.36-.03,9.46h-1.59c0-.33.01-.66.01-1l-6.96.04c0,.33.01.64.01.97h-1.59c.03-3.09,0-6.31-.06-9.4ZM192.59,127.34l6.99-.04c.01-1.83.03-3.69.01-5.49-2.35.03-4.69.04-7.05.07l.04,5.46Z"/>
        <path d="M204.82,123.84l.79-1.3c1.21.57,2.07,1.07,3.18,1.95l-.93,1.3c-1.1-.9-2.04-1.46-3.04-1.95ZM206.11,129.3c3.66-.87,6.91-2.85,9.1-7.87l1.2,1.44c-2.45,4.93-5.67,6.94-9.62,7.95l-.69-1.52ZM206.86,120.63l.84-1.25c1.14.57,2.07,1.12,3.13,2.01l-.99,1.26c-1.06-.93-1.88-1.44-2.98-2.02ZM212.64,119.34l.78-.75c.63.57,1.12,1.12,1.65,1.93l-.81.76c-.58-.88-.96-1.33-1.62-1.95ZM214.49,118.71l.79-.75c.63.6,1.05,1.14,1.62,1.95l-.84.75c-.42-.64-.96-1.36-1.57-1.95Z"/>
        <path d="M220.05,128.15h4.11v-3.83c-1.16.01-2.24.01-3.27.01l-.02-1.32c2.46.03,5.07.01,8.04-.04l.03,1.3-3.36.04v3.83l4.29-.04v1.35c-3.2,0-6.39.01-9.79.04l-.03-1.35Z"/>
        <path d="M235.93,129.84c3.66-1.75,5.8-4.56,6.74-7.9-1.47.04-2.96.06-4.1.06-.82,1.42-1.81,2.66-3.01,3.67l-1.46-.78c2.08-1.79,3.51-3.93,4.35-6.38l1.56.41c-.21.55-.43,1.11-.67,1.63,1.17-.02,2.54-.04,4.23-.09l.96.76c-1.2,4.71-3.39,7.6-7.21,9.73l-1.38-1.12Z"/>
        <path d="M251.77,118.44h1.56v3.87c1.86.79,3.97,2.01,5.56,3.27l-1,1.29c-1.44-1.2-3.13-2.28-4.56-2.97v6.92h-1.56v-12.38Z"/>
        <path d="M268.27,129.24c2.75-.69,4.38-2.37,4.38-4.5s-1.47-3.52-3.6-3.66c-.11,1.7-.38,3.17-.84,4.61-.72,2.25-2,3.48-3.36,3.48s-2.52-1.39-2.52-3.31c0-3.48,2.88-6.21,6.42-6.21,3.25,0,5.49,1.98,5.49,5.08,0,2.68-1.65,4.68-4.74,5.74l-1.23-1.23ZM264.89,127.56c.77,0,1.41-.9,1.88-2.39.41-1.32.65-2.49.74-3.96-2.07.52-3.64,2.41-3.64,4.65,0,.92.49,1.7,1.03,1.7Z"/>
        <path d="M276.94,129.23c4.08-1.83,6.3-4.96,7.59-7.75-2.19.04-4.2.09-6,.09l-.03-1.47c1.9.01,4.09,0,7.08-.08l1.02.85c-.65,1.47-1.38,2.83-2.24,4.09,1.67,1.4,3,2.66,4.26,4.32l-1.21,1.08c-1.29-1.74-2.52-3.09-3.88-4.29-1.38,1.71-3.09,3.15-5.31,4.29l-1.28-1.14Z"/>
        <path d="M290.92,128.24c1.2-1.38,2.05-2.96,2.55-4.44l1.37.62c-.48,1.5-1.33,3.32-2.49,4.56l-1.42-.73ZM294.44,130.52l-.19-1.65c.78.18,1.48.27,1.88.27.31,0,.46-.15.46-.48,0-2-.03-3.99-.08-5.97-1.67.01-3.31.03-5.1.03l-.03-1.47c1.75.03,3.42.04,5.1.02-.03-.89-.04-1.77-.06-2.67h1.51l.04,2.65c1.59-.03,3.24-.07,5.03-.15l.04,1.47c-1.8.04-3.44.08-5.05.09.03,2.16.07,4.3.1,6.46.01.99-.51,1.54-1.67,1.54-.64,0-1.26-.04-2-.15ZM299.32,124.52l1.2-.86c1.09,1.32,1.98,2.68,2.8,4.39l-1.35.86c-.78-1.68-1.63-3.1-2.66-4.39ZM300.37,119.3c0-.86.69-1.54,1.54-1.54s1.54.69,1.54,1.54-.67,1.54-1.54,1.54-1.54-.68-1.54-1.54ZM302.63,119.3c0-.41-.32-.72-.72-.72s-.73.32-.73.72.33.73.73.73.72-.33.72-.73Z"/>
        <path d="M50.2,152.42l.9-1.29c1.3.67,2.17,1.21,3.51,2.28l-.96,1.32c-1.18-1.02-2.29-1.75-3.45-2.31ZM50.8,159.85c3.96-.99,7.03-3.29,9.07-7.54l1.16,1.47c-2.28,4.12-5.04,6.43-9.41,7.62l-.82-1.54Z"/>
        <path d="M66.22,154.77c-1.1.02-2.08.02-2.97.02l-.02-1.47c.86.02,1.86.02,2.99,0,0-1.09,0-2.2-.02-3.31h1.52c-.02,1.11-.02,2.21-.02,3.31,1.16-.01,2.42-.01,3.75-.04-.01-1.17-.03-2.37-.06-3.49h1.51c-.01,1.14-.01,2.31-.01,3.48,1.03-.01,2.1-.04,3.19-.06l.02,1.48-3.21.04v.18c0,4.17-1.29,5.89-4.02,7.24l-1.36-.9c2.83-1.38,3.94-2.62,3.94-6.51-1.37.01-2.61.01-3.75.03,0,1.08,0,2.16.02,3.24h-1.52c.02-1.08.02-2.16.02-3.24Z"/>
        <path d="M78.14,155.02l11.97-.07.03,1.5-11.97.07-.03-1.5Z"/>
        <path d="M93.49,156.84c0-1.42.32-3.93.86-6.79l1.53.24c-.6,2.89-.92,5.42-.92,6.58,0,.46.03,1,.11,1.46.24-.77.62-1.65.9-2.19l.9.9c-.46.93-.67,1.53-.84,2.1-.2.69-.3,1.37-.24,2l-1.18.5c-.62-1.22-1.11-2.82-1.11-4.79ZM97.84,158.47c0-.64.27-1.37.99-2.17l1.42.48c-.69.6-.92,1.08-.92,1.45,0,.75.63,1.19,2.29,1.19.66,0,1.63-.09,2.59-.32l.3,1.56c-1.04.17-2.07.21-2.7.21-2.71,0-3.99-.72-3.99-2.4ZM98,151.58c1.68.03,4.29-.12,6-.39l.18,1.5c-1.72.27-4.32.44-6.04.39l-.14-1.5Z"/>
        <path d="M107.15,158.43c1.35-2.04,2.19-3.66,2.8-5.29-.99.09-1.93.15-2.67.17l-.19-1.42c1-.01,2.19-.08,3.38-.2.22-.76.45-1.56.66-2.43l1.53.38c-.2.66-.38,1.28-.57,1.86.89-.12,1.73-.27,2.42-.45l.27,1.42c-.78.18-1.95.36-3.18.51-.73,2.04-1.6,3.92-3.03,6.27l-1.41-.81ZM110.23,159.73c0-1.14,1.06-2.05,2.67-2.05.36,0,.75.03,1.14.09-.03-.5-.06-1.08-.06-1.36,0-.42.06-1.16.51-1.92l1.33.76c-.29.58-.33.99-.33,1.41,0,.46.03.9.04,1.42,1.07.34,2.16.88,3.15,1.47l-.72,1.3c-.78-.55-1.58-1.02-2.35-1.35v.24c0,1.39-1,2.25-2.58,2.25-1.39,0-2.8-.71-2.8-2.27ZM113.02,160.57c.69,0,1.11-.31,1.11-.94,0-.12,0-.29-.01-.48-.34-.09-.69-.13-1-.13-.79,0-1.33.29-1.33.76,0,.53.55.79,1.25.79ZM115.28,153.36l.67-1.2c1.37.52,2.46,1.14,3.48,2.13l-.82,1.18c-1.16-1.06-2.04-1.59-3.33-2.11Z"/>
        <path d="M126.04,160.11c2.99-.31,4.59-1.38,4.59-2.88,0-.94-.64-1.84-1.92-1.84-.67,0-1.5.18-2.46.38-.95.2-2.23.5-3.21.74l-.4-1.41c.96-.21,2.08-.44,3.28-.67,1.05-.21,2.05-.39,2.85-.39,2.17,0,3.42,1.37,3.42,3.13,0,2.31-1.8,3.77-5.28,4.29l-.87-1.33Z"/>
        <path d="M136.21,161.18c1.23-2.76,2.1-5.34,2.71-7.93-1.02.07-1.98.12-2.77.15l-.17-1.51c1.04-.03,2.14-.08,3.29-.15.15-.81.3-1.63.42-2.47l1.54.24c-.14.72-.29,1.42-.44,2.12,1.11-.12,2.21-.26,3.27-.47l.24,1.5c-1.18.2-2.53.36-3.85.48-.69,2.92-1.54,5.7-2.71,8.65l-1.53-.6ZM141.44,159.24c0-.55.21-1.23.67-1.89l1.37.44c-.39.45-.57.9-.57,1.21,0,.58.66.92,2.13.92.96,0,1.98-.11,2.79-.29l.3,1.56c-.93.18-2.13.21-2.85.21-2.75,0-3.84-.9-3.84-2.16ZM142.21,154.44c1.71-.28,3.71-.42,5.4-.34l-.19,1.49c-1.63-.09-3.45.03-4.8.27l-.41-1.41Z"/>
        <path d="M50.26,186.94c0-.66.49-1.23,1.21-1.23s1.21.57,1.21,1.23-.5,1.2-1.21,1.2-1.21-.54-1.21-1.2Z"/>
        <path d="M61.66,188.31c-.58.63-1.05,1.09-1.81,1.72l-.71-1.32c1.44-.99,3.13-2.83,3.97-4.36h-3.52v-1.33h2.01v-2.58h1.41v2.58h1.38l.6.62c-.53,1.03-1.12,2.02-1.84,2.94.9.54,1.59,1.02,2.58,1.83l-.92,1.23c-.66-.69-1.11-1.11-1.74-1.62v5.56h-1.41v-5.26ZM64.37,191.67h3.27v-5.83h-2.64v-1.38h2.64v-3.84h1.48v3.84h2.92v1.38h-2.92v5.83h3.44v1.4h-8.19v-1.4Z"/>
        <path d="M73.66,185.58c2.55-1,4.44-2.64,5.75-4.93h1.7c1.38,1.94,3.4,3.46,6.01,4.53l-.92,1.25c-.9-.41-1.77-.89-2.57-1.43v1.05h-6.42v-.84c-.84.6-1.74,1.12-2.67,1.54l-.89-1.17ZM84.02,192.19c-2.82.42-6.09.78-9.03,1l-.45-1.44c.69-.03,1.57-.07,2.07-.12.51-.9.97-1.85,1.38-2.9h-3.55v-1.29h11.91v1.29h-6.69c-.45,1-.93,1.94-1.42,2.8,1.92-.13,3.43-.25,4.88-.42-.38-.42-.83-.9-1.49-1.48l1.25-.69c1.26,1.09,2.47,2.37,3.48,3.66l-1.32.92c-.45-.63-.53-.72-1-1.33ZM83.32,184.78c-1.2-.84-2.28-1.83-3.06-2.86-.69,1.12-1.5,2.04-2.5,2.86h5.57Z"/>
        <path d="M88.88,180.97h5.41v4.98h-4v7.63h-1.41v-12.61ZM92.98,183v-.95h-2.69v.95h2.69ZM92.98,184.93v-1h-2.69v1h2.69ZM91.91,187.14h5.78v4.21h-4.41v.81h-1.37v-5.02ZM96.32,190.2v-1.95h-3.04v1.95h3.04ZM97.69,193.36l-.25-1.46c.55.09,1.11.13,1.53.13.34,0,.45-.1.45-.5v-5.59h-4.11v-4.98h5.52v11.19c0,.96-.35,1.29-1.32,1.29-.45,0-1.2-.03-1.81-.09ZM99.41,183v-.95h-2.78v.95h2.78ZM99.41,184.93v-1h-2.78v1h2.78Z"/>
        <path d="M102.4,192.66c.64-1,1.11-2.73,1.23-4.63l1.26.21c-.03.43-.08.87-.15,1.29.33.48.58.79.92,1.09v-3.22h-2.96v-1.19h6.62v1.19h-2.38v1.26h2.07v1.18h-2.07v1.61c.72.31,1.39.46,2.56.52l-.92-.9c.84-.38,1.67-.96,2.22-1.58h-1.04v-6.42h1.61c.1-.39.17-.71.21-1.11h-2.45v-1.17h6.46v1.17h-2.64c-.09.42-.18.76-.3,1.11h2.42v6.42h-1.28c.62.33,1.25.77,2.04,1.4l-.97,1c-.68-.6-1.44-1.17-2.25-1.67l.79-.74h-2.46l.99.71c-.75.79-1.47,1.37-2.24,1.79.66.04,1.3.06,2.08.06,1.25,0,2.33-.03,4.37-.15-.24.54-.33.88-.39,1.41-1.33.06-2.01.08-2.96.08-2.58,0-4.65-.19-5.77-.54-1.04-.33-1.91-.96-2.56-1.84-.26,1.14-.58,2.01-.99,2.71l-1.08-1.05ZM103.45,180.79h5.17v4.62h-5.17v-4.62ZM107.35,182.59v-.83h-2.62v.83h2.62ZM107.35,184.44v-.88h-2.62v.88h2.62ZM113.8,184.89v-.84h-2.75v.84h2.75ZM113.8,186.67v-.84h-2.75v.84h2.75ZM113.8,188.5v-.88h-2.75v.88h2.75Z"/>
        <path d="M123.84,186.12c-.75-.88-1.15-1.11-1.56-1.11s-.75.24-1.12.76c-.92,1.28-1.58,2.12-2.67,3.43l-1.32-1.11c1-.99,2.08-2.21,3-3.44.68-.91,1.28-1.32,2.08-1.32s1.53.41,2.46,1.48c1.85,2.16,3.33,3.66,5.79,5.67l-1.18,1.37c-2.52-2.26-3.96-3.96-5.48-5.75Z"/>
        <path d="M138.13,191.61c2.75-.69,4.38-2.37,4.38-4.5s-1.47-3.52-3.6-3.66c-.11,1.7-.38,3.17-.84,4.61-.72,2.25-2,3.48-3.36,3.48s-2.52-1.39-2.52-3.31c0-3.48,2.88-6.21,6.42-6.21,3.25,0,5.49,1.98,5.49,5.08,0,2.68-1.65,4.68-4.74,5.74l-1.23-1.23ZM134.75,189.93c.77,0,1.41-.9,1.88-2.39.41-1.32.65-2.49.74-3.96-2.07.52-3.64,2.41-3.64,4.65,0,.92.49,1.7,1.03,1.7Z"/>
        <path d="M154.28,193.29l-.3-1.51c.63.09,1.23.15,1.8.15.39,0,.5-.09.5-.45v-6.32h-3.78v-.79h-.85c-.2,1.5-.56,2.87-1.04,4.05.67.87,1.29,1.75,1.81,2.57l-1.05,1.09c-.64-1.08-1-1.62-1.46-2.24-.76,1.46-1.65,2.62-2.64,3.46l-1.04-1.08c1.17-.92,2.12-2.1,2.8-3.57-.82-1.09-1.45-1.81-2.19-2.55l1-.87c.64.66,1.05,1.11,1.79,2.01.33-.92.52-1.81.64-2.88h-4.06v-1.33h2.75v-2.52h1.42v2.52h2.37v.78h3.44v-3.3h1.44v3.3h1.65v1.35h-1.58v6.88c0,1.04-.34,1.33-1.51,1.33-.63,0-1.42-.04-1.92-.09ZM152.53,186.61l1.2-.69c.72.99,1.38,2.14,1.82,3.24l-1.21.78c-.53-1.3-1.19-2.5-1.8-3.33Z"/>
        <path d="M160.55,192.25c.87-1.32,1.18-2.92,1.18-5.83v-4.17h5.08v-1.86h1.56v1.86h5.1v1.32h-10.24v2.22c.01,4.08-.34,5.88-1.54,7.68l-1.14-1.21ZM163.24,191.68c.54-1.14.88-2.69,1.05-4.53l1.39.38c-.22,2.17-.61,3.92-1.12,5.02l-1.32-.87ZM166.24,192.04v-5.67h1.47v4.98c0,.45.13.54.87.54.96,0,1.12-.06,1.23-.39.08-.31.12-1.02.12-2.04l1.46.38c-.04,1.73-.17,2.54-.42,2.9-.29.4-.92.55-2.28.55-1.95,0-2.44-.24-2.44-1.25ZM166.58,184.89l.96-1.05c.84.55,1.82,1.35,2.66,2.16l-1.07,1.17c-.73-.85-1.67-1.69-2.55-2.28ZM170.38,187.39l1.18-.75c.84,1.18,1.68,2.75,2.38,4.41l-1.24.93c-.72-1.82-1.53-3.42-2.33-4.59Z"/>
        <path d="M175.61,192.07c1.25-2.34,2.1-4.38,2.71-6.57-.92.13-1.77.25-2.43.36l-.25-1.46c.69-.06,1.96-.19,2.98-.34.24-1.04.45-2.12.65-3.25l1.53.24c-.19.93-.42,1.86-.66,2.82.44-.03.83-.06,1.14-.06,1.44,0,2.4.88,2.4,2.68,0,1.29-.12,2.91-.45,4.28-.37,1.56-1.27,1.96-2.17,1.96-.7,0-1.39-.13-2.01-.36l-.12-1.65c.71.34,1.38.48,1.83.48.58,0,.88-.31,1.11-1.35.19-.88.3-2,.3-3.06s-.43-1.59-1.18-1.59c-.26,0-.62.03-1.14.09-.73,2.59-1.53,4.87-2.82,7.51l-1.41-.74ZM183.6,184.05l1.23-.92c1.17,1.39,1.95,3.06,2.64,5.19l-1.38.9c-.72-2.27-1.35-3.98-2.49-5.17ZM184.78,181.93l.79-.66c.63.6,1.05,1.11,1.56,2.01l-.86.68c-.51-.92-.94-1.49-1.5-2.03ZM186.23,181.09l.79-.66c.68.58,1.08,1.16,1.56,1.98l-.87.66c-.45-.84-.9-1.46-1.49-1.98Z"/>
        <path d="M189.53,192.3c.93-1.21,1.79-2.73,2.5-4.47l1.17.96c-.64,1.68-1.53,3.36-2.46,4.7l-1.21-1.19ZM189.64,185.19l.94-1.08c.79.54,1.63,1.26,2.28,1.96l-.99,1.19c-.63-.75-1.42-1.49-2.23-2.07ZM190.16,181.83l.99-1.1c.73.51,1.51,1.2,2.21,1.96l-1.04,1.17c-.71-.81-1.42-1.48-2.16-2.04ZM193.13,191.65h3.88v-3.13h-3.21v-1.29h3.21v-2.67h-3.58v-1.29h4.79c-.85-.72-1.89-1.42-2.89-1.96l1-1.02c1.05.55,2.1,1.21,3.01,1.92l-.99,1.06h3.81v1.29h-3.69v2.67h3.38v1.29h-3.38v3.13h4.09v1.33h-9.43v-1.33Z"/>
        <path d="M205.64,181.3h9.78v12.13h-1.49v-.95h-6.81v.95h-1.48v-12.13ZM213.93,184.56v-1.98h-6.81v1.98h6.81ZM213.93,187.78v-1.96h-6.81v1.96h6.81ZM213.93,191.2v-2.14h-6.81v2.14h6.81Z"/>
        <path d="M219.74,184c1.74-.06,3.36-.17,4.9-.33-.36-.83-.66-1.71-.92-2.67l1.55-.34c.16.91.48,1.89.88,2.82,1.33-.18,2.62-.43,3.85-.75l.33,1.47c-1.05.25-2.24.48-3.51.67.81,1.5,1.83,2.81,2.77,3.53l-.93,1.21c-.5-.41-.96-.66-1.68-.88-.79-.25-1.47-.34-2.25-.34-1.7,0-2.55.76-2.55,1.56,0,1.11,1.5,1.56,3.71,1.56.84,0,1.74-.06,2.41-.15l.15,1.46c-.67.09-1.83.15-2.64.15-3.21,0-5.16-.96-5.16-2.96,0-1.62,1.65-2.91,4.08-2.91.71,0,1.46.13,2.13.34-.58-.74-1.11-1.51-1.56-2.37-1.73.21-3.57.36-5.42.44l-.17-1.5Z"/>
        <path d="M236.11,188.98c-.54.62-1.17,1.37-1.94,2.38l-1.23-.93c1.25-1.26,2.28-2.73,2.7-3.57.15-.3.33-.73.48-1.2v-.96c-.86.19-1.89.34-2.68.42l-.24-1.4c.83-.06,1.95-.2,2.91-.42,0-1.06-.02-1.86-.03-2.65l1.59.06c-.03.88-.06,1.68-.08,2.61l.63.42c-.15.51-.36,1.06-.64,1.77v.18c1.69-1.79,3.18-3.1,4.51-3.1.96,0,1.6.58,1.6,1.68,0,.65-.1,1.3-.22,2.04-.25,1.59-.36,2.77-.36,3.38,0,.81.27,1.04.72,1.04.63,0,1.33-.42,2.07-1.64l.66,1.54c-.75,1.08-1.75,1.62-2.97,1.62s-2.01-.88-2.01-2.28c0-.95.1-2.19.38-3.93.07-.5.15-1.05.15-1.44,0-.36-.12-.51-.39-.51-.72,0-2.56,1.74-4.14,3.33,0,1.96,0,3.43.03,5.7l-1.57.06c.03-1.62.06-2.92.08-4.2Z"/>
        <path d="M248.14,192.36c1.23-2.76,2.1-5.34,2.71-7.93-1.02.08-1.98.12-2.77.15l-.17-1.51c1.04-.03,2.14-.08,3.29-.15.15-.81.3-1.63.42-2.47l1.54.24c-.14.72-.29,1.42-.44,2.12,1.11-.12,2.21-.26,3.27-.47l.24,1.5c-1.18.2-2.53.36-3.85.48-.69,2.92-1.54,5.7-2.71,8.65l-1.53-.6ZM253.37,190.42c0-.55.21-1.23.67-1.89l1.37.44c-.39.45-.57.9-.57,1.21,0,.58.66.92,2.13.92.96,0,1.98-.11,2.79-.29l.3,1.56c-.93.18-2.13.21-2.85.21-2.75,0-3.84-.9-3.84-2.16ZM254.14,185.62c1.71-.28,3.71-.42,5.4-.34l-.19,1.49c-1.63-.09-3.45.03-4.8.27l-.41-1.41Z"/>
      </g>
      <rect class="cls-1" y="221.85" width="28.2" height="183.64"/>
      <rect class="cls-3" x="33.46" y="221.85" width="294.16" height="183.64"/>
      <g>
        <path d="M12.88,273.76h-5v-1.44h12.42v1.44h-5.82v1.75c1.8.87,3.74,1.98,5.46,3.13l-1.2,1.35c-1.27-.97-2.75-1.96-4.26-2.83v7.14h-1.6v-10.54Z"/>
        <path d="M8.1,300.79c1.25-2.34,2.1-4.38,2.71-6.57-.92.13-1.77.25-2.43.36l-.25-1.46c.69-.06,1.96-.19,2.98-.34.24-1.04.45-2.12.65-3.25l1.53.24c-.19.93-.42,1.86-.66,2.82.44-.03.83-.06,1.14-.06,1.44,0,2.4.88,2.4,2.68,0,1.29-.12,2.91-.45,4.28-.38,1.56-1.28,1.96-2.18,1.96-.71,0-1.39-.13-2.01-.36l-.12-1.65c.71.34,1.38.48,1.83.48.58,0,.88-.31,1.11-1.35.19-.88.3-2,.3-3.06s-.43-1.59-1.18-1.59c-.26,0-.62.03-1.14.09-.73,2.59-1.53,4.87-2.82,7.51l-1.41-.74ZM16.09,292.76l1.23-.92c1.17,1.39,1.95,3.06,2.64,5.19l-1.38.9c-.72-2.27-1.35-3.98-2.49-5.17ZM17.26,290.65l.79-.66c.63.6,1.05,1.11,1.56,2.01l-.86.68c-.51-.92-.94-1.49-1.5-2.03ZM18.72,289.81l.79-.66c.68.58,1.08,1.16,1.56,1.98l-.87.66c-.45-.84-.9-1.46-1.49-1.98Z"/>
        <path d="M11.14,317.5c0-1.05.95-1.81,2.23-1.81s2.39.72,3.12,2.01c.72-.48,1.19-1.19,1.19-2.03,0-1.05-1.07-1.9-2.79-1.9-1.09,0-2.42.36-3.42.99-.69.44-1.2.86-1.96,1.63l-1.04-1.12c1.65-1.28,4.05-3.39,6.21-5.82-1.21.21-2.73.34-3.99.41l-.27-1.44c1.72-.03,3.61-.15,5.77-.55l.85,1.05c-1.44,1.54-2.56,2.61-3.91,3.83.69-.21,1.33-.3,1.93-.3,2.52,0,4.16,1.33,4.16,3.19,0,2.4-2.4,4.05-5.24,4.05-1.54,0-2.85-.83-2.85-2.17ZM14.14,318.35c.39,0,.75-.05,1.11-.14-.46-.81-1.11-1.26-1.8-1.26-.51,0-.81.25-.81.58,0,.53.66.81,1.5.81Z"/>
        <path d="M9.45,334.49c0-1.32,1-2.5,2.88-3.69-.61-1.41-1.3-3.21-1.71-4.98l1.58-.38c.27,1.41.88,3.25,1.44,4.62,1.14-.6,2.5-1.21,4.02-1.84l.69,1.47c-3.94,1.35-7.35,3.1-7.35,4.63,0,.95.79,1.51,2.99,1.51,1.32,0,2.92-.1,4.67-.43l.27,1.6c-1.79.3-3.62.36-4.79.36-3.46,0-4.68-1.16-4.68-2.88Z"/>
        <path d="M8.77,348.05c1.79.04,3.72-.04,5.46-.24-.2-.46-.41-.97-.58-1.49-1.46.15-2.89.24-3.93.25l-.17-1.41c1.2.03,2.46-.02,3.66-.14-.16-.48-.3-.97-.45-1.48l1.5-.33c.09.52.21,1.08.38,1.65,1.12-.17,2.16-.38,2.95-.63l.42,1.33c-.79.23-1.84.42-2.95.57.18.51.38,1,.6,1.49,1.3-.2,2.46-.45,3.27-.74l.5,1.38c-.85.27-1.92.5-3.09.66.65,1.14,1.41,2.13,2.25,2.8l-.9,1.14c-.57-.39-.96-.57-1.68-.79-.67-.21-1.32-.3-1.9-.3-1.73,0-2.69.65-2.69,1.32,0,.97,1.35,1.36,3.51,1.36.66,0,1.68-.07,2.39-.19l.19,1.47c-.78.09-2.04.15-2.82.15-2.38,0-4.82-.56-4.82-2.73,0-1.48,1.7-2.58,4.08-2.58.72,0,1.37.09,2.03.29-.39-.54-.77-1.12-1.1-1.74-2.05.23-4.23.35-5.97.36l-.13-1.44Z"/>
      </g>
      <g>
        <path d="M50.26,252.89c0-.66.49-1.23,1.21-1.23s1.21.57,1.21,1.23-.5,1.2-1.21,1.2-1.21-.54-1.21-1.2Z"/>
        <path d="M60.02,250.58h3.15c-.21-.57-.41-1.02-.71-1.61h-3.15v-1.21h5.8v-1.47h1.53v1.47h5.89v1.21h-3.17c-.25.58-.55,1.16-.82,1.61h3.28v7.59c0,.91-.38,1.24-1.41,1.24-.53,0-1.28-.04-2.01-.1l-.24-1.33c.6.09,1.33.15,1.75.15.39,0,.5-.11.5-.5v-5.97h-2.66v.93c0,.31.09.38.64.38.46,0,.66-.06.74-.23.06-.12.1-.39.1-.66l1.01.3c-.09,1.42-.3,1.6-2,1.6-1.49,0-1.8-.15-1.8-.87v-1.45h-1.43c-.03,1.23-.58,2.13-1.68,2.71h5.28v3.3h-4.14v.71h-1.32v-3.9c-.25.12-.45.2-.84.32l-.84-.99c1.48-.34,2.19-1,2.26-2.14h-2.34v7.86h-1.41v-8.94ZM67.06,250.58c.24-.39.49-.93.75-1.61h-3.83c.27.56.48,1.02.69,1.61h2.38ZM67.33,256.62v-1.25h-2.82v1.25h2.82Z"/>
        <path d="M74.36,253.1h5.36v6.13h-1.4v-.69h-2.56v.84h-1.4v-6.29ZM78.32,257.25v-2.9h-2.56v2.9h2.56ZM76.4,246.99h7.9v4.95h-7.9v-4.95ZM82.82,250.67v-2.37h-4.93v2.37h4.93ZM80.98,253.1h5.44v6.29h-1.39v-.84h-2.66v.84h-1.39v-6.29ZM85.03,257.25v-2.9h-2.66v2.9h2.66Z"/>
        <path d="M94.75,257.55c2.75-.69,4.38-2.37,4.38-4.5s-1.47-3.52-3.6-3.66c-.11,1.7-.38,3.17-.84,4.61-.72,2.25-2,3.48-3.36,3.48s-2.52-1.39-2.52-3.31c0-3.48,2.88-6.21,6.42-6.21,3.25,0,5.49,1.98,5.49,5.08,0,2.68-1.65,4.68-4.74,5.74l-1.23-1.23ZM91.37,255.87c.77,0,1.41-.9,1.88-2.39.41-1.32.65-2.49.74-3.96-2.07.52-3.64,2.41-3.64,4.65,0,.92.49,1.7,1.03,1.7Z"/>
        <path d="M102.94,258.24c3-.4,3.94-1.44,3.94-4.2h1.52c-.04,3.39-1.19,4.81-4.58,5.58l-.88-1.38ZM104.38,250.13h4.12v-1.08h-5.25v-1.2h5.25v-1.56h1.53v1.56h5.34v1.2h-5.34v1.08h4.21v1.17h-9.87v-1.17ZM103.39,252.21h11.85v2.76h-1.49v-1.58h-8.88v1.7h-1.48v-2.88ZM110.02,258v-3.96h1.5v3.33c0,.43.18.49,1.27.49,1.44,0,1.47-.04,1.56-1.95l1.43.42c-.09,2.74-.33,2.97-3.23,2.97-2.07,0-2.53-.24-2.53-1.3Z"/>
        <path d="M120.43,254.93c-.54.62-1.17,1.37-1.94,2.38l-1.23-.93c1.25-1.26,2.28-2.73,2.7-3.57.15-.3.33-.73.48-1.2v-.96c-.86.19-1.89.34-2.68.42l-.24-1.4c.83-.06,1.95-.2,2.91-.42,0-1.06-.02-1.86-.03-2.65l1.59.06c-.03.88-.06,1.68-.08,2.61l.63.42c-.15.51-.36,1.06-.64,1.77v.18c1.69-1.79,3.18-3.1,4.51-3.1.96,0,1.6.58,1.6,1.68,0,.65-.1,1.3-.22,2.04-.25,1.59-.36,2.77-.36,3.38,0,.81.27,1.04.72,1.04.63,0,1.33-.42,2.07-1.64l.66,1.54c-.75,1.08-1.75,1.62-2.97,1.62s-2.01-.88-2.01-2.28c0-.95.1-2.19.38-3.93.08-.5.15-1.05.15-1.44,0-.36-.12-.51-.39-.51-.72,0-2.57,1.74-4.14,3.33,0,1.96,0,3.43.03,5.7l-1.57.06c.03-1.62.06-2.92.08-4.2Z"/>
        <path d="M133.82,254.03c-.45.48-.85.89-1.35,1.31l-.9-1.2c1.44-1.09,2.7-2.64,3.74-4.54l1.3.63c-.44.76-.87,1.41-1.37,2.1v7.2h-1.42v-5.49ZM131.59,249.69c1.44-.87,2.46-1.82,3.32-3.03l1.23.78c-1,1.33-2.31,2.53-3.69,3.37l-.86-1.12ZM138.62,259.26l-.27-1.58c.75.12,1.5.2,2.14.2.41,0,.51-.11.51-.53v-5.08h-4.46v-1.33h8.17v1.33h-2.26v5.88c0,.88-.39,1.23-1.46,1.23-.52,0-1.58-.04-2.38-.12ZM137.18,247.37h6.75v1.33h-6.75v-1.33Z"/>
        <path d="M147.37,251.28c1.79.04,3.72-.04,5.46-.24-.2-.46-.41-.97-.58-1.49-1.46.15-2.89.24-3.93.25l-.17-1.41c1.2.03,2.46-.02,3.66-.14-.16-.48-.3-.97-.45-1.48l1.5-.33c.09.52.21,1.08.38,1.65,1.12-.17,2.16-.38,2.95-.63l.42,1.33c-.79.23-1.84.42-2.95.57.18.51.38,1,.6,1.49,1.3-.2,2.46-.45,3.27-.74l.5,1.38c-.85.27-1.92.5-3.09.66.65,1.14,1.41,2.13,2.25,2.8l-.9,1.14c-.57-.39-.96-.57-1.68-.79-.67-.21-1.32-.3-1.9-.3-1.73,0-2.69.65-2.69,1.32,0,.97,1.35,1.36,3.51,1.36.66,0,1.68-.07,2.39-.19l.19,1.47c-.78.09-2.04.15-2.82.15-2.38,0-4.82-.56-4.82-2.73,0-1.48,1.7-2.58,4.08-2.58.72,0,1.37.09,2.03.29-.39-.54-.77-1.12-1.1-1.74-2.05.22-4.23.34-5.97.36l-.13-1.44Z"/>
        <path d="M161.15,258.02c1.25-2.34,2.1-4.38,2.71-6.57-.92.13-1.77.25-2.43.36l-.25-1.46c.69-.06,1.96-.19,2.98-.34.24-1.04.45-2.12.65-3.25l1.53.24c-.19.93-.42,1.86-.66,2.82.44-.03.83-.06,1.14-.06,1.44,0,2.4.88,2.4,2.68,0,1.29-.12,2.91-.45,4.28-.38,1.56-1.28,1.96-2.18,1.96-.71,0-1.39-.13-2.01-.36l-.12-1.65c.71.34,1.38.48,1.83.48.58,0,.88-.31,1.11-1.35.19-.88.3-2,.3-3.06s-.43-1.59-1.18-1.59c-.26,0-.62.03-1.14.09-.73,2.59-1.53,4.87-2.82,7.51l-1.41-.74ZM169.14,249.99l1.23-.92c1.17,1.39,1.95,3.06,2.64,5.19l-1.38.9c-.72-2.27-1.35-3.98-2.49-5.17ZM170.32,247.88l.79-.66c.63.6,1.05,1.11,1.56,2.01l-.86.68c-.51-.92-.94-1.49-1.5-2.03ZM171.77,247.04l.79-.66c.68.58,1.08,1.16,1.56,1.98l-.87.66c-.45-.84-.9-1.46-1.49-1.98Z"/>
        <path d="M175.13,258.35c.68-.81,1.23-1.84,1.61-2.94l1.25.47c-.41,1.41-.96,2.55-1.63,3.39l-1.22-.92ZM175.15,253.49h4.27v-1.06h-3.1v-3.41h3.1v-1h-3.99v-1.12h12.36v1.12h-4.07v1h3.18v3.41h-3.18v1.06h4.37v1.14h-12.94v-1.14ZM179.42,251.36v-1.27h-1.75v1.27h1.75ZM179.32,259.14c-.38-.18-.56-.48-.56-.99v-2.86h1.44v2.19c0,.54.15.58,1.75.58.53,0,.87-.01,1.25-.06.6-.04.66-.18.71-1.43l1.36.39c-.04.92-.17,1.56-.38,1.84-.3.42-1,.55-2.94.55-1.49,0-2.29-.07-2.64-.22ZM180.62,255.35l1.06-.69c.59.47,1.17,1.12,1.71,1.91l-1.14.81c-.51-.81-1.09-1.53-1.63-2.03ZM182.45,249.02v-1h-1.75v1h1.75ZM182.45,251.36v-1.27h-1.75v1.27h1.75ZM182.45,253.49v-1.06h-1.75v1.06h1.75ZM185.55,251.36v-1.27h-1.83v1.27h1.83ZM184.76,255.74l1.14-.69c.9.78,1.76,1.77,2.49,2.88l-1.27.9c-.71-1.2-1.54-2.31-2.36-3.09Z"/>
        <path d="M193.45,254.84c-1.21-.81-1.58-1.21-1.58-1.89,0-.63.53-1.11,1.72-2.07,1.56-1.25,2.9-2.42,4.32-4.12l1.35,1.02c-1.56,1.75-2.61,2.58-4.36,3.93-1,.76-1.29,1.03-1.29,1.26,0,.29.18.43,1.29,1.12,1.81,1.12,3.06,1.9,5.2,3.93l-1.18,1.18c-1.93-1.95-3.25-2.88-5.47-4.36Z"/>
        <path d="M204.62,255.56c1.35-2.04,2.19-3.66,2.8-5.29-.99.09-1.93.15-2.67.17l-.19-1.42c1-.01,2.19-.08,3.38-.2.22-.76.45-1.56.66-2.43l1.53.38c-.2.66-.38,1.28-.57,1.86.89-.12,1.73-.27,2.42-.45l.27,1.42c-.78.18-1.95.36-3.18.51-.73,2.04-1.6,3.92-3.03,6.27l-1.41-.81ZM207.7,256.86c0-1.14,1.06-2.05,2.67-2.05.36,0,.75.03,1.14.09-.03-.5-.06-1.08-.06-1.36,0-.42.06-1.16.51-1.92l1.33.76c-.29.58-.33.99-.33,1.41,0,.46.03.9.04,1.42,1.06.34,2.16.88,3.15,1.47l-.72,1.3c-.78-.55-1.58-1.02-2.35-1.35v.24c0,1.39-1,2.25-2.58,2.25-1.39,0-2.8-.71-2.8-2.27ZM210.49,257.7c.69,0,1.11-.31,1.11-.94,0-.12,0-.29-.01-.48-.34-.09-.69-.13-1-.13-.79,0-1.33.29-1.33.76,0,.53.55.79,1.25.79ZM212.75,250.49l.67-1.2c1.37.52,2.46,1.14,3.48,2.13l-.82,1.18c-1.16-1.06-2.04-1.59-3.33-2.11Z"/>
        <path d="M223.51,257.24c2.99-.31,4.59-1.38,4.59-2.88,0-.94-.64-1.84-1.92-1.84-.67,0-1.5.18-2.46.38-.94.2-2.23.5-3.21.74l-.4-1.41c.96-.21,2.08-.44,3.28-.67,1.05-.21,2.05-.39,2.85-.39,2.17,0,3.42,1.37,3.42,3.14,0,2.31-1.8,3.76-5.28,4.29l-.87-1.33Z"/>
        <path d="M233.68,258.3c1.23-2.76,2.1-5.34,2.71-7.93-1.02.08-1.98.12-2.77.15l-.17-1.51c1.04-.03,2.14-.08,3.29-.15.15-.81.3-1.63.42-2.47l1.54.24c-.14.72-.29,1.42-.44,2.12,1.11-.12,2.21-.26,3.27-.47l.24,1.5c-1.18.2-2.53.36-3.85.48-.69,2.92-1.54,5.7-2.71,8.65l-1.53-.6ZM238.91,256.37c0-.55.21-1.23.67-1.89l1.37.44c-.39.45-.57.9-.57,1.21,0,.58.66.92,2.13.92.96,0,1.98-.11,2.79-.29l.3,1.56c-.93.18-2.13.21-2.85.21-2.75,0-3.84-.9-3.84-2.16ZM239.68,251.57c1.71-.28,3.71-.42,5.4-.34l-.19,1.49c-1.63-.09-3.45.03-4.8.27l-.41-1.41Z"/>
        <path d="M249.26,255.72c0-1.32,1-2.5,2.88-3.69-.61-1.41-1.3-3.21-1.71-4.98l1.58-.38c.27,1.41.88,3.25,1.44,4.62,1.14-.6,2.5-1.21,4.02-1.84l.69,1.47c-3.94,1.35-7.35,3.1-7.35,4.63,0,.95.79,1.51,2.99,1.51,1.32,0,2.92-.1,4.67-.43l.27,1.6c-1.79.3-3.62.36-4.79.36-3.46,0-4.68-1.16-4.68-2.88Z"/>
        <path d="M263.05,251.28c1.79.04,3.72-.04,5.46-.24-.2-.46-.41-.97-.58-1.49-1.46.15-2.89.24-3.93.25l-.17-1.41c1.2.03,2.46-.02,3.66-.14-.16-.48-.3-.97-.45-1.48l1.5-.33c.09.52.21,1.08.38,1.65,1.12-.17,2.16-.38,2.95-.63l.42,1.33c-.79.23-1.84.42-2.95.57.18.51.38,1,.6,1.49,1.3-.2,2.46-.45,3.27-.74l.5,1.38c-.85.27-1.92.5-3.09.66.65,1.14,1.41,2.13,2.25,2.8l-.9,1.14c-.57-.39-.96-.57-1.68-.79-.67-.21-1.32-.3-1.9-.3-1.73,0-2.69.65-2.69,1.32,0,.97,1.35,1.36,3.51,1.36.66,0,1.68-.07,2.39-.19l.19,1.47c-.78.09-2.04.15-2.82.15-2.38,0-4.82-.56-4.82-2.73,0-1.48,1.7-2.58,4.08-2.58.72,0,1.37.09,2.03.29-.39-.54-.77-1.12-1.1-1.74-2.05.22-4.23.34-5.97.36l-.13-1.44Z"/>
        <path d="M50.26,284.07c0-.66.49-1.23,1.21-1.23s1.21.57,1.21,1.23-.5,1.2-1.21,1.2-1.21-.54-1.21-1.2Z"/>
        <path d="M65.09,283.17c-1.33,1.62-2.9,2.98-4.61,4.03l-1.02-1.21c2.58-1.44,4.65-3.45,6.09-5.92h-5.8v-1.41h12.36v1.41h-4.86c-.15.33-.36.65-.57.97v9.67h-1.59v-7.54ZM67,282.78l1.05-.97c1.53,1.09,3.18,2.5,4.42,3.78l-1.17,1.23c-1.38-1.51-2.77-2.82-4.3-4.04Z"/>
        <path d="M74.09,288.45h2.04v-6.15h1.54v6.15h2.22v-8.34h-5.21v-1.36h11.4v1.36h-4.63v3.15h3.97v1.36h-3.97v3.83h5.24v1.39h-12.6v-1.39Z"/>
        <path d="M91.99,283.95c-1.11.45-2.14.87-2.89,1.19l-.69-1.47c.92-.34,1.95-.72,3.03-1.11-.48-1.17-.95-2.17-1.49-3.21l1.46-.6c.5.97.99,2.13,1.47,3.3.23-.09.44-.17.66-.24,1.83-.65,3.33-1.16,4.51-1.16,1.82,0,3.11,1.14,3.11,2.89s-1.5,2.94-3.67,2.94c-.44,0-.79-.04-1.11-.11l-.42-1.57c.39.13.9.19,1.37.19,1.39,0,2.28-.64,2.28-1.53,0-.93-.64-1.42-1.67-1.42-.75,0-2.04.38-3.84,1.08l-.69.27c.9,2.34,1.63,4.39,2.31,6.81l-1.53.48c-.58-2.31-1.38-4.59-2.19-6.74ZM93.49,279.24l.62-1.23c1.18.34,2.16.74,3.27,1.39l-.74,1.31c-1.15-.74-2.04-1.1-3.15-1.47Z"/>
        <path d="M102.56,289.12c2.58-1.81,3.58-4.72,3.27-9.69h1.53c.27,5.82-.88,8.61-3.3,10.5l-1.5-.81ZM109.64,288.87c.06-3.41.06-6.6,0-9.88h1.53c-.03,2.91-.03,5.8,0,8.68,1.42-.72,3.09-2.29,4.28-4.72l.73,1.5c-1.35,2.54-3.39,4.26-5.46,5.19l-1.08-.76Z"/>
        <path d="M117.77,283.33l11.97-.07.03,1.5-11.97.07-.03-1.5Z"/>
        <path d="M131.48,289.12c2.58-1.81,3.58-4.72,3.27-9.69h1.53c.27,5.82-.88,8.61-3.3,10.5l-1.5-.81ZM138.56,288.87c.06-3.41.06-6.6,0-9.88h1.53c-.03,2.91-.03,5.8,0,8.68,1.42-.72,3.09-2.29,4.28-4.72l.73,1.5c-1.35,2.54-3.39,4.26-5.46,5.19l-1.08-.76Z"/>
        <path d="M146.03,289.17c.74-.4,1.37-.84,1.92-1.32v-3.41h-1.79v-1.35h3.21v4.62c.79,1.17,1.71,1.41,5.01,1.41,1.44,0,3.2-.06,5.16-.17-.22.42-.38.87-.45,1.46-1.56.04-2.71.08-3.72.08-2.88,0-4.27-.15-5.21-.58-.55-.23-1.02-.62-1.38-1.14-.46.6-1.2,1.35-1.92,1.96l-.84-1.56ZM146.35,278.77l1.03-.92c.75.58,1.59,1.42,2.25,2.25l-1.12,1c-.67-.87-1.44-1.71-2.16-2.34ZM154.57,287.73h-4.74v-1.02h1.63v-.78h-1.08v-.98h4.19v-.72h-3.51v-2.42h6.64v2.42h-1.79v.72h2.55v.98h-2.55v.78h3.18v1.02h-3.18v1.17h-1.35v-1.17ZM149.87,280.23h2.54c.09-.21.17-.45.25-.72h-1.6v-.95h1.89c.12-.41.22-.79.29-1.14l1.33.18c-.08.29-.15.55-.27.96h2.97v1.67h1.77v.99h-9.17v-.99ZM156.41,283.41v-.75h-4.04v.75h4.04ZM154.57,286.71v-.78h-1.83v.78h1.83ZM155.97,280.23v-.72h-1.96c-.09.31-.15.48-.24.72h2.2Z"/>
        <path d="M163.3,289.47c1.41-.42,2.82-1.18,4.04-2.19-1.21-1.18-2.13-2.55-2.7-4h-.84c-.06,3.96-.51,5.66-2,7.44l-1.09-1.14c1.25-1.46,1.62-3,1.62-6.51v-4.63h10.71v1.35h-9.24v2.17h7.5l.83.69c-.6,1.72-1.5,3.24-2.7,4.56,1.05.77,2.43,1.44,4.04,1.96l-.96,1.35c-1.67-.66-3.02-1.43-4.11-2.33-1.16,1.04-2.58,1.91-4.15,2.54l-.93-1.26ZM170.29,283.27h-4.16c.44,1.05,1.28,2.21,2.21,3.04.9-.9,1.56-1.92,1.95-3.04Z"/>
        <path d="M175.61,289.2c1.25-2.34,2.1-4.38,2.71-6.57-.92.13-1.77.25-2.43.36l-.25-1.46c.69-.06,1.96-.19,2.98-.34.24-1.04.45-2.12.65-3.25l1.53.24c-.19.93-.42,1.86-.66,2.82.44-.03.83-.06,1.14-.06,1.44,0,2.4.88,2.4,2.68,0,1.29-.12,2.91-.45,4.28-.37,1.56-1.27,1.96-2.17,1.96-.7,0-1.39-.13-2.01-.36l-.12-1.65c.71.34,1.38.48,1.83.48.58,0,.88-.31,1.11-1.35.19-.88.3-2,.3-3.06s-.43-1.59-1.18-1.59c-.26,0-.62.03-1.14.09-.73,2.59-1.53,4.87-2.82,7.51l-1.41-.74ZM183.6,281.18l1.23-.92c1.17,1.39,1.95,3.06,2.64,5.19l-1.38.9c-.72-2.27-1.35-3.98-2.49-5.17ZM184.78,279.06l.79-.66c.63.6,1.05,1.11,1.56,2.01l-.86.68c-.51-.92-.94-1.49-1.5-2.03ZM186.23,278.22l.79-.66c.68.58,1.08,1.16,1.56,1.98l-.87.66c-.45-.84-.9-1.45-1.49-1.98Z"/>
        <path d="M189.67,289.48c2.57-.58,3.67-1.49,3.95-3.21h-3.48v-1.21h3.57v-1.7h-.75v-.57c-.87.6-1.77,1.11-2.8,1.56l-.86-1.18c1.02-.36,2.01-.86,2.83-1.43-.62-.61-1.09-.99-1.72-1.44l.97-.87c.65.5,1.12.88,1.77,1.54.64-.58,1.12-1.16,1.5-1.74h-3.12v-1.23h5.26c.29.54.64,1.06,1.12,1.6.58-.55,1.05-1.05,1.46-1.62l1.12.79c-.57.63-1.2,1.21-1.79,1.65.13.17.43.41.78.65.52-.45,1.06-1.02,1.59-1.68l1.12.78c-.77.79-1.21,1.17-1.74,1.56.67.42,1.59.86,2.34,1.12l-.87,1.21c-.88-.36-1.75-.84-2.56-1.44v.72h-1.07v1.7h3.71v1.21h-3.71v2.33c0,.49.17.57,1.12.57,1.51,0,1.54-.03,1.62-1.77l1.38.34c-.15,2.62-.29,2.75-3.01,2.75-1.35,0-1.84-.08-2.16-.29-.25-.2-.38-.5-.38-.97v-2.96h-1.81c-.23,2.26-1.73,3.72-4.58,4.47l-.83-1.26ZM198.71,282.18c-1.04-.83-1.96-1.79-2.64-2.75-.57,1.02-1.37,1.96-2.33,2.75h4.96ZM196.88,285.06v-1.7h-1.75v1.7h1.75Z"/>
        <path d="M203.86,289.53c2.91-.15,4.09-.71,4.45-2.12h-1.95v-5.76h8.34v5.76h-2v1.42c0,.44.15.5,1.3.5,1.05,0,1.44-.08,1.59-.29.12-.15.18-.67.2-1.45l1.35.42c-.04,1.09-.19,1.77-.45,2.08-.33.38-.94.49-2.77.49-2.31,0-2.66-.13-2.66-1.17v-2.01h-1.53c-.38,2.13-1.95,3.17-5.16,3.41l-.72-1.29ZM204.38,279.75h2.6c-.36-.66-.71-1.19-1.12-1.62l1.36-.57c.42.45.9,1.11,1.26,1.72l-1.17.47h2.7c-.27-.71-.52-1.17-1.02-1.83l1.38-.54c.45.58.85,1.26,1.11,1.88l-1.26.5h2.12c.6-.89.93-1.5,1.29-2.36l1.5.53c-.42.73-.77,1.29-1.2,1.83h2.76v3.03h-1.42v-1.92h-9.45v1.92h-1.42v-3.03ZM213.3,283.29v-.69h-5.55v.69h5.55ZM213.3,284.86v-.69h-5.55v.69h5.55ZM213.3,286.47v-.72h-5.55v.72h5.55Z"/>
        <path d="M221.75,286.14c0-.84.03-2.66.06-3.78.03-.97.02-2.97-.01-4.27l1.72.03c-.03,1.29-.07,3.18-.12,4.12-.04,1-.08,2.75-.08,3.67,0,1.79.5,2.66,1.89,2.66,1.72,0,3.57-1.23,4.56-3.04l.83,1.63c-1.16,1.65-3.21,2.92-5.4,2.92-2.62,0-3.45-1.63-3.45-3.94Z"/>
        <path d="M233.68,289.48c1.23-2.76,2.1-5.34,2.71-7.93-1.02.07-1.98.12-2.77.15l-.17-1.51c1.04-.03,2.14-.08,3.29-.15.15-.81.3-1.63.42-2.47l1.54.24c-.14.72-.29,1.42-.44,2.12,1.11-.12,2.21-.26,3.27-.47l.24,1.5c-1.18.2-2.53.36-3.85.48-.69,2.92-1.54,5.7-2.71,8.65l-1.53-.6ZM238.91,287.55c0-.55.21-1.23.67-1.89l1.37.44c-.39.45-.57.9-.57,1.21,0,.58.66.92,2.13.92.96,0,1.98-.11,2.79-.29l.3,1.56c-.93.18-2.13.21-2.85.21-2.75,0-3.84-.9-3.84-2.16ZM239.68,282.75c1.71-.28,3.71-.42,5.4-.34l-.19,1.49c-1.63-.09-3.45.03-4.8.27l-.41-1.41Z"/>
        <path d="M249.26,286.9c0-1.32,1-2.5,2.88-3.69-.61-1.41-1.3-3.21-1.71-4.98l1.58-.38c.27,1.41.88,3.25,1.44,4.62,1.14-.6,2.5-1.21,4.02-1.84l.69,1.47c-3.94,1.35-7.35,3.1-7.35,4.63,0,.95.79,1.51,2.99,1.51,1.32,0,2.92-.1,4.67-.43l.27,1.6c-1.79.3-3.62.36-4.79.36-3.46,0-4.68-1.16-4.68-2.88Z"/>
        <path d="M263.05,282.47c1.79.04,3.72-.04,5.46-.24-.2-.46-.41-.97-.58-1.49-1.46.15-2.89.24-3.93.25l-.17-1.41c1.2.03,2.46-.02,3.66-.14-.16-.48-.3-.97-.45-1.48l1.5-.33c.09.52.21,1.08.38,1.65,1.12-.17,2.16-.38,2.95-.63l.42,1.33c-.79.23-1.84.42-2.95.57.18.51.38,1,.6,1.49,1.3-.2,2.46-.45,3.27-.74l.5,1.38c-.85.27-1.92.5-3.09.66.65,1.14,1.41,2.13,2.25,2.8l-.9,1.14c-.57-.39-.96-.57-1.68-.79-.67-.21-1.32-.3-1.9-.3-1.73,0-2.69.65-2.69,1.32,0,.97,1.35,1.36,3.51,1.36.66,0,1.68-.07,2.39-.19l.19,1.47c-.78.09-2.04.15-2.82.15-2.38,0-4.82-.56-4.82-2.73,0-1.48,1.7-2.58,4.08-2.58.72,0,1.37.09,2.03.29-.39-.54-.77-1.12-1.1-1.74-2.05.23-4.23.35-5.97.36l-.13-1.44Z"/>
        <path d="M50.26,315.25c0-.66.49-1.23,1.21-1.23s1.21.57,1.21,1.23-.5,1.2-1.21,1.2-1.21-.54-1.21-1.2Z"/>
        <path d="M63.31,321.76l-.24-1.26c.69.1,1.29.17,1.61.17.37,0,.48-.08.48-.41v-.84h-4.69v-.99h4.69v-.73h-5.83v-1.02h5.83v-.67h-4.68v-.96h4.68v-.74h-3.81v-2.59h3.81v-.72h-5.47v-1.05h5.47v-1.29h1.44v1.29h5.59v1.05h-5.59v.72h3.93v2.59h-3.93v.74h4.38v1.63h1.58v1.02h-1.58v2.35h-1.42v-.63h-2.95v1.25c0,.94-.32,1.2-1.43,1.2-.49,0-1.26-.05-1.86-.11ZM65.15,313.42v-.83h-2.46v.83h2.46ZM69.17,313.42v-.83h-2.58v.83h2.58ZM69.55,316.68v-.67h-2.95v.67h2.95ZM69.55,318.43v-.73h-2.95v.73h2.95Z"/>
        <path d="M74.5,315.01h1.86v-2.35h-2.58v-1.29h2.58v-2.49h1.38v2.49h2.54v1.29h-2.54v2.35h1.86v5.34h-3.79v.95h-1.31v-6.29ZM78.29,319.11v-2.86h-2.49v2.86h2.49ZM79.73,320.76c1.37-.67,2.44-1.62,3.21-2.83-.54-.87-1.07-2.04-1.41-3.17-.24.56-.53,1.08-.84,1.59l-.87-1.26c.93-1.68,1.42-3.42,1.84-6.43l1.38.25c-.12.79-.24,1.41-.42,2.25h4.26v1.35h-1.05c-.2,2.07-.64,3.9-1.33,5.33.67.9,1.67,1.83,2.82,2.59l-.93,1.32c-.91-.71-1.89-1.7-2.62-2.66-.81,1.16-1.91,2.14-3.11,2.83l-.93-1.17ZM84.49,312.51h-2.17l-.06.2c.25,1.35.79,2.77,1.4,3.81.4-1.06.69-2.35.84-4Z"/>
        <path d="M91.99,315.13c-1.11.45-2.14.87-2.89,1.19l-.69-1.47c.92-.34,1.95-.72,3.03-1.11-.48-1.17-.95-2.17-1.49-3.21l1.46-.6c.5.97.99,2.13,1.47,3.3.23-.09.44-.17.66-.24,1.83-.65,3.33-1.16,4.51-1.16,1.82,0,3.11,1.14,3.11,2.89s-1.5,2.94-3.67,2.94c-.44,0-.79-.04-1.11-.11l-.42-1.57c.39.13.9.19,1.37.19,1.39,0,2.28-.64,2.28-1.53,0-.93-.64-1.42-1.67-1.42-.75,0-2.04.38-3.84,1.08l-.69.27c.9,2.34,1.63,4.39,2.31,6.81l-1.53.48c-.58-2.31-1.38-4.59-2.19-6.74ZM93.49,310.42l.62-1.23c1.18.34,2.16.74,3.27,1.39l-.74,1.31c-1.15-.74-2.04-1.1-3.15-1.47Z"/>
        <path d="M102.74,320.56c4.12-.52,5.71-2,5.75-5.35v-.83h1.16c-.6-.87-1.38-1.75-2.36-2.71.83-.87,1.53-1.88,2-2.85l1.46.64c-.48.74-1.12,1.54-1.71,2.13.81.68,1.42,1.26,1.96,1.91l-1.26.88h.31v.79c-.04,2.5,1.84,4.14,5.85,5.05l-.94,1.46c-2.88-.83-4.68-2.1-5.57-3.87-.73,2.26-2.56,3.55-5.76,4.09l-.88-1.35ZM103.43,311.71c.81-.87,1.54-1.86,2.11-2.85l1.49.55c-.54.79-1.23,1.65-1.84,2.27.69.63,1.32,1.32,1.84,2.02l-1.33.96c-.66-1.09-1.35-1.96-2.26-2.96ZM103.85,317.82c.69-.77,1.27-1.76,1.63-2.83l1.49.43c-.44,1.18-1.11,2.45-1.77,3.21l-1.35-.81ZM111.22,311.67c.74-.83,1.38-1.75,1.91-2.82l1.49.64c-.42.67-.98,1.39-1.61,2.1.81.66,1.41,1.23,2.05,1.95l-1.27,1c-.78-1.09-1.54-1.95-2.57-2.88ZM111.38,317.37c.6-.75,1.23-1.73,1.63-2.66l1.59.55c-.57,1.05-1.29,2.1-1.92,2.82l-1.31-.72Z"/>
        <path d="M117.38,315.72h5.62v-.78h-4.15v-1.02h4.15v-.75h-3.39v-1.02h3.39v-.87h-3.85v2h-1.44v-3.09h5.25v-1.53h1.53v1.53h5.34v3.09h-1.44v-2h-3.94v.87h3.48v1.02h-3.48v.75h4.25v1.02h-4.25v.78h5.71v1.09h-12.78v-1.09ZM119.14,317.59h9.27v4.29h-1.49v-.58h-6.3v.58h-1.48v-4.29ZM126.92,320.14v-1.47h-6.3v1.47h6.3Z"/>
        <path d="M136.34,316.77c0-1.67,1.05-3.22,3.02-4.56-2.88.27-4.68.42-6.81.58l-.19-1.58c3.12-.12,7.92-.4,11.43-.97l.3,1.53c-2.08.29-2.79.51-4,1.47-1.38,1.08-2.21,2.19-2.21,3.55,0,1.71,1.46,2.59,4.04,2.96l-.67,1.44c-2.99-.42-4.89-1.86-4.89-4.42ZM140.71,314.52l.87-.58c.62.63,1.02,1.28,1.51,2.15l-.9.63c-.48-.92-.93-1.58-1.49-2.19ZM142.13,313.59l.88-.58c.6.58,1.07,1.28,1.52,2.08l-.9.6c-.51-.93-.9-1.52-1.5-2.1Z"/>
        <path d="M146.3,319.06h5.53v-7.2h-4.67v-1.42h11.04v1.42h-4.75v7.2h5.62v1.46h-12.78v-1.46Z"/>
        <path d="M160.45,318.03c.38-.14,1.12-.45,1.75-.74v-4.14h-1.6v-1.37h1.6v-2.98h1.37v2.98h1.47v1.37h-1.47v3.48c.48-.24,1.04-.55,1.42-.81l.2,1.23c-1.08.79-2.7,1.71-4.19,2.36l-.55-1.38ZM166.94,321.15c1.35-.87,2.34-2.08,3.03-3.72h-.76c-.72,1.46-1.95,2.8-3.39,3.67l-.98-.92c1.32-.73,2.46-1.77,3.04-2.76h-.78c-.63.74-1.49,1.49-2.29,2l-.86-.96c1.33-.76,2.36-1.74,3.01-2.89h-2.16v-1.12h8.95v1.12h-5.4l-.5.79h5.46c-.06,1.93-.23,3.73-.44,4.45-.19.77-.61,1.05-1.47,1.05-.45,0-.99-.05-1.5-.09l-.24-1.32c-.6.67-1.14,1.18-1.68,1.56l-1.06-.87ZM165.88,309.09h6.42v4.7h-6.42v-4.7ZM170.99,310.95v-.84h-3.81v.84h3.81ZM170.99,312.79v-.87h-3.81v.87h3.81ZM171.98,317.43h-.7c-.33,1.05-.89,2.12-1.55,2.97.41.09.86.15,1.23.15.75,0,.83-.24,1.02-3.12Z"/>
        <path d="M175.61,320.38c1.25-2.34,2.1-4.38,2.71-6.57-.92.13-1.77.25-2.43.36l-.25-1.46c.69-.06,1.96-.19,2.98-.34.24-1.04.45-2.12.65-3.25l1.53.24c-.19.93-.42,1.86-.66,2.82.44-.03.83-.06,1.14-.06,1.44,0,2.4.88,2.4,2.68,0,1.29-.12,2.91-.45,4.28-.37,1.56-1.27,1.96-2.17,1.96-.7,0-1.39-.13-2.01-.36l-.12-1.65c.71.34,1.38.48,1.83.48.58,0,.88-.31,1.11-1.35.19-.88.3-2,.3-3.06s-.43-1.59-1.18-1.59c-.26,0-.62.03-1.14.09-.73,2.59-1.53,4.87-2.82,7.51l-1.41-.74ZM183.6,312.36l1.23-.92c1.17,1.39,1.95,3.06,2.64,5.19l-1.38.9c-.72-2.27-1.35-3.98-2.49-5.17ZM184.78,310.24l.79-.66c.63.6,1.05,1.11,1.56,2.01l-.86.68c-.51-.92-.94-1.49-1.5-2.03ZM186.23,309.4l.79-.66c.68.58,1.08,1.16,1.56,1.98l-.87.66c-.45-.84-.9-1.45-1.49-1.98Z"/>
        <path d="M189.79,319.59h2.05v-7.32h1.58v7.32h2.16v-10.51h1.58v4h4.38v1.38h-4.38v5.13h5.2v1.39h-12.57v-1.39Z"/>
        <path d="M206.11,319.03c0-1.1,1.11-2.12,2.86-2.12.44,0,.9.03,1.32.09l-.04-1.16c0-.07-.02-.15-.02-.24-.36.01-.67.03-.96.03-1.71,0-2.54-.38-2.54-1.2,0-.46.29-1.08.94-1.85l.99.57c-.36.36-.5.6-.5.76,0,.36.5.42,1.23.42.19,0,.45-.02.75-.03l-.09-2c-.56.01-1.1.03-1.65.03-1.04,0-1.95-.02-2.85-.08l-.06-1.49c1.16.08,2.27.11,3.32.11.42,0,.82,0,1.23-.02,0-.67-.01-1.39,0-1.99l1.61.07c-.04.56-.08,1.19-.08,1.83,1.29-.09,2.55-.27,3.79-.52l.18,1.47c-1.21.22-2.58.39-3.99.5l.05,1.92c.97-.13,2.1-.38,3.18-.75l.39,1.44c-1.14.32-2.4.53-3.51.65,0,.13.01.25.01.38.03.48.06.99.08,1.46,1.32.4,2.75,1.06,4.05,1.92l-.85,1.32c-1.17-.79-2.22-1.36-3.12-1.72v.08c0,1.68-1.09,2.35-2.7,2.35-1.81,0-3.03-.76-3.03-2.23ZM208.96,319.86c.85,0,1.37-.28,1.37-1.09v-.36c-.48-.11-.95-.15-1.21-.15-.84,0-1.47.31-1.47.81s.48.79,1.32.79Z"/>
        <path d="M223.51,319.6c2.99-.31,4.59-1.38,4.59-2.88,0-.94-.64-1.84-1.92-1.84-.67,0-1.5.18-2.46.38-.94.2-2.23.5-3.21.74l-.4-1.41c.96-.21,2.08-.44,3.28-.67,1.05-.21,2.05-.39,2.85-.39,2.17,0,3.42,1.37,3.42,3.13,0,2.31-1.8,3.77-5.28,4.29l-.87-1.33Z"/>
        <path d="M233.68,320.67c1.23-2.76,2.1-5.34,2.71-7.93-1.02.07-1.98.12-2.77.15l-.17-1.51c1.04-.03,2.14-.08,3.29-.15.15-.81.3-1.63.42-2.47l1.54.24c-.14.72-.29,1.42-.44,2.12,1.11-.12,2.21-.26,3.27-.47l.24,1.5c-1.18.2-2.53.36-3.85.48-.69,2.92-1.54,5.7-2.71,8.65l-1.53-.6ZM238.91,318.73c0-.55.21-1.23.67-1.89l1.37.44c-.39.45-.57.9-.57,1.21,0,.58.66.92,2.13.92.96,0,1.98-.11,2.79-.29l.3,1.56c-.93.18-2.13.21-2.85.21-2.75,0-3.84-.9-3.84-2.16ZM239.68,313.93c1.71-.28,3.71-.42,5.4-.34l-.19,1.49c-1.63-.09-3.45.03-4.8.27l-.41-1.41Z"/>
        <path d="M249.26,318.09c0-1.32,1-2.5,2.88-3.69-.61-1.41-1.3-3.21-1.71-4.98l1.58-.38c.27,1.41.88,3.25,1.44,4.62,1.14-.6,2.5-1.21,4.02-1.84l.69,1.47c-3.94,1.35-7.35,3.1-7.35,4.63,0,.95.79,1.51,2.99,1.51,1.32,0,2.92-.1,4.67-.43l.27,1.6c-1.79.3-3.62.36-4.79.36-3.46,0-4.68-1.16-4.68-2.88Z"/>
        <path d="M263.05,313.65c1.79.04,3.72-.04,5.46-.24-.2-.46-.41-.97-.58-1.49-1.46.15-2.89.24-3.93.25l-.17-1.41c1.2.03,2.46-.02,3.66-.14-.16-.48-.3-.97-.45-1.48l1.5-.33c.09.52.21,1.08.38,1.65,1.12-.17,2.16-.38,2.95-.63l.42,1.33c-.79.23-1.84.42-2.95.57.18.51.38,1,.6,1.49,1.3-.2,2.46-.45,3.27-.74l.5,1.38c-.85.27-1.92.5-3.09.66.65,1.14,1.41,2.13,2.25,2.8l-.9,1.14c-.57-.39-.96-.57-1.68-.79-.67-.21-1.32-.3-1.9-.3-1.73,0-2.69.65-2.69,1.32,0,.97,1.35,1.36,3.51,1.36.66,0,1.68-.07,2.39-.19l.19,1.47c-.78.09-2.04.15-2.82.15-2.38,0-4.82-.56-4.82-2.73,0-1.48,1.7-2.58,4.08-2.58.72,0,1.37.09,2.03.29-.39-.54-.77-1.12-1.1-1.74-2.05.23-4.23.35-5.97.36l-.13-1.44Z"/>
        <path d="M50.26,346.43c0-.66.49-1.23,1.21-1.23s1.21.57,1.21,1.23-.5,1.2-1.21,1.2-1.21-.54-1.21-1.2Z"/>
        <path d="M62.92,351.55c3.36-1.17,5.36-3.04,6.34-5.49-3.15.04-5.95.09-8.64.11v-1.47c2.82,0,5.71-.03,9.83-.12l.81.67c-1.04,3.78-3.39,6.21-7.14,7.57l-1.2-1.27ZM61.88,341.57c2.61.01,4.86-.02,8.08-.08l.02,1.46c-3.34.07-5.62.09-8.08.09v-1.47Z"/>
        <path d="M74.66,347.18c4.1-1.68,7.41-4.23,9.34-7l1.35.78c-.92,1.32-2.1,2.55-3.46,3.69,0,2.61.01,5.22.04,7.83h-1.56c.03-2.24.03-4.47.02-6.69-1.4.99-2.94,1.88-4.56,2.62l-1.17-1.23Z"/>
        <path d="M88.4,350.96c2.25-2.6,2.9-5.76,3.25-8.85l1.53.27c-.46,3.31-1.11,6.6-3.29,9.31l-1.5-.73ZM95.47,342.46l1.37-.75c1.47,2.23,2.96,5.96,3.95,9.07l-1.5.83c-.87-3.15-2.27-6.78-3.81-9.15ZM97.85,341.36l.88-.57c.51.66.84,1.26,1.27,2.21l-.93.6c-.41-.93-.69-1.42-1.23-2.23ZM99.4,340.58l.88-.57c.55.69.93,1.33,1.32,2.19l-.93.57c-.34-.73-.73-1.51-1.27-2.19Z"/>
        <path d="M102.56,351.49c2.58-1.81,3.58-4.72,3.27-9.69h1.53c.27,5.82-.88,8.61-3.3,10.5l-1.5-.81ZM109.64,351.23c.06-3.4.06-6.6,0-9.88h1.53c-.03,2.91-.03,5.8,0,8.68,1.42-.72,3.09-2.29,4.28-4.72l.73,1.5c-1.35,2.54-3.39,4.26-5.46,5.19l-1.08-.76Z"/>
        <path d="M117.04,345.07c2.55-1,4.44-2.64,5.75-4.93h1.7c1.38,1.94,3.4,3.46,6.01,4.53l-.92,1.25c-.9-.41-1.77-.89-2.57-1.43v1.05h-6.42v-.84c-.84.6-1.74,1.12-2.67,1.54l-.89-1.17ZM127.4,351.68c-2.82.42-6.09.78-9.03,1l-.45-1.44c.69-.03,1.57-.07,2.07-.12.51-.9.97-1.85,1.38-2.9h-3.55v-1.29h11.91v1.29h-6.69c-.45,1-.93,1.94-1.42,2.8,1.92-.13,3.43-.25,4.88-.42-.38-.42-.83-.9-1.49-1.48l1.25-.69c1.26,1.09,2.47,2.37,3.48,3.66l-1.32.92c-.45-.63-.53-.72-1-1.33ZM126.7,344.27c-1.2-.84-2.28-1.83-3.06-2.86-.69,1.12-1.5,2.04-2.5,2.86h5.57Z"/>
        <path d="M133.96,347.8c-.58.63-1.05,1.09-1.81,1.72l-.71-1.32c1.44-.99,3.13-2.83,3.97-4.36h-3.52v-1.33h2.01v-2.58h1.41v2.58h1.38l.6.62c-.53,1.03-1.12,2.02-1.84,2.94.9.54,1.59,1.02,2.58,1.83l-.92,1.23c-.66-.69-1.11-1.11-1.74-1.62v5.56h-1.41v-5.26ZM136.67,351.16h3.27v-5.83h-2.64v-1.38h2.64v-3.84h1.48v3.84h2.92v1.38h-2.92v5.83h3.44v1.4h-8.19v-1.4Z"/>
        <path d="M152.59,351.1c2.75-.69,4.38-2.37,4.38-4.5s-1.47-3.52-3.6-3.66c-.11,1.7-.38,3.17-.84,4.61-.72,2.25-2,3.48-3.36,3.48s-2.52-1.39-2.52-3.31c0-3.48,2.88-6.21,6.42-6.21,3.25,0,5.49,1.98,5.49,5.08,0,2.68-1.65,4.68-4.74,5.74l-1.23-1.23ZM149.21,349.42c.77,0,1.41-.9,1.88-2.39.41-1.32.65-2.49.74-3.96-2.07.52-3.64,2.41-3.64,4.65,0,.92.49,1.7,1.03,1.7Z"/>
        <path d="M160.66,351.5c3.87-1.79,5.62-4.94,5.62-10.02v-1.2h1.65v1.14c0,4.29,1.88,7.48,5.76,9.76l-1.05,1.41c-2.54-1.53-4.71-4.29-5.42-6.88-.58,3.03-2.65,5.7-5.49,7.12l-1.08-1.33Z"/>
        <path d="M175.27,343.88c1.09-1.07,1.93-2.5,2.42-4.11l1.48.22c-.12.42-.21.69-.39,1.08h8.37v1.2h-8.92c-.55,1.03-1.23,1.93-1.99,2.67l-.96-1.06ZM175.54,351.77c1.59-.5,2.85-1.21,3.87-2.19-1.16-.77-1.94-1.22-2.88-1.65l.92-.97c.97.46,1.92.99,2.89,1.59.48-.6.92-1.33,1.23-2.13l1.38.55c-.36.81-.81,1.56-1.42,2.37.97.64,1.69,1.2,2.61,1.98l-1.04,1.17c-.72-.67-1.5-1.32-2.5-2.08-1.26,1.19-2.58,1.98-4.2,2.54l-.86-1.17ZM185.17,351.64c-.51-1.07-.75-2.71-.75-5.37h-8.64v-1.18h10.08c.02,2.91.11,4.27.38,5.2.15.47.27.71.36.71.15,0,.32-.69.5-2.08l1.21.92c-.41,2.33-.87,3.23-1.67,3.23-.54,0-1.04-.47-1.47-1.41ZM177.79,343.09h8.08v1.16h-8.08v-1.16Z"/>
        <path d="M190.07,351.56c1.25-2.34,2.1-4.38,2.71-6.57-.92.13-1.77.25-2.43.36l-.25-1.46c.69-.06,1.96-.19,2.98-.34.24-1.04.45-2.12.65-3.25l1.53.24c-.19.93-.42,1.86-.66,2.82.44-.03.83-.06,1.14-.06,1.44,0,2.4.88,2.4,2.68,0,1.29-.12,2.91-.45,4.28-.38,1.56-1.28,1.96-2.18,1.96-.71,0-1.39-.13-2.01-.36l-.12-1.65c.71.34,1.38.48,1.83.48.58,0,.88-.31,1.11-1.35.19-.88.3-2,.3-3.06s-.43-1.59-1.18-1.59c-.26,0-.62.03-1.14.09-.73,2.59-1.53,4.87-2.82,7.51l-1.41-.74ZM198.06,343.54l1.23-.92c1.17,1.39,1.95,3.06,2.64,5.19l-1.38.9c-.72-2.27-1.35-3.98-2.49-5.17ZM199.24,341.42l.79-.66c.63.6,1.05,1.11,1.56,2.01l-.86.68c-.51-.92-.94-1.49-1.5-2.03ZM200.69,340.58l.79-.66c.68.58,1.08,1.16,1.56,1.98l-.87.66c-.45-.84-.9-1.46-1.49-1.98Z"/>
        <path d="M204.2,350.51h5.12v-10.14h1.6v3.75h4.83v1.42h-4.83v4.96h5.91v1.46h-12.63v-1.46Z"/>
        <path d="M218.99,351.56c1.25-2.34,2.1-4.38,2.71-6.57-.92.13-1.77.25-2.43.36l-.25-1.46c.69-.06,1.96-.19,2.98-.34.24-1.04.45-2.12.65-3.25l1.53.24c-.19.93-.42,1.86-.66,2.82.44-.03.83-.06,1.14-.06,1.44,0,2.4.88,2.4,2.68,0,1.29-.12,2.91-.45,4.28-.38,1.56-1.28,1.96-2.18,1.96-.71,0-1.39-.13-2.01-.36l-.12-1.65c.71.34,1.38.48,1.83.48.58,0,.88-.31,1.11-1.35.19-.88.3-2,.3-3.06s-.43-1.59-1.18-1.59c-.26,0-.62.03-1.14.09-.73,2.59-1.53,4.87-2.82,7.51l-1.41-.74ZM226.98,343.54l1.23-.92c1.17,1.39,1.95,3.06,2.64,5.19l-1.38.9c-.72-2.27-1.35-3.98-2.49-5.17ZM228.16,341.42l.79-.66c.63.6,1.05,1.11,1.56,2.01l-.86.68c-.51-.92-.94-1.49-1.5-2.03ZM229.61,340.58l.79-.66c.68.58,1.08,1.16,1.56,1.98l-.87.66c-.45-.84-.9-1.46-1.49-1.98Z"/>
        <path d="M237.97,350.78c2.99-.31,4.59-1.38,4.59-2.88,0-.94-.64-1.84-1.92-1.84-.67,0-1.5.18-2.46.38-.94.2-2.23.5-3.21.74l-.4-1.41c.96-.21,2.08-.44,3.28-.67,1.05-.21,2.05-.39,2.85-.39,2.17,0,3.42,1.37,3.42,3.14,0,2.31-1.8,3.76-5.28,4.29l-.87-1.33Z"/>
        <path d="M248.14,351.85c1.23-2.76,2.1-5.34,2.71-7.93-1.02.08-1.98.12-2.77.15l-.17-1.51c1.04-.03,2.14-.08,3.29-.15.15-.81.3-1.63.42-2.47l1.54.24c-.14.72-.29,1.42-.44,2.12,1.11-.12,2.21-.26,3.27-.47l.24,1.5c-1.18.2-2.53.36-3.85.48-.69,2.92-1.54,5.7-2.71,8.65l-1.53-.6ZM253.37,349.91c0-.55.21-1.23.67-1.89l1.37.44c-.39.45-.57.9-.57,1.21,0,.58.66.92,2.13.92.96,0,1.98-.11,2.79-.29l.3,1.56c-.93.18-2.13.21-2.85.21-2.75,0-3.84-.9-3.84-2.16ZM254.14,345.11c1.71-.28,3.71-.42,5.4-.34l-.19,1.49c-1.63-.09-3.45.03-4.8.27l-.41-1.41Z"/>
        <path d="M50.26,377.61c0-.66.49-1.23,1.21-1.23s1.21.57,1.21,1.23-.5,1.2-1.21,1.2-1.21-.54-1.21-1.2Z"/>
        <path d="M59.53,383.03c2.57-.58,3.67-1.49,3.95-3.21h-3.48v-1.21h3.57v-1.7h-.75v-.57c-.87.6-1.77,1.11-2.8,1.56l-.86-1.18c1.02-.36,2.01-.86,2.83-1.43-.62-.61-1.09-.99-1.72-1.44l.97-.87c.65.5,1.12.88,1.77,1.54.64-.58,1.12-1.16,1.5-1.74h-3.12v-1.23h5.26c.29.54.64,1.06,1.12,1.6.58-.55,1.05-1.05,1.46-1.62l1.12.79c-.57.63-1.2,1.21-1.79,1.65.13.17.43.41.78.65.52-.45,1.06-1.02,1.59-1.68l1.12.78c-.77.79-1.21,1.17-1.74,1.56.67.42,1.59.86,2.34,1.12l-.87,1.21c-.88-.36-1.75-.84-2.56-1.44v.72h-1.07v1.7h3.71v1.21h-3.71v2.33c0,.49.17.57,1.12.57,1.51,0,1.54-.03,1.62-1.77l1.38.34c-.15,2.62-.29,2.75-3.01,2.75-1.35,0-1.84-.08-2.16-.29-.25-.2-.38-.5-.38-.97v-2.96h-1.81c-.23,2.26-1.73,3.72-4.58,4.47l-.83-1.26ZM68.57,375.72c-1.04-.83-1.96-1.79-2.64-2.75-.57,1.02-1.37,1.96-2.33,2.75h4.96ZM66.74,378.6v-1.7h-1.75v1.7h1.75Z"/>
        <path d="M75.13,382.79c.72-.1,1.21-.18,2.07-.33v-2.02c-.83.46-1.86.9-2.79,1.18l-.88-1.2c2.05-.48,3.9-1.36,5.21-2.46h-4.82v-1.17h5.69v-1.06h-4.41v-1.08h4.41v-1h-5.08v-1.16h5.08v-1.47h1.5v1.47h5.17v1.16h-5.17v1h4.5v1.08h-4.5v1.06h5.76v1.17h-5.08c.3.68.73,1.41,1.18,1.95.62-.48,1.23-1.08,1.86-1.79l1.3.84c-.75.71-1.56,1.35-2.28,1.86.79.72,1.91,1.37,3.21,1.88l-1.11,1.37c-2.7-1.25-4.7-3.44-5.54-6.11-.45.54-1.05,1.08-1.75,1.59v2.62c1.23-.27,2.21-.5,3.06-.73l.03,1.26c-1.86.6-4.17,1.17-6.12,1.48l-.49-1.39Z"/>
        <path d="M89.6,374.67c1.74-.06,3.36-.17,4.9-.33-.36-.83-.66-1.71-.91-2.67l1.54-.34c.16.91.48,1.89.88,2.82,1.33-.18,2.62-.43,3.85-.75l.33,1.47c-1.05.25-2.24.48-3.51.67.81,1.5,1.83,2.81,2.77,3.53l-.93,1.21c-.5-.41-.96-.66-1.68-.88-.79-.25-1.47-.34-2.25-.34-1.7,0-2.55.76-2.55,1.56,0,1.11,1.5,1.56,3.71,1.56.84,0,1.74-.06,2.41-.15l.15,1.46c-.67.09-1.83.15-2.64.15-3.21,0-5.16-.96-5.16-2.96,0-1.62,1.65-2.91,4.08-2.91.71,0,1.46.13,2.13.34-.58-.74-1.11-1.51-1.56-2.37-1.73.21-3.57.36-5.42.44l-.17-1.5Z"/>
        <path d="M105.97,379.65c-.54.62-1.17,1.37-1.94,2.38l-1.23-.93c1.25-1.26,2.28-2.73,2.7-3.57.15-.3.33-.73.48-1.2v-.96c-.86.19-1.89.34-2.68.42l-.24-1.4c.83-.06,1.95-.2,2.91-.42,0-1.06-.02-1.86-.03-2.65l1.59.06c-.03.88-.06,1.68-.08,2.61l.63.42c-.15.51-.36,1.06-.64,1.77v.18c1.69-1.79,3.18-3.1,4.51-3.1.96,0,1.6.58,1.6,1.68,0,.65-.1,1.3-.22,2.04-.25,1.59-.36,2.77-.36,3.38,0,.81.27,1.04.72,1.04.63,0,1.33-.42,2.07-1.64l.66,1.54c-.75,1.08-1.75,1.62-2.97,1.62s-2.01-.88-2.01-2.28c0-.95.1-2.19.38-3.93.07-.5.15-1.05.15-1.44,0-.36-.12-.51-.39-.51-.72,0-2.56,1.74-4.14,3.33,0,1.96,0,3.43.03,5.7l-1.57.06c.03-1.62.06-2.92.08-4.2Z"/>
        <path d="M118,383.03c1.23-2.76,2.1-5.34,2.71-7.93-1.02.08-1.98.12-2.77.15l-.17-1.51c1.04-.03,2.14-.08,3.29-.15.15-.81.3-1.63.42-2.47l1.54.24c-.14.72-.29,1.42-.44,2.12,1.11-.12,2.21-.26,3.27-.47l.24,1.5c-1.18.2-2.53.36-3.85.48-.69,2.92-1.54,5.7-2.71,8.65l-1.53-.6ZM123.23,381.09c0-.55.21-1.23.67-1.89l1.37.44c-.39.45-.57.9-.57,1.21,0,.58.66.92,2.13.92.96,0,1.98-.11,2.79-.29l.3,1.56c-.93.18-2.13.21-2.85.21-2.75,0-3.84-.9-3.84-2.16ZM124,376.29c1.71-.28,3.71-.42,5.4-.34l-.19,1.49c-1.63-.09-3.45.03-4.8.27l-.41-1.41Z"/>
        <path d="M134.47,380.46c-.58,1.16-1.33,2.15-2.17,2.9l-.85-1.25c1.08-.75,2.04-1.79,2.71-2.94h-2.31v-1.17h2.62v-1.15h-2.91v-1.17h1.75c-.17-.71-.27-1.11-.45-1.68h-1.02v-1.17h2.59v-1.81h1.38v1.81h2.33v1.17h-.81c-.17.6-.29,1.02-.54,1.68h1.53v1.17h-2.54v1.15h2.4v1.17h-2.4v.45c.88.53,1.47.92,2.13,1.49l-.72,1.21c-.5-.57-.88-.97-1.41-1.42v3.34h-1.32v-3.78ZM135.58,375.68c.22-.63.36-1.11.48-1.68h-1.92c.18.57.28,1.01.4,1.68h1.04ZM137.17,383.46c1.21-1.42,1.58-2.89,1.56-6.36v-4.54c1.81-.22,3.39-.57,4.66-1.05l1.04,1.21c-1.21.38-2.73.72-4.33.95v2.02h4.88v1.32h-1.71v7.23h-1.41v-7.23h-1.75c0,3.94-.46,5.8-1.83,7.42l-1.09-.98Z"/>
        <path d="M146.78,375.3h3.15c-.21-.57-.41-1.02-.71-1.61h-3.15v-1.21h5.8v-1.47h1.53v1.47h5.89v1.21h-3.17c-.25.58-.55,1.16-.82,1.61h3.28v7.59c0,.91-.38,1.24-1.41,1.24-.53,0-1.28-.04-2.01-.1l-.24-1.33c.6.09,1.33.15,1.75.15.39,0,.5-.11.5-.5v-5.97h-2.66v.93c0,.31.09.38.64.38.46,0,.66-.06.74-.23.06-.12.1-.39.1-.66l1.01.3c-.09,1.42-.3,1.6-2,1.6-1.49,0-1.8-.15-1.8-.87v-1.45h-1.43c-.03,1.23-.58,2.13-1.68,2.71h5.28v3.3h-4.14v.71h-1.32v-3.9c-.25.12-.45.2-.84.32l-.84-.99c1.48-.34,2.19-1,2.26-2.14h-2.34v7.86h-1.41v-8.94ZM153.82,375.3c.24-.39.49-.93.75-1.61h-3.83c.27.56.48,1.02.69,1.61h2.38ZM154.09,381.35v-1.25h-2.82v1.25h2.82Z"/>
        <path d="M161.12,377.82h5.36v6.13h-1.4v-.69h-2.56v.84h-1.4v-6.29ZM165.08,381.98v-2.9h-2.56v2.9h2.56ZM163.16,371.72h7.9v4.95h-7.9v-4.95ZM169.58,375.39v-2.37h-4.93v2.37h4.93ZM167.74,377.82h5.44v6.29h-1.39v-.84h-2.66v.84h-1.39v-6.29ZM171.79,381.98v-2.9h-2.66v2.9h2.66Z"/>
        <path d="M175.61,382.74c1.25-2.34,2.1-4.38,2.71-6.57-.92.13-1.77.25-2.43.36l-.25-1.46c.69-.06,1.96-.19,2.98-.34.24-1.04.45-2.12.65-3.25l1.53.24c-.19.93-.42,1.86-.66,2.82.44-.03.83-.06,1.14-.06,1.44,0,2.4.88,2.4,2.68,0,1.29-.12,2.91-.45,4.28-.37,1.56-1.27,1.96-2.17,1.96-.7,0-1.39-.13-2.01-.36l-.12-1.65c.71.34,1.38.48,1.83.48.58,0,.88-.31,1.11-1.35.19-.88.3-2,.3-3.06s-.43-1.59-1.18-1.59c-.26,0-.62.03-1.14.09-.73,2.59-1.53,4.87-2.82,7.51l-1.41-.74ZM183.6,374.72l1.23-.92c1.17,1.39,1.95,3.06,2.64,5.19l-1.38.9c-.72-2.27-1.35-3.98-2.49-5.17ZM184.78,372.6l.79-.66c.63.6,1.05,1.11,1.56,2.01l-.86.68c-.51-.92-.94-1.49-1.5-2.03ZM186.23,371.76l.79-.66c.68.58,1.08,1.16,1.56,1.98l-.87.66c-.45-.84-.9-1.46-1.49-1.98Z"/>
        <path d="M189.38,379.52h1.44v-5.49h-1.2v-1.17h1.2v-1.75h1.26v1.75h2.05v-1.75h1.26v1.75h1.12v1.17h-1.12v5.49h1.35v1.2h-7.37v-1.2ZM189.55,383.27c.83-.62,1.53-1.46,2.01-2.42l1.17.64c-.63,1.21-1.35,2.19-2.13,2.83l-1.05-1.06ZM194.13,375.14v-1.11h-2.05v1.11h2.05ZM194.13,377.28v-1.11h-2.05v1.11h2.05ZM194.13,379.52v-1.2h-2.05v1.2h2.05ZM193.4,381.5l1.04-.71c.6.48,1.17,1.09,1.6,1.73l-1.08,1.02c-.48-.85-1.02-1.56-1.56-2.04ZM195.8,383.31c.88-1.05,1.25-2.43,1.25-4.73v-6.91h5v11.11c0,.93-.41,1.3-1.41,1.3-.48,0-1.21-.04-1.74-.09l-.24-1.44c.51.07,1.12.1,1.55.1s.54-.1.54-.48v-2.69h-2.41c-.08,2.21-.5,3.65-1.41,4.92l-1.11-1.11ZM200.73,374.94v-2h-2.4v2h2.4ZM200.73,378.24v-2.05h-2.4v2.05h2.4Z"/>
        <path d="M205.8,378.71c-.39.46-.79.84-1.23,1.21l-.79-1.18c1.28-1,2.61-2.71,3.51-4.47l1.23.63c-.18.3-.26.43-.45.74h3.45v-1.5h-2.86v-1.23h2.86v-1.89h1.43v1.89h3.22v1.23h-3.22v1.5h4.12v1.21h-2.1v1.46h1.77v1.21h-1.72v3.33c0,.99-.36,1.3-1.38,1.3-.72,0-1.42-.04-2.1-.13l-.27-1.44c.81.13,1.46.2,1.89.2.34,0,.43-.09.43-.42v-2.83h-5.4v-1.21h5.35v-1.46h-5.56v-1.08c-.23.39-.51.81-.75,1.14v7.33h-1.43v-5.54ZM203.83,374.4c1.32-.81,2.4-1.84,3.22-3.15l1.23.73c-.98,1.38-2.25,2.62-3.66,3.55l-.79-1.14ZM209.01,380.31l1.14-.72c.58.51,1.18,1.21,1.78,2.1l-1.23.85c-.53-.88-1.11-1.65-1.7-2.23Z"/>
        <path d="M219.74,378.72c0-1.33.3-3.96.84-6.81l1.53.27c-.65,2.92-.95,5.56-.95,6.67,0,.46.03.97.09,1.44.24-.76.54-1.47.87-2.19l.9.9c-.45.93-.65,1.47-.79,2.02-.23.84-.3,1.28-.29,1.95l-1.19.5c-.63-1.37-1.02-2.73-1.02-4.75ZM223.51,381.17c0-1.05.86-2.04,2.55-2.04.42,0,.87.04,1.32.12l-.04-1.17c-.04-.64-.08-1.38-.09-2.07-1.19.07-2.37.1-3.38.1l-.11-1.5c1.07.02,2.26-.01,3.46-.09,0-.84-.01-1.58.03-2.79l1.58.04c-.08,1.02-.11,1.83-.14,2.61.79-.08,1.54-.18,2.24-.32l.15,1.52c-.72.12-1.53.22-2.39.3.02.78.03,1.48.06,2.16.01.6.04,1.14.06,1.59.86.31,1.71.78,2.54,1.39l-.87,1.38c-.55-.53-1.11-.92-1.65-1.2-.12,1.46-1.1,2.19-2.71,2.19-1.5,0-2.61-.86-2.61-2.24ZM226.09,382.05c.81,0,1.35-.39,1.33-1.21v-.19c-.45-.14-.88-.21-1.25-.21-.88,0-1.26.36-1.26.81,0,.5.43.81,1.17.81Z"/>
        <path d="M237.13,383.28c1.35-.5,2.59-1.42,3.06-2.49-.31.25-.72.41-1.15.41-1.53,0-2.5-1.14-2.5-2.68,0-1.38,1.11-2.36,2.41-2.36.44,0,.87.15,1.16.34l-.04-1.17c-2.28.09-4.63.2-6.66.29l-.11-1.5c2-.04,4.39-.1,6.72-.21-.04-1.05-.08-2.1-.09-2.58l1.58.04c-.02.76-.02,1.62-.02,2.47,1.41-.08,2.76-.15,3.92-.24l.09,1.49c-1.18.06-2.56.12-4,.18l.04,2.25c.17.52.23,1.18.23,1.83,0,2.08-.78,3.72-3.39,5.02l-1.23-1.09ZM240.08,378.54c0-.66-.44-1.06-.99-1.06-.67,0-1.09.52-1.09,1.16s.41,1.21,1.06,1.21,1.02-.51,1.02-1.31ZM242.15,371.51l.89-.53c.54.62.84,1.02,1.32,1.88l-.93.58c-.45-.85-.75-1.29-1.28-1.93ZM243.97,371.16l.87-.56c.58.63.93,1.16,1.33,1.92l-.93.57c-.43-.83-.7-1.25-1.27-1.93Z"/>
        <path d="M250.57,379.65c-.54.62-1.17,1.37-1.94,2.38l-1.23-.93c1.25-1.26,2.28-2.73,2.7-3.57.15-.3.33-.73.48-1.2v-.96c-.86.19-1.89.34-2.68.42l-.24-1.4c.83-.06,1.95-.2,2.91-.42,0-1.06-.02-1.86-.03-2.65l1.59.06c-.03.88-.06,1.68-.08,2.61l.63.42c-.15.51-.36,1.06-.64,1.77v.18c1.69-1.79,3.18-3.1,4.51-3.1.96,0,1.6.58,1.6,1.68,0,.65-.1,1.3-.22,2.04-.25,1.59-.36,2.77-.36,3.38,0,.81.27,1.04.72,1.04.63,0,1.33-.42,2.07-1.64l.66,1.54c-.75,1.08-1.75,1.62-2.97,1.62s-2.01-.88-2.01-2.28c0-.95.1-2.19.38-3.93.08-.5.15-1.05.15-1.44,0-.36-.12-.51-.39-.51-.72,0-2.57,1.74-4.14,3.33,0,1.96,0,3.43.03,5.7l-1.57.06c.03-1.62.06-2.92.08-4.2Z"/>
        <path d="M262.37,383.03c1.23-2.76,2.1-5.34,2.71-7.93-1.02.08-1.98.12-2.77.15l-.17-1.51c1.03-.03,2.14-.08,3.28-.15.15-.81.3-1.63.42-2.47l1.54.24c-.13.72-.29,1.42-.43,2.12,1.11-.12,2.21-.26,3.27-.47l.24,1.5c-1.18.2-2.54.36-3.85.48-.69,2.92-1.54,5.7-2.71,8.65l-1.53-.6ZM267.61,381.09c0-.55.21-1.23.68-1.89l1.36.44c-.39.45-.57.9-.57,1.21,0,.58.66.92,2.13.92.96,0,1.98-.11,2.79-.29l.3,1.56c-.93.18-2.13.21-2.85.21-2.74,0-3.84-.9-3.84-2.16ZM268.37,376.29c1.71-.28,3.7-.42,5.4-.34l-.2,1.49c-1.63-.09-3.45.03-4.8.27l-.4-1.41ZM270.89,372.3l.9-.54c.55.71.85,1.25,1.24,2.12l-.94.57c-.39-.87-.71-1.46-1.2-2.14ZM272.6,371.79l.88-.56c.54.68.88,1.25,1.26,2.08l-.93.57c-.39-.87-.71-1.42-1.21-2.1Z"/>
        <path d="M281.35,381.96c2.99-.31,4.59-1.38,4.59-2.88,0-.94-.64-1.84-1.92-1.84-.67,0-1.5.18-2.46.38-.95.2-2.23.5-3.21.74l-.4-1.41c.96-.21,2.08-.44,3.28-.67,1.05-.21,2.05-.39,2.85-.39,2.17,0,3.42,1.37,3.42,3.14,0,2.31-1.8,3.76-5.28,4.29l-.87-1.33Z"/>
        <path d="M291.52,383.03c1.23-2.76,2.1-5.34,2.71-7.93-1.02.08-1.98.12-2.77.15l-.17-1.51c1.04-.03,2.14-.08,3.29-.15.15-.81.3-1.63.42-2.47l1.54.24c-.14.72-.29,1.42-.44,2.12,1.11-.12,2.21-.26,3.27-.47l.24,1.5c-1.18.2-2.53.36-3.85.48-.69,2.92-1.54,5.7-2.71,8.65l-1.53-.6ZM296.75,381.09c0-.55.21-1.23.67-1.89l1.37.44c-.39.45-.57.9-.57,1.21,0,.58.66.92,2.13.92.96,0,1.98-.11,2.79-.29l.3,1.56c-.93.18-2.13.21-2.85.21-2.75,0-3.84-.9-3.84-2.16ZM297.52,376.29c1.71-.28,3.71-.42,5.4-.34l-.19,1.49c-1.63-.09-3.45.03-4.8.27l-.41-1.41Z"/>
      </g>
    </g>
  </g>
</svg>