<?xml version="1.0" encoding="UTF-8"?>
<svg id="_レイヤー_2" data-name="レイヤー 2" xmlns="http://www.w3.org/2000/svg" width="339.72" height="218.25" viewBox="0 0 339.72 218.25">
  <defs>
    <style>
      .cls-1 {
        fill: #211815;
      }

      .cls-2 {
        fill: #f5f19b;
      }

      .cls-3 {
        fill: #e0a99c;
      }

      .cls-4 {
        fill: #ecbb6e;
      }

      .cls-5 {
        fill: #93c9ce;
      }

      .cls-6 {
        fill: #5c948d;
      }

      .cls-7 {
        fill: #fffba1;
      }

      .cls-8, .cls-9 {
        fill: #fff;
      }

      .cls-10 {
        fill: #d3f2c9;
      }

      .cls-11 {
        fill: #ceeaeb;
      }

      .cls-12 {
        fill: #f2d496;
      }

      .cls-9 {
        stroke: #ceeaeb;
        stroke-miterlimit: 10;
        stroke-width: 2.83px;
      }
    </style>
  </defs>
  <g id="_レイヤー_1-2" data-name="レイヤー 1">
    <g>
      <g>
        <circle class="cls-11" cx="30" cy="59.77" r="30"/>
        <path class="cls-8" d="M38.96,49.33c5.99-4.81,10.66-4.4,11.63-2.77.89,1.5-.2,9.39-9.11,4.98"/>
        <path class="cls-5" d="M43.2,51.91c2.15-3.69,6.52-2.97,7.64-2.44-1.95,3.62-3.96,4.96-7.64,2.44Z"/>
        <path class="cls-1" d="M46.19,53.48c-1.31,0-2.94-.38-4.99-1.39-.3-.15-.42-.51-.28-.82.15-.3.52-.42.82-.28,3.32,1.64,5.84,1.68,7.29.12,1.3-1.4,1.35-3.69,1.02-4.24-.21-.35-.72-.62-1.4-.75-.91-.16-4.27-.39-9.33,3.68-.26.21-.65.17-.86-.09-.21-.26-.17-.65.09-.86,3.68-2.96,7.53-4.43,10.31-3.92,1.04.19,1.83.66,2.23,1.32.64,1.09.43,3.95-1.18,5.69-.75.81-1.93,1.54-3.74,1.54Z"/>
        <path class="cls-8" d="M44.44,63.56c1.64-16.82-17.11-22.8-25.64-13.47-2.97,3.25-5.19,9.02-4.06,15.77-3.29,3.25-2.73,7.92,2.42,10.46,3.1,1.53,6.19,2.19,13.34,2.19,6.63,0,14.3-2.8,16.45-6.93,1.2-2.31.78-5.72-2.5-8.03Z"/>
        <path class="cls-2" d="M34.22,45.93c-.6-4.19-4.15-6.52-4.34-.47"/>
        <path class="cls-2" d="M22.54,46.99c-.51-4.2,2.31-7.38,4.07-1.58"/>
        <path class="cls-8" d="M18.08,50.05c-6.66-3.82-11.21-2.69-11.91-.92-.65,1.62,2.36,9.82,10.47,4.08"/>
        <ellipse class="cls-1" cx="33.71" cy="65.5" rx="1.44" ry="1.56" transform="translate(-9.78 6.04) rotate(-8.95)"/>
        <path class="cls-5" d="M14.81,53.87c-2.15-3.69-7.03-2.78-8.16-2.25,1.95,3.62,4.47,4.77,8.16,2.25Z"/>
        <path class="cls-5" d="M27.64,45.45c1.23,7.46-2.33,14.45-12.53,14.45,0-11.42,12.53-14.45,12.53-14.45Z"/>
        <path class="cls-5" d="M29.88,45.46c0,8.41,6.81,12.72,13.84,13.25,0-11.42-13.84-13.25-13.84-13.25Z"/>
        <path class="cls-5" d="M13.66,72.32c13.81-6.39,25.45-3.61,33.28-.74-3.13,7.57-29.25,10.15-33.28.74Z"/>
        <path class="cls-1" d="M30.5,79.13c-7.59,0-10.64-.79-13.61-2.26-2.68-1.33-4.37-3.31-4.74-5.59-.32-1.98.37-3.96,1.94-5.63-1.1-7.13,1.47-12.92,4.26-15.97,4.25-4.65,11.25-5.93,17.42-3.18,3.01,1.34,5.47,3.51,7.11,6.28,1.79,3.02,2.53,6.54,2.2,10.49,3.38,2.56,3.63,6.22,2.4,8.6-2.36,4.54-10.49,7.26-16.99,7.26ZM29.12,46.28c-3.76,0-7.35,1.46-9.87,4.22-2.64,2.89-5.06,8.42-3.91,15.26.03.2-.03.39-.17.53-1.44,1.42-2.08,3.13-1.81,4.79.3,1.88,1.75,3.54,4.07,4.69,2.8,1.38,5.71,2.13,13.07,2.13,6.88,0,14.01-2.96,15.91-6.6,1.03-1.98.75-5.1-2.31-7.25-.18-.13-.28-.34-.26-.56.71-7.25-2.49-13.19-8.56-15.89-2.01-.89-4.11-1.33-6.15-1.33Z"/>
        <ellipse class="cls-1" cx="33.71" cy="65.5" rx="1.44" ry="1.56" transform="translate(-9.78 6.04) rotate(-8.95)"/>
        <ellipse class="cls-1" cx="26.04" cy="65.86" rx="1.56" ry="1.44" transform="translate(-41.06 88.53) rotate(-87.1)"/>
        <path class="cls-1" d="M11.43,55.84c-1.46,0-2.58-.54-3.4-1.18-2.09-1.64-2.9-4.58-2.43-5.75.29-.72.99-1.3,1.99-1.65,2.66-.93,6.69-.08,10.79,2.27.29.17.39.54.22.83-.17.29-.54.39-.83.22-5.62-3.23-8.91-2.48-9.78-2.18-.65.23-1.11.57-1.26.95-.21.53.31,2.97,2.06,4.35,1.89,1.49,4.48,1.14,7.49-.99.27-.19.65-.13.85.15.19.27.13.65-.15.85-2.23,1.58-4.07,2.14-5.55,2.14Z"/>
        <path class="cls-1" d="M34.22,46.54c-.3,0-.56-.22-.6-.52-.32-2.23-1.48-3.66-2.12-3.62-.31.02-.93.69-1,3.09-.01.34-.3.59-.63.59-.34-.01-.6-.29-.59-.63.11-3.61,1.4-4.22,2.15-4.27.03,0,.06,0,.09,0,1.46,0,2.94,2.06,3.31,4.67.05.33-.18.64-.52.69-.03,0-.06,0-.09,0Z"/>
        <path class="cls-1" d="M22.54,47.6c-.3,0-.57-.23-.6-.54-.32-2.66.61-5.08,2.07-5.39.74-.15,2.14.1,3.19,3.56.1.32-.08.66-.41.76-.32.1-.66-.08-.76-.41-.7-2.3-1.46-2.78-1.77-2.72-.62.13-1.38,1.81-1.11,4.05.04.33-.2.64-.53.68-.02,0-.05,0-.07,0Z"/>
        <path class="cls-1" d="M34.97,57.03c-.65-1.09-1.64-1.26-2.41-.7-.18.13-.11.42.12.44.71.07,1.33.3,1.98.61.22.1.44-.14.31-.35Z"/>
        <path class="cls-1" d="M24.07,57.44c.65-1.09,1.64-1.26,2.41-.7.18.13.11.42-.12.44-.71.07-1.33.3-1.98.61-.22.1-.44-.14-.31-.35Z"/>
        <circle class="cls-1" cx="31.35" cy="71.44" r=".57"/>
        <circle class="cls-1" cx="29.57" cy="71.44" r=".57"/>
        <path class="cls-3" d="M25.95,74.56c.25-1.57,1.68-1.55,4.29-1.21s2.12,2.61.35,2.57c-1.78-.05-4.93.49-4.64-1.36Z"/>
        <path class="cls-1" d="M28.41,76.58c-1.13,0-2.16-.12-2.72-.76-.22-.25-.45-.68-.34-1.35h0c.37-2.33,2.82-2.01,4.98-1.72,1.72.23,2.42,1.24,2.35,2.14-.08.97-.98,1.69-2.1,1.65-.33,0-.71,0-1.11.02-.35.01-.7.02-1.05.02ZM28.04,73.78c-1.11,0-1.39.29-1.48.88h0c-.04.24.03.31.05.34.35.4,1.83.35,2.81.32.42-.01.83-.03,1.19-.02.53.02.82-.26.84-.52.02-.31-.37-.7-1.28-.82-.92-.12-1.61-.18-2.12-.18ZM25.95,74.56h0,0Z"/>
      </g>
      <path class="cls-9" d="M9.95,107.66h239.38c4.68,0,8.47,3.79,8.47,8.47v44.38s9.69,9.69,9.69,9.69h-9.69s0,.5,0,.5c0,4.68-3.79,8.47-8.47,8.47H9.95c-4.68,0-8.47-3.79-8.47-8.47v-54.57c0-4.68,3.79-8.47,8.47-8.47Z"/>
      <g>
        <path d="M14.34,134.99c3.87-1.78,5.62-4.93,5.62-10.02v-1.2h1.65v1.14c0,4.29,1.88,7.48,5.76,9.76l-1.05,1.41c-2.54-1.53-4.71-4.29-5.42-6.88-.58,3.03-2.65,5.7-5.49,7.12l-1.08-1.33Z"/>
        <path d="M28.95,127.37c1.09-1.07,1.93-2.5,2.42-4.11l1.48.23c-.12.42-.21.69-.39,1.08h8.37v1.2h-8.92c-.55,1.04-1.23,1.94-1.99,2.67l-.96-1.06ZM29.22,135.26c1.59-.5,2.85-1.21,3.87-2.19-1.16-.76-1.93-1.21-2.88-1.65l.92-.98c.97.47,1.92.99,2.89,1.59.48-.6.92-1.33,1.23-2.13l1.38.56c-.36.81-.81,1.56-1.42,2.37.97.64,1.69,1.2,2.61,1.98l-1.04,1.17c-.72-.67-1.5-1.32-2.5-2.08-1.26,1.18-2.58,1.98-4.2,2.54l-.86-1.17ZM38.85,135.12c-.51-1.07-.75-2.72-.75-5.37h-8.64v-1.19h10.08c.02,2.91.11,4.28.38,5.21.15.46.27.71.36.71.15,0,.32-.69.5-2.08l1.21.92c-.41,2.33-.87,3.22-1.67,3.22-.54,0-1.04-.46-1.47-1.41ZM31.47,126.57h8.08v1.15h-8.08v-1.15Z"/>
        <path d="M44.64,131c0-1.42.32-3.93.86-6.79l1.53.24c-.6,2.89-.92,5.41-.92,6.58,0,.47.03,1.01.11,1.46.24-.76.62-1.65.9-2.19l.9.9c-.46.93-.67,1.53-.84,2.1-.2.69-.3,1.36-.24,1.99l-1.18.5c-.62-1.21-1.11-2.82-1.11-4.78ZM48.99,132.63c0-.65.27-1.37.99-2.17l1.42.48c-.69.6-.92,1.08-.92,1.46,0,.75.63,1.19,2.29,1.19.66,0,1.63-.09,2.59-.32l.3,1.56c-1.04.17-2.07.21-2.7.21-2.71,0-3.99-.72-3.99-2.4ZM49.16,125.73c1.68.03,4.29-.12,6-.39l.18,1.5c-1.72.27-4.32.44-6.04.39l-.14-1.5Z"/>
        <path d="M58.97,131.03c0-1.33.3-3.96.84-6.81l1.53.27c-.65,2.92-.95,5.56-.95,6.67,0,.46.03.97.09,1.44.24-.76.54-1.47.87-2.19l.9.9c-.45.93-.65,1.47-.79,2.03-.23.84-.3,1.27-.29,1.95l-1.19.5c-.63-1.36-1.02-2.73-1.02-4.75ZM62.73,133.47c0-1.05.86-2.04,2.55-2.04.42,0,.87.04,1.32.12l-.04-1.17c-.04-.64-.08-1.38-.09-2.07-1.19.08-2.37.11-3.38.11l-.11-1.5c1.07.01,2.26-.01,3.46-.09,0-.84-.01-1.58.03-2.79l1.58.04c-.08,1.02-.11,1.83-.14,2.61.79-.08,1.54-.18,2.24-.32l.15,1.51c-.72.12-1.53.23-2.39.3.02.78.03,1.48.06,2.16.01.6.04,1.14.06,1.59.86.32,1.71.78,2.54,1.4l-.87,1.38c-.55-.53-1.11-.92-1.65-1.2-.12,1.46-1.1,2.19-2.71,2.19-1.5,0-2.61-.86-2.61-2.24ZM65.31,134.36c.81,0,1.35-.39,1.33-1.21v-.2c-.45-.13-.88-.21-1.25-.21-.88,0-1.26.36-1.26.81,0,.5.43.81,1.17.81Z"/>
        <path d="M74.06,132.56c-.33-1.06-.55-2.97-.55-4.71,0-.75.03-1.81.09-2.75l1.59.33c-.09,1.02-.13,1.92-.13,2.88,0,1.64.17,2.81.43,3.67.32,1.02.76,1.64,1.2,1.64.48,0,1.11-1.04,1.51-2.94l1.32,1.11c-.63,2.37-1.7,3.51-2.8,3.51-1.21,0-2.13-1.07-2.66-2.75ZM80.91,126.9l1.14-1.02c1.8,1.65,2.32,3.67,2.71,6.52l-1.54.48c-.35-2.66-.9-4.77-2.31-5.98Z"/>
        <path d="M91.4,134.84c3.06-.21,5.22-1.16,5.22-2.94,0-1.12-.93-1.81-2.62-1.81-1.44,0-2.54.62-3.24,1.12-.77.55-1.12.93-1.88,1.79l-1.14-1.08c1.61-1.44,4.04-3.95,5.82-6.12-1.4.22-2.92.33-3.76.38l-.3-1.44c1.44-.03,3.44-.15,5.73-.57l.84,1.06c-1.29,1.49-2.4,2.64-3.67,3.88.63-.22,1.25-.34,1.9-.34,2.24,0,3.95,1.21,3.95,3.09,0,2.79-2.42,3.95-6.06,4.38l-.78-1.39Z"/>
        <path d="M101.54,135.14c2.04-4.32,3.56-7.62,5.27-11.5l1.54.58c-1.04,2.04-1.91,3.81-2.81,5.71.8-.69,1.65-1.02,2.33-1.02,1.04,0,1.38.83,1.38,2.64,0,1.93.24,2.58,1.02,2.58,1.05,0,2.05-1.28,2.95-3.99l1.23,1.19c-1.04,2.8-2.35,4.3-4.17,4.3s-2.52-1.23-2.52-3.57c0-1.27-.12-1.6-.58-1.6-.53,0-1.37.67-2.01,1.47-.76.93-1.15,1.65-2.2,4l-1.43-.79Z"/>
        <path d="M116.15,132.59c1.35-2.04,2.19-3.66,2.8-5.29-.99.09-1.93.15-2.67.17l-.19-1.42c1-.02,2.19-.08,3.38-.2.22-.76.45-1.56.66-2.43l1.53.38c-.2.66-.38,1.27-.57,1.86.89-.12,1.73-.27,2.42-.45l.27,1.42c-.78.18-1.95.36-3.18.51-.73,2.04-1.6,3.92-3.03,6.27l-1.41-.81ZM119.22,133.89c0-1.14,1.06-2.05,2.67-2.05.36,0,.75.03,1.14.09-.03-.5-.06-1.08-.06-1.37,0-.42.06-1.15.51-1.92l1.33.77c-.29.58-.33.99-.33,1.41,0,.47.03.9.04,1.43,1.07.34,2.16.88,3.15,1.47l-.72,1.3c-.78-.55-1.58-1.02-2.35-1.35v.24c0,1.4-1,2.25-2.58,2.25-1.39,0-2.8-.71-2.8-2.26ZM122.01,134.73c.69,0,1.11-.31,1.11-.94,0-.12,0-.29-.01-.48-.34-.09-.69-.13-1-.13-.79,0-1.33.29-1.33.76,0,.53.55.79,1.25.79ZM124.28,127.52l.67-1.2c1.37.52,2.46,1.14,3.48,2.13l-.82,1.18c-1.16-1.07-2.04-1.59-3.33-2.12Z"/>
        <path d="M129.71,133.34c.64-.18,1.11-.33,1.86-.6v-3.21h-1.44v-1.26h1.44v-2.52h-1.62v-1.29h4.5v1.29h-1.53v2.52h1.33v1.26h-1.33v2.73c.54-.21,1.14-.46,1.53-.65l.12,1.29c-1.26.66-2.89,1.35-4.35,1.85l-.51-1.41ZM133.94,134.76h4.02v-1.46h-3.12v-1.23h3.12v-1.35h-2.88v-6.67h7.21v6.67h-2.96v1.35h3.21v1.23h-3.21v1.46h3.78v1.25h-9.18v-1.25ZM138.02,126.78v-1.54h-1.64v1.54h1.64ZM138.02,129.54v-1.62h-1.64v1.62h1.64ZM140.99,126.78v-1.54h-1.71v1.54h1.71ZM140.99,129.54v-1.62h-1.71v1.62h1.71Z"/>
        <path d="M145.38,126.05h4.78v-2.44h1.53v2.44h4.88v10.32h-1.47v-.84h-8.25v.84h-1.47v-10.32ZM150.21,130.01v-2.68h-3.36v2.68h3.36ZM150.21,134.22v-2.97h-3.36v2.97h3.36ZM155.1,130.01v-2.68h-3.45v2.68h3.45ZM155.1,134.22v-2.97h-3.45v2.97h3.45Z"/>
        <path d="M159.44,135.05c1.25-2.34,2.1-4.38,2.71-6.57-.92.14-1.77.25-2.43.36l-.25-1.46c.69-.06,1.96-.2,2.98-.34.24-1.04.45-2.12.65-3.25l1.53.24c-.19.93-.42,1.86-.66,2.82.44-.03.83-.06,1.14-.06,1.44,0,2.4.88,2.4,2.68,0,1.29-.12,2.91-.45,4.27-.37,1.56-1.27,1.97-2.17,1.97-.7,0-1.39-.14-2.01-.36l-.12-1.65c.71.35,1.38.48,1.83.48.58,0,.88-.32,1.11-1.35.19-.89.3-2,.3-3.06s-.43-1.59-1.18-1.59c-.26,0-.62.03-1.14.09-.73,2.59-1.53,4.88-2.82,7.51l-1.41-.73ZM167.43,127.02l1.23-.91c1.17,1.39,1.95,3.06,2.64,5.19l-1.38.9c-.72-2.26-1.35-3.97-2.49-5.17ZM168.6,124.91l.79-.66c.63.6,1.05,1.11,1.56,2.01l-.86.67c-.51-.92-.94-1.48-1.5-2.02ZM170.06,124.07l.79-.66c.68.58,1.08,1.16,1.56,1.98l-.87.66c-.45-.84-.9-1.46-1.49-1.98Z"/>
        <path d="M178.61,134.61c-.79.6-1.61.96-2.42.96-1.32,0-2.1-.96-2.1-2.35,0-1.29.66-2.55,1.74-3.51.53-.48,1.14-.87,1.79-1.14.01-.49.04-1.11.11-1.77-1.14.06-2.18.09-2.93.09l-.07-1.36c.81.03,1.9,0,3.12-.06.06-.69.15-1.38.24-1.98l1.53.21c-.12.52-.23,1.09-.32,1.68,1.4-.12,2.87-.29,4.14-.53l.1,1.38c-1.35.21-2.92.36-4.42.48-.06.53-.11,1.04-.13,1.47.71-.15,1.48-.22,2.31-.21.08-.34.11-.63.15-.97l1.41.21c-.04.31-.1.62-.18.92,1.83.42,3.11,1.72,3.11,3.42,0,1.9-.96,3.67-4.19,4.69l-1.11-1.11c2.85-.84,3.76-2.13,3.76-3.56,0-1.08-.76-1.89-1.92-2.23-.57,1.58-1.53,3.21-2.55,4.32.13.27.27.54.43.79l-1.18,1.02c-.15-.27-.29-.55-.42-.86ZM176.33,134.15c.54,0,1.19-.3,1.82-.87-.27-.9-.46-2.08-.53-3.3-.33.2-.69.48-1.04.83-.54.54-1.04,1.35-1.04,2.24,0,.75.33,1.11.78,1.11ZM179.28,132.2c.66-.82,1.29-1.93,1.7-3.03-.74,0-1.41.08-2.01.25.02.95.09,1.91.32,2.77Z"/>
        <path d="M191.4,133.76c0-1.05.95-1.82,2.23-1.82s2.39.72,3.12,2.01c.72-.48,1.19-1.19,1.19-2.03,0-1.05-1.07-1.91-2.79-1.91-1.1,0-2.42.36-3.42.99-.69.43-1.2.86-1.96,1.63l-1.04-1.12c1.65-1.27,4.05-3.39,6.21-5.82-1.21.21-2.73.34-3.99.41l-.27-1.44c1.72-.03,3.61-.15,5.77-.55l.85,1.05c-1.44,1.54-2.56,2.61-3.91,3.83.69-.21,1.33-.3,1.93-.3,2.52,0,4.16,1.33,4.16,3.2,0,2.4-2.4,4.05-5.24,4.05-1.54,0-2.85-.83-2.85-2.17ZM194.4,134.61c.39,0,.75-.04,1.11-.13-.46-.81-1.11-1.26-1.8-1.26-.51,0-.81.25-.81.58,0,.52.66.81,1.5.81Z"/>
        <path d="M208.71,134.58c2.75-.69,4.38-2.37,4.38-4.5s-1.47-3.53-3.6-3.66c-.11,1.7-.38,3.17-.84,4.6-.72,2.25-2,3.48-3.36,3.48s-2.52-1.4-2.52-3.32c0-3.48,2.88-6.21,6.42-6.21,3.25,0,5.49,1.98,5.49,5.08,0,2.69-1.65,4.68-4.74,5.75l-1.23-1.23ZM205.34,132.9c.77,0,1.41-.9,1.88-2.38.41-1.32.65-2.49.74-3.96-2.07.53-3.64,2.42-3.64,4.65,0,.92.49,1.69,1.03,1.69Z"/>
        <path d="M218.31,133.62c0-1.28,1.11-2.22,3.15-2.22.36,0,.72.03,1.11.08-.02-.31-.04-.64-.06-.96-.09-1.36-.17-3.42-.17-4.41,0-.71-.01-1.5.02-2.48l1.6.08c-.09,1-.1,1.7-.12,2.66,1.23-.06,2.49-.21,3.72-.46l.17,1.5c-1.41.23-2.7.36-3.87.42.01.88.06,1.9.12,2.68.03.43.06.88.07,1.3,1.44.41,2.94,1.11,4.21,2.04l-.85,1.3c-1.19-.9-2.31-1.5-3.29-1.88v.29c0,1.58-.94,2.37-2.8,2.37s-3.01-.86-3.01-2.31ZM221.19,134.51c.84,0,1.44-.29,1.44-1.19,0-.1,0-.25-.01-.46-.41-.08-.79-.1-1.12-.1-1.09,0-1.65.38-1.65.88,0,.58.57.87,1.35.87Z"/>
        <path d="M236.52,134.48c0-.66.49-1.23,1.21-1.23s1.21.57,1.21,1.23-.5,1.21-1.21,1.21-1.21-.55-1.21-1.21ZM236.85,124.79h1.76l-.09,7.33h-1.56l-.11-7.33Z"/>
        <path d="M15.06,161.58c1.23-2.76,2.1-5.34,2.71-7.94-1.02.08-1.98.12-2.77.15l-.17-1.51c1.04-.03,2.14-.08,3.29-.15.15-.81.3-1.63.42-2.47l1.54.24c-.14.72-.29,1.42-.44,2.11,1.11-.12,2.21-.25,3.27-.46l.24,1.5c-1.18.2-2.53.36-3.85.48-.69,2.92-1.54,5.7-2.71,8.65l-1.53-.6ZM20.3,159.65c0-.55.21-1.23.67-1.89l1.37.43c-.39.45-.57.9-.57,1.21,0,.58.66.92,2.13.92.96,0,1.98-.1,2.79-.28l.3,1.56c-.93.18-2.13.21-2.85.21-2.75,0-3.84-.9-3.84-2.16ZM21.06,154.85c1.71-.29,3.71-.42,5.4-.34l-.19,1.49c-1.63-.09-3.45.03-4.8.27l-.41-1.41Z"/>
        <path d="M30.65,159c0-1.32,1-2.5,2.88-3.69-.61-1.41-1.3-3.21-1.71-4.98l1.58-.38c.27,1.41.88,3.25,1.44,4.62,1.14-.6,2.5-1.21,4.02-1.84l.69,1.47c-3.94,1.35-7.35,3.1-7.35,4.63,0,.94.79,1.51,2.99,1.51,1.32,0,2.92-.1,4.67-.43l.27,1.6c-1.79.3-3.62.36-4.79.36-3.46,0-4.68-1.16-4.68-2.88Z"/>
        <path d="M43.85,161.06c3.03-3,4.93-4.81,6.94-6.71-1.93.33-4.2.51-5.52.57l-.19-1.46c1.74-.04,5.4-.31,7.51-.78l1,1.04c-1.05.88-2.55,2.19-3.6,3.12.29-.06.56-.09.79-.09.74,0,1.11.54,1.11,1.09,0,.41-.04,1.32-.04,1.59,0,.71.17,1.08,1.05,1.08.65,0,1.91-.1,2.85-.34l.18,1.59c-1.02.21-2.28.27-2.99.27-1.88,0-2.67-.76-2.67-2.22,0-.33.03-.83.03-1.05,0-.38-.2-.75-.57-.75-.45,0-.87.24-1.39.71-.6.54-1.17,1.12-3.24,3.39l-1.26-1.05ZM46.98,151.04l.58-1.3c1.5.25,2.79.51,4.41,1.2l-.72,1.31c-1.4-.62-2.9-.95-4.28-1.2Z"/>
        <path d="M58.67,157.35c0-1.33.3-3.96.84-6.81l1.53.27c-.64,2.92-.94,5.56-.94,6.67,0,.47.03.98.09,1.44.24-.76.54-1.47.87-2.19l.9.9c-.45.93-.64,1.47-.79,2.03-.22.84-.3,1.27-.28,1.95l-1.19.5c-.63-1.37-1.02-2.73-1.02-4.75ZM62.43,159.8c0-1.05.85-2.04,2.55-2.04.42,0,.87.04,1.32.12l-.04-1.17c-.05-.65-.08-1.38-.09-2.07-1.18.08-2.37.11-3.37.11l-.11-1.5c1.07.01,2.26-.02,3.46-.09,0-.84-.01-1.58.03-2.79l1.58.04c-.08,1.02-.11,1.83-.14,2.61.79-.07,1.54-.18,2.24-.31l.15,1.51c-.72.12-1.53.23-2.38.3.02.78.03,1.49.06,2.16.01.6.04,1.14.06,1.59.86.32,1.71.78,2.54,1.4l-.87,1.38c-.55-.53-1.11-.92-1.65-1.2-.12,1.46-1.1,2.19-2.72,2.19-1.5,0-2.61-.85-2.61-2.23ZM65.01,160.68c.81,0,1.35-.39,1.33-1.21v-.2c-.45-.13-.88-.21-1.25-.21-.88,0-1.26.36-1.26.81,0,.49.43.81,1.17.81ZM68.31,150.15l.97-.29c.25.72.36,1.17.53,2.04l-1.02.29c-.15-.87-.25-1.33-.48-2.04ZM69.86,149.7l.96-.29c.31.74.42,1.16.6,2.04l-.99.3c-.16-.87-.28-1.32-.57-2.05Z"/>
        <path d="M71.7,159.72l1.3-1.12c.92.78,1.98,2,2.77,3.13l-1.41,1.25c-.69-1.16-1.64-2.29-2.67-3.25Z"/>
        <path d="M78.66,159.72l1.3-1.12c.92.78,1.98,2,2.77,3.13l-1.41,1.25c-.69-1.16-1.64-2.29-2.67-3.25Z"/>
      </g>
      <circle class="cls-10" cx="308.3" cy="188.25" r="30"/>
      <path class="cls-9" d="M329.84,1.42H90.46c-4.68,0-8.47,3.79-8.47,8.47v43.9s-9.69,9.69-9.69,9.69h9.69s0,.5,0,.5c0,4.68,3.79,8.47,8.47,8.47h239.38c4.68,0,8.47-3.79,8.47-8.47V9.89c0-4.68-3.79-8.47-8.47-8.47Z"/>
      <g>
        <path d="M99.81,26.09c0-1.67,1.05-3.23,3.02-4.56-2.88.27-4.68.42-6.81.58l-.19-1.57c3.12-.12,7.92-.41,11.43-.98l.3,1.53c-2.08.29-2.79.51-4,1.47-1.38,1.08-2.21,2.19-2.21,3.55,0,1.71,1.46,2.6,4.04,2.96l-.67,1.44c-2.99-.42-4.89-1.86-4.89-4.42ZM104.18,23.84l.87-.58c.62.63,1.02,1.27,1.51,2.14l-.9.63c-.48-.92-.93-1.58-1.49-2.19ZM105.6,22.91l.88-.58c.6.58,1.07,1.28,1.52,2.08l-.9.6c-.51-.93-.9-1.52-1.5-2.1Z"/>
        <path d="M110.61,24.56c0-.53.38-1.26,1.02-1.92l1.05.51c-.4.36-.64.67-.64.88,0,.33.43.48,1.5.48h.22c.06-.36.11-.74.17-1.14.06-.45.13-.93.2-1.43-1-.01-2.01-.07-2.9-.19l-.07-1.42c1.05.15,2.11.24,3.15.24.12-.93.24-1.8.3-2.43l1.56.21c-.11.53-.24,1.32-.38,2.17.92-.04,1.83-.15,2.74-.31l.09,1.42c-.89.15-2.04.25-3.06.29-.07.52-.13,1.02-.19,1.47-.04.38-.09.72-.12,1.04,1.06-.11,2.17-.3,3.03-.57l.33,1.41c-1.11.24-2.37.39-3.51.46-.04.55-.08.96-.08,1.21,0,1.38.62,2.16,2.07,2.14,1.54-.01,2.92-1.09,2.92-2.89,0-.93-.33-1.68-.93-2.68l1.56-.06c.66,1.1.88,2.17.88,2.94,0,2.65-1.84,4.2-4.47,4.2-2.43,0-3.54-1.21-3.54-3.33,0-.35.03-.84.09-1.46h-.36c-1.96,0-2.64-.56-2.64-1.25Z"/>
        <path d="M125.37,21.63c1.74-.06,3.36-.17,4.9-.33-.36-.83-.66-1.71-.91-2.67l1.54-.34c.16.92.48,1.89.88,2.82,1.33-.18,2.62-.43,3.85-.75l.33,1.47c-1.05.25-2.24.48-3.51.67.81,1.5,1.83,2.8,2.77,3.52l-.93,1.21c-.5-.4-.96-.66-1.68-.88-.79-.25-1.47-.34-2.25-.34-1.7,0-2.55.76-2.55,1.56,0,1.11,1.5,1.56,3.71,1.56.84,0,1.74-.06,2.41-.15l.15,1.46c-.67.09-1.83.15-2.64.15-3.21,0-5.16-.96-5.16-2.95,0-1.62,1.65-2.91,4.08-2.91.71,0,1.46.13,2.13.34-.58-.73-1.11-1.51-1.56-2.37-1.73.21-3.57.36-5.42.44l-.17-1.5Z"/>
        <path d="M138.11,28.13l1.3-1.12c.92.78,1.98,1.99,2.77,3.13l-1.41,1.24c-.69-1.15-1.64-2.29-2.67-3.25Z"/>
        <path d="M154.74,27.48c0-1.32,1-2.5,2.88-3.69-.62-1.41-1.31-3.21-1.71-4.98l1.57-.38c.27,1.41.89,3.25,1.44,4.62,1.11-.58,2.43-1.18,3.88-1.79-.39-.9-.78-1.51-1.25-2.16l.88-.53c.54.66.92,1.3,1.33,2.17l-.82.48.67,1.44c-3.95,1.35-7.35,3.1-7.35,4.63,0,.95.79,1.51,2.98,1.51,1.32,0,2.92-.1,4.67-.43l.27,1.6c-1.78.3-3.61.36-4.78.36-3.46,0-4.68-1.16-4.68-2.88ZM163.2,18.47l.9-.53c.58.71.96,1.32,1.37,2.16l-.96.53c-.42-.92-.78-1.53-1.31-2.16Z"/>
        <path d="M171.92,30.02c1.84-.72,2.59-1.23,3.33-2.01.67-.72,1.26-1.88,1.26-2.96,0-1.47-.98-2-1.91-2-.5,0-.97.08-2.21.41-1.12.3-1.69.46-2.61.72l-.44-1.47c.92-.23,1.49-.38,2.54-.63,1.39-.35,2.13-.48,2.94-.48,1.77,0,3.36.99,3.36,3.21,0,1.89-.79,3.13-1.56,4.04-.81.94-1.95,1.68-3.45,2.26l-1.26-1.09ZM171.53,19.55l.57-1.33c1.5.27,2.91.57,4.54,1.35l-.63,1.38c-1.46-.72-3-1.09-4.49-1.39Z"/>
        <path d="M185.22,26.64c0-.84.03-2.66.06-3.78.03-.97.01-2.97-.02-4.27l1.72.03c-.03,1.29-.07,3.18-.12,4.12-.04,1.01-.08,2.75-.08,3.68,0,1.78.5,2.65,1.89,2.65,1.72,0,3.57-1.23,4.56-3.04l.83,1.63c-1.16,1.65-3.21,2.92-5.4,2.92-2.62,0-3.45-1.63-3.45-3.94Z"/>
        <path d="M201.03,26.09c0-1.67,1.05-3.23,3.02-4.56-2.88.27-4.68.42-6.81.58l-.19-1.57c3.12-.12,7.92-.41,11.43-.98l.3,1.53c-2.08.29-2.79.51-4,1.47-1.38,1.08-2.21,2.19-2.21,3.55,0,1.71,1.37,2.6,4.04,2.94l-.67,1.46c-2.99-.42-4.89-1.86-4.89-4.42Z"/>
        <path d="M218.18,21.83c0-1.14.83-2.42,1.79-3.15h1.39c-.96.79-1.86,1.98-1.75,2.87.78.04,1.37.42,1.37,1.05s-.51,1.11-1.18,1.11c-.95,0-1.61-.76-1.61-1.87ZM221.49,21.83c0-1.14.83-2.42,1.79-3.15h1.4c-.96.79-1.86,1.98-1.75,2.87.78.04,1.36.42,1.36,1.05s-.51,1.11-1.18,1.11c-.95,0-1.61-.76-1.61-1.87Z"/>
        <path d="M225.72,29.64c3.87-1.79,5.62-4.93,5.62-10.02v-1.2h1.65v1.14c0,4.29,1.88,7.49,5.76,9.76l-1.05,1.41c-2.54-1.53-4.71-4.29-5.42-6.88-.58,3.03-2.65,5.7-5.49,7.12l-1.08-1.33Z"/>
        <path d="M240.33,22.02c1.09-1.06,1.93-2.5,2.42-4.11l1.48.22c-.12.42-.21.69-.39,1.08h8.37v1.2h-8.92c-.55,1.04-1.23,1.93-1.99,2.67l-.96-1.07ZM240.6,29.91c1.59-.5,2.85-1.21,3.87-2.19-1.16-.77-1.94-1.21-2.88-1.65l.92-.97c.97.46,1.92.99,2.89,1.59.48-.6.92-1.33,1.23-2.13l1.38.55c-.36.81-.81,1.56-1.42,2.37.97.64,1.69,1.2,2.61,1.98l-1.04,1.17c-.72-.68-1.5-1.32-2.5-2.08-1.26,1.18-2.58,1.98-4.2,2.53l-.86-1.17ZM250.23,29.78c-.51-1.06-.75-2.71-.75-5.37h-8.64v-1.18h10.08c.02,2.91.11,4.27.38,5.21.15.46.27.71.36.71.15,0,.32-.69.5-2.08l1.21.92c-.41,2.32-.87,3.22-1.67,3.22-.54,0-1.04-.46-1.47-1.41ZM242.85,21.23h8.08v1.16h-8.08v-1.16Z"/>
        <path d="M255.98,20.82c-.78-.03-1.37-.4-1.37-1.03s.51-1.11,1.19-1.11c.94,0,1.6.76,1.6,1.86s-.83,2.42-1.79,3.16h-1.39c.96-.81,1.86-1.98,1.75-2.88ZM259.29,20.82c-.78-.03-1.36-.4-1.36-1.03s.51-1.11,1.18-1.11c.95,0,1.61.76,1.61,1.86s-.83,2.42-1.79,3.16h-1.4c.96-.81,1.86-1.98,1.75-2.88Z"/>
        <path d="M269.97,29.7c1.25-2.34,2.1-4.38,2.71-6.57-.92.13-1.77.25-2.43.36l-.25-1.45c.69-.06,1.96-.2,2.98-.35.24-1.03.45-2.11.65-3.25l1.53.24c-.19.93-.42,1.86-.66,2.82.44-.03.83-.06,1.14-.06,1.44,0,2.4.88,2.4,2.69,0,1.29-.12,2.91-.45,4.27-.37,1.56-1.27,1.96-2.17,1.96-.7,0-1.39-.13-2.01-.36l-.12-1.65c.71.34,1.38.48,1.83.48.58,0,.88-.31,1.11-1.35.19-.88.3-2,.3-3.06s-.43-1.59-1.18-1.59c-.26,0-.62.03-1.14.09-.73,2.59-1.53,4.88-2.82,7.51l-1.41-.74ZM277.97,21.68l1.23-.92c1.17,1.39,1.95,3.06,2.64,5.19l-1.38.9c-.72-2.26-1.35-3.97-2.49-5.17ZM279.14,19.56l.79-.66c.63.6,1.05,1.11,1.56,2.01l-.86.67c-.51-.92-.94-1.49-1.5-2.03ZM280.59,18.72l.79-.66c.68.58,1.08,1.16,1.56,1.98l-.87.66c-.45-.84-.9-1.46-1.49-1.98Z"/>
        <path d="M284.63,25.88h1.5v3.07h3.49v-4.68h-2.92v.76h-1.47v-5.4h1.47v3.33h2.92v-4.67h1.53v4.67h3.01v-3.33h1.47v5.4h-1.47v-.76h-3.01v4.68h3.58v-3.07h1.5v5.32h-1.5v-.9h-8.61v.9h-1.5v-5.32Z"/>
        <path d="M299.12,29.99c1.23-2.76,2.1-5.34,2.71-7.93-1.02.08-1.98.12-2.77.15l-.17-1.52c1.04-.03,2.14-.08,3.29-.15.15-.81.3-1.64.42-2.48l1.54.24c-.14.72-.29,1.42-.44,2.12,1.11-.12,2.21-.25,3.27-.46l.24,1.5c-1.18.19-2.53.36-3.85.48-.69,2.92-1.54,5.7-2.71,8.65l-1.53-.6ZM304.35,28.05c0-.56.21-1.23.67-1.89l1.37.44c-.39.45-.57.9-.57,1.21,0,.58.66.92,2.13.92.96,0,1.98-.11,2.79-.29l.3,1.56c-.93.18-2.13.21-2.85.21-2.75,0-3.84-.9-3.84-2.16ZM305.12,23.25c1.71-.29,3.71-.42,5.4-.35l-.19,1.49c-1.63-.09-3.45.03-4.8.27l-.41-1.41Z"/>
        <path d="M315.44,22.58c0-1.29.17-2.5.5-4.14l1.5.36c-.36,1.44-.6,2.98-.6,4.08,0,.3,0,.58.02.84.3-.75.67-1.53.97-2.12l.76,1.04c-.46.76-.78,1.5-.96,2.02-.27.81-.3,1.33-.27,2.07l-1.2.41c-.55-1.58-.72-3.08-.72-4.56ZM317.69,30.06c2.73-1.65,3.96-3.45,3.96-6.75,0-1.18-.12-2.92-.33-4.63l1.59-.2c.18,1.82.27,3.36.27,4.67,0,3.95-1.15,5.94-4,7.83l-1.48-.92Z"/>
        <path d="M95.07,51.11l.73-1.18c.8.39,1.64.88,2.29,1.36l-.75,1.25c-.88-.63-1.57-1.06-2.28-1.42ZM95.19,56.33c.96-.97,1.89-2.16,2.62-3.38l.96.99c-.71,1.3-1.59,2.55-2.46,3.51l-1.12-1.12ZM100.26,53.52c-.25.12-.58.24-1.09.39l-.72-1.11c1.39-.33,2.79-.88,4.02-1.59-.36-.29-.72-.62-1.16-1.05-.54.52-1.08.94-1.75,1.33l-.82-.91c1.26-.69,2.4-1.85,3.12-3.18l1.26.36v-.97h-2.91v1.26h-1.46v-1.26h-3.34v-1.17h3.34v-1.4h1.46v1.4h2.91v-1.4h1.46v1.4h3.44v1.17h-3.44v1.02h-1.41l-.3.45h3.3l.71.6c-.61.87-1.35,1.65-2.22,2.36.84.43,2.17.87,3.84,1.26l-.72,1.2c-.34-.09-.76-.21-1.02-.32v4.09h-1.36v-.57h-3.75v.57h-1.37v-3.93ZM96.2,48.53l.81-1.05c.81.5,1.49.99,2.16,1.58l-.9,1.14c-.78-.72-1.47-1.27-2.07-1.67ZM106.38,53.24c-1.2-.41-2.07-.81-2.82-1.27-.88.54-1.56.87-2.55,1.27h5.37ZM105.38,55.77v-1.49h-3.75v1.49h3.75ZM104.88,49.32h-2.82c.35.42.9.9,1.47,1.21.46-.3.94-.75,1.35-1.21Z"/>
        <path d="M114.29,55.59c3.67.01,5.42-.84,5.42-2.29,0-.87-.81-1.62-2.04-1.62-1.65,0-3.41.85-4.35,2.21l-1.21-.69c.53-1.51.98-3.15,1.32-4.71-.93.04-1.8.06-2.67.06l-.13-1.53c1.06.03,2.07.03,3.12-.03.17-.87.3-1.69.39-2.44l1.58.24c-.09.62-.24,1.33-.41,2.1,1.26-.12,2.62-.32,4.25-.6l.19,1.54c-1.81.27-3.38.45-4.78.56-.27,1.08-.56,2.14-.79,2.98,1.09-.71,2.46-1.08,3.64-1.08,2.04,0,3.46,1.21,3.46,3.03,0,2.28-1.8,3.58-6.17,3.75l-.81-1.47Z"/>
        <path d="M124.85,56.24c1.23-2.76,2.1-5.34,2.71-7.93-1.02.08-1.98.12-2.77.15l-.17-1.52c1.04-.03,2.14-.08,3.29-.15.15-.81.3-1.64.42-2.48l1.54.24c-.14.72-.29,1.42-.44,2.12,1.11-.12,2.21-.25,3.27-.46l.24,1.5c-1.18.19-2.53.36-3.85.48-.69,2.92-1.54,5.7-2.71,8.65l-1.53-.6ZM130.08,54.3c0-.56.21-1.23.67-1.89l1.37.44c-.39.45-.57.9-.57,1.21,0,.58.66.92,2.13.92.96,0,1.98-.11,2.79-.29l.3,1.56c-.93.18-2.13.21-2.85.21-2.75,0-3.84-.9-3.84-2.16ZM130.85,49.5c1.71-.29,3.71-.42,5.4-.35l-.19,1.49c-1.63-.09-3.45.03-4.8.27l-.41-1.41Z"/>
        <path d="M141.17,48.83c0-1.29.17-2.5.5-4.14l1.5.36c-.36,1.44-.6,2.98-.6,4.08,0,.3,0,.58.02.84.3-.75.67-1.53.97-2.12l.76,1.04c-.46.76-.78,1.5-.96,2.02-.27.81-.3,1.33-.27,2.07l-1.2.41c-.55-1.58-.72-3.08-.72-4.56ZM143.42,56.31c2.73-1.65,3.96-3.45,3.96-6.75,0-1.18-.12-2.92-.33-4.63l1.59-.2c.18,1.82.27,3.36.27,4.67,0,3.95-1.15,5.94-4,7.83l-1.48-.92Z"/>
        <path d="M157.37,56.34c1.35-.5,2.59-1.43,3.06-2.49-.32.25-.72.41-1.16.41-1.53,0-2.5-1.14-2.5-2.69,0-1.38,1.11-2.35,2.42-2.35.43,0,.87.15,1.16.34l-.04-1.32c-2.28.09-4.63.19-6.66.28l-.1-1.5c1.99-.04,4.39-.1,6.7-.21l-.08-2.43,1.58.04c-.01.74-.01,1.53-.01,2.33,1.41-.08,2.76-.15,3.92-.24l.09,1.49c-1.19.06-2.57.12-4,.18l.04,2.4c.17.52.22,1.18.22,1.83,0,2.08-.78,3.72-3.39,5.03l-1.23-1.09ZM160.32,51.6c0-.66-.43-1.07-.99-1.07-.68,0-1.1.53-1.1,1.16s.41,1.21,1.07,1.21,1.02-.51,1.02-1.3Z"/>
        <path d="M171.05,54.66c0-1.05.95-1.81,2.23-1.81s2.39.72,3.12,2.01c.72-.48,1.19-1.18,1.19-2.03,0-1.05-1.07-1.9-2.79-1.9-1.09,0-2.42.36-3.42.99-.69.43-1.2.85-1.96,1.63l-1.04-1.12c1.65-1.28,4.05-3.39,6.21-5.82-1.21.21-2.73.35-3.99.41l-.27-1.44c1.72-.03,3.61-.15,5.77-.56l.85,1.05c-1.44,1.54-2.56,2.61-3.91,3.83.69-.21,1.33-.3,1.93-.3,2.52,0,4.16,1.33,4.16,3.19,0,2.4-2.4,4.05-5.24,4.05-1.54,0-2.85-.82-2.85-2.17ZM174.05,55.52c.39,0,.75-.04,1.11-.13-.46-.81-1.11-1.26-1.8-1.26-.51,0-.81.25-.81.58,0,.53.66.81,1.5.81Z"/>
        <path d="M188.36,55.49c2.75-.69,4.38-2.37,4.38-4.5s-1.47-3.52-3.6-3.66c-.11,1.69-.38,3.16-.84,4.6-.72,2.25-2,3.48-3.36,3.48s-2.52-1.39-2.52-3.31c0-3.48,2.88-6.21,6.42-6.21,3.25,0,5.49,1.98,5.49,5.08,0,2.68-1.65,4.68-4.74,5.75l-1.23-1.23ZM184.98,53.81c.77,0,1.41-.9,1.88-2.38.41-1.32.65-2.49.74-3.96-2.07.52-3.64,2.42-3.64,4.65,0,.92.49,1.7,1.03,1.7Z"/>
        <path d="M201.5,52.37c-.02-2.2,2.85-2.31,2.85-4.03,0-.84-.78-1.28-1.86-1.28-.79,0-1.77.25-2.71.75l-.09-1.59c1.14-.43,2.24-.67,3.21-.67,1.95,0,3.34.9,3.34,2.47,0,2.75-3.01,2.68-3.1,4.56l-.02.42h-1.6v-.63ZM201.17,55.38c0-.66.49-1.23,1.21-1.23s1.21.57,1.21,1.23-.5,1.21-1.21,1.21-1.21-.56-1.21-1.21Z"/>
      </g>
      <g>
        <path class="cls-1" d="M324.96,180.57c1.98.16,1.35,2.34.38,3.61-.2.27-.59.3-.85.08-1.72-1.47-1.12-3.82.47-3.69Z"/>
        <path class="cls-1" d="M324.85,181.44c-.34,0-.62-.28-.62-.62v-3.92l-.99-1.38c-.2-.28-.14-.67.14-.87.28-.2.67-.14.87.14l1.1,1.54c.08.11.12.23.12.36v4.12c0,.34-.28.62-.62.62Z"/>
        <path class="cls-7" d="M309.68,206.44c1.36-.08,2.68-.26,3.95-.54,9.96-2.2,10.33-7.28,10.2-11.51s-1.05-19.4-13.27-20.23c-12.22-.83-15.37,8.9-17.74,12.05-2.37,3.15-10.98,13.01,5.18,18.52,1.58.54,3.14.95,4.68,1.24"/>
        <polygon class="cls-6" points="321.82 170.55 315.63 169.98 318.38 175.55 324.69 176.22 321.82 170.55"/>
        <rect class="cls-6" x="315.04" y="173.69" width="6.74" height="2.93" transform="translate(177.99 -160.03) rotate(38.45)"/>
        <path class="cls-12" d="M289.11,192.13c5.12.33,8.07,5.74,6.18,11.54-4.99-2.72-7.78-5.48-6.18-11.54Z"/>
        <path class="cls-12" d="M323.31,194.29c-5.9-.82-10.43,4.27-9.51,10.87,6.27-1.75,10.04-4.05,9.51-10.87Z"/>
        <ellipse class="cls-1" cx="301.3" cy="194.47" rx="1.86" ry="1.71" transform="translate(62.32 461.85) rotate(-81.05)"/>
        <path class="cls-1" d="M301.13,184.69c1.67-.68,3.18-.04,3.89,1.27.17.31-.14.57-.47.41-1.05-.53-2.09-.79-3.22-1.01-.38-.07-.52-.54-.2-.67Z"/>
        <path class="cls-1" d="M314.44,187.24c-1.24-1.32-2.88-1.35-4.07-.46-.28.21-.11.58.26.56,1.18-.05,2.23.15,3.35.42.37.09.69-.27.46-.52Z"/>
        <path class="cls-1" d="M309.68,207.05c-.32,0-.58-.25-.6-.57-.02-.33.24-.62.57-.64,1.31-.08,2.61-.25,3.85-.53,9.99-2.21,9.83-7.44,9.72-10.9-.13-4.35-.83-8.12-2.06-11.19-2.12-5.28-5.7-8.12-10.65-8.46-9.8-.66-13.46,5.57-15.88,9.7-.49.84-.91,1.56-1.33,2.11-.12.16-.25.33-.39.51-1.69,2.2-4.83,6.29-3.64,10.22.85,2.82,3.86,5.13,8.92,6.86,1.53.52,3.07.93,4.59,1.21.33.06.54.38.48.71-.06.33-.38.55-.71.48-1.58-.3-3.18-.72-4.76-1.26-5.46-1.86-8.72-4.43-9.69-7.65-1.37-4.52,2.15-9.1,3.84-11.3.14-.18.27-.35.38-.5.38-.5.78-1.2,1.26-2,2.42-4.12,6.46-11.01,17.01-10.29,5.45.37,9.39,3.47,11.69,9.21,1.28,3.2,2.01,7.11,2.15,11.6.15,4.69-.55,9.89-10.67,12.12-1.3.29-2.66.47-4.04.55-.01,0-.02,0-.04,0Z"/>
        <path class="cls-1" d="M300.36,193.83c-.07,0-.13-.02-.19-.07-.77-.61-1.16-1.23-1.45-2.3-.04-.16.05-.33.21-.37.16-.04.33.05.37.21.29,1.08.66,1.53,1.24,1.99.13.1.15.29.05.42-.06.08-.15.11-.24.11Z"/>
        <path class="cls-1" d="M300.16,194.43c-.81,0-1.68-.47-2.38-1.28-.11-.13-.09-.32.03-.43.13-.11.32-.09.43.03.63.74,1.4,1.13,2.08,1.06.16-.02.32.1.33.27s-.1.32-.27.33c-.08,0-.15.01-.23.01Z"/>
        <path class="cls-1" d="M320.16,179.47c-.13,0-.26-.04-.37-.13-.26-.21-.31-.59-.1-.85l2.28-2.89c.13-.16.33-.25.54-.23l1.15.12-2.22-4.37-4.78-.45.68,1.37c.1.2.08.45-.06.63l-1.83,2.43c-.2.27-.58.32-.85.12-.27-.2-.32-.58-.12-.85l1.6-2.13-1-2.01c-.1-.2-.08-.43.04-.61.12-.18.34-.28.55-.26l6.19.58c.21.02.39.14.48.33l2.88,5.66c.1.2.08.43-.04.62-.13.18-.34.28-.56.26l-1.93-.21-2.07,2.62c-.12.15-.3.23-.48.23Z"/>
        <path class="cls-4" d="M310.36,200.26c-.68-1.85-3.69-3.85-5.22-3.63s-4.76,2.08-5.76,2.02-1.7-.74-1.82,1.61,1.72,3.55,4.17,2.69c3.41,1.94,9.79.49,8.63-2.69Z"/>
        <path class="cls-4" d="M310.36,202.36c-.76,2.94-4.99,4.67-6.27,4.24s-3.94-1.64-2.54-4.21c2.53.42,8.05.42,8.16-.8s.64.77.64.77Z"/>
        <path class="cls-1" d="M305.38,204.43c-1.07,0-2.22-.33-3.41-1-2.32.66-3.62.04-4.3-.61-.86-.82-1.18-2.14-.84-3.43.35-1.31.93-1.42,1.84-1.44.65-.02,1.64-.04,3.25-.88,3.58-1.88,5.67-.8,7.71,1.4.2.21.19.55-.03.75s-.55.19-.75-.03c-1.8-1.94-3.44-2.76-6.44-1.18-1.83.96-3.01.99-3.72,1q-.67.02-.84.65c-.24.91-.02,1.85.55,2.4.71.68,1.92.79,3.47.3.14-.04.3-.03.43.05,1.94,1.14,4.71,1.83,6.92-1.39.14-.21.4-.28.64-.19,0,0,.73.29,1.37.44.29.06.47.35.4.63-.06.29-.35.47-.63.4-.42-.09-.85-.23-1.14-.34-1.24,1.64-2.77,2.48-4.47,2.48Z"/>
        <path class="cls-1" d="M304.63,207.14c-.57,0-1.12-.1-1.63-.29-2.62-1.02-2.61-3.62-2.61-3.73,0-.29.24-.52.53-.52h0c.29,0,.53.24.52.54,0,.08.02,1.98,1.94,2.73,1.12.44,2.58.22,3.89-.58,1.45-.88,2.41-2.28,2.56-3.74.03-.29.29-.5.58-.47.29.03.5.29.47.58-.19,1.78-1.33,3.48-3.06,4.54-1.03.63-2.15.95-3.19.95Z"/>
        <path class="cls-1" d="M309.53,196.58c-.15,0-.29-.05-.41-.15-.27-.23-.3-.63-.08-.9.73-.86,1.61-1.32,2.49-1.27.79.04,1.53.49,2.06,1.26.2.29.13.69-.16.89-.29.2-.69.13-.89-.16-.21-.31-.57-.68-1.07-.71-.47-.02-.99.27-1.45.82-.13.15-.31.23-.49.23Z"/>
        <path class="cls-1" d="M312.6,195.48c-.15,0-.28-.11-.3-.26-.02-.17.09-.32.26-.34.71-.1,1.53-.71,1.99-1.49.09-.14.27-.19.41-.11.14.09.19.27.11.41-.56.94-1.53,1.66-2.43,1.78-.01,0-.03,0-.04,0Z"/>
        <path class="cls-1" d="M314.03,196.05c-.39,0-.8-.07-1.19-.25-.15-.07-.22-.25-.15-.4.07-.15.25-.22.4-.15.91.42,1.95.09,2.65-.26.15-.07.33-.01.4.14.07.15.01.33-.14.41-.54.26-1.24.52-1.98.52Z"/>
      </g>
    </g>
  </g>
</svg>