<?xml version="1.0" encoding="UTF-8"?>
<svg id="_レイヤー_2" data-name="レイヤー 2" xmlns="http://www.w3.org/2000/svg" width="339.72" height="218.25" viewBox="0 0 339.72 218.25">
  <defs>
    <style>
      .cls-1 {
        fill: #211815;
      }

      .cls-2 {
        fill: #f5f19b;
      }

      .cls-3 {
        fill: #e0a99c;
      }

      .cls-4 {
        fill: #ecbb6e;
      }

      .cls-5 {
        fill: #93c9ce;
      }

      .cls-6 {
        fill: #5c948d;
      }

      .cls-7 {
        fill: #fffba1;
      }

      .cls-8, .cls-9 {
        fill: #fff;
      }

      .cls-10 {
        fill: #d3f2c9;
      }

      .cls-11 {
        fill: #de8a4c;
      }

      .cls-12 {
        fill: #ceeaeb;
      }

      .cls-13 {
        fill: #f2d496;
      }

      .cls-9 {
        stroke: #ceeaeb;
        stroke-miterlimit: 10;
        stroke-width: 2.83px;
      }
    </style>
  </defs>
  <g id="_レイヤー_1-2" data-name="レイヤー 1">
    <g>
      <g>
        <circle class="cls-12" cx="30" cy="59.77" r="30"/>
        <path class="cls-8" d="M38.96,49.33c5.99-4.81,10.66-4.4,11.63-2.77.89,1.5-.2,9.39-9.11,4.98"/>
        <path class="cls-5" d="M43.2,51.91c2.15-3.69,6.52-2.97,7.64-2.44-1.95,3.62-3.96,4.96-7.64,2.44Z"/>
        <path class="cls-1" d="M46.19,53.48c-1.31,0-2.94-.38-4.99-1.39-.3-.15-.42-.51-.28-.82.15-.3.52-.42.82-.28,3.32,1.64,5.84,1.68,7.29.12,1.3-1.4,1.35-3.69,1.02-4.24-.21-.35-.72-.62-1.4-.75-.91-.16-4.27-.39-9.33,3.68-.26.21-.65.17-.86-.09-.21-.26-.17-.65.09-.86,3.68-2.96,7.53-4.43,10.31-3.92,1.04.19,1.83.66,2.23,1.32.64,1.09.43,3.95-1.18,5.69-.75.81-1.93,1.54-3.74,1.54Z"/>
        <path class="cls-8" d="M44.44,63.56c1.64-16.82-17.11-22.8-25.64-13.47-2.97,3.25-5.19,9.02-4.06,15.77-3.29,3.25-2.73,7.92,2.42,10.46,3.1,1.53,6.19,2.19,13.34,2.19,6.63,0,14.3-2.8,16.45-6.93,1.2-2.31.78-5.72-2.5-8.03Z"/>
        <path class="cls-2" d="M34.22,45.93c-.6-4.19-4.15-6.52-4.34-.47"/>
        <path class="cls-2" d="M22.54,46.99c-.51-4.2,2.31-7.38,4.07-1.58"/>
        <path class="cls-8" d="M18.08,50.05c-6.66-3.82-11.21-2.69-11.91-.92-.65,1.62,2.36,9.82,10.47,4.08"/>
        <ellipse class="cls-1" cx="33.71" cy="65.5" rx="1.44" ry="1.56" transform="translate(-9.78 6.04) rotate(-8.95)"/>
        <path class="cls-5" d="M14.81,53.87c-2.15-3.69-7.03-2.78-8.16-2.25,1.95,3.62,4.47,4.77,8.16,2.25Z"/>
        <path class="cls-5" d="M27.64,45.45c1.23,7.46-2.33,14.45-12.53,14.45,0-11.42,12.53-14.45,12.53-14.45Z"/>
        <path class="cls-5" d="M29.88,45.46c0,8.41,6.81,12.72,13.84,13.25,0-11.42-13.84-13.25-13.84-13.25Z"/>
        <path class="cls-5" d="M13.66,72.32c13.81-6.39,25.45-3.61,33.28-.74-3.13,7.57-29.25,10.15-33.28.74Z"/>
        <path class="cls-1" d="M30.5,79.13c-7.59,0-10.64-.79-13.61-2.26-2.68-1.33-4.37-3.31-4.74-5.59-.32-1.98.37-3.96,1.94-5.63-1.1-7.13,1.47-12.92,4.26-15.97,4.25-4.65,11.25-5.93,17.42-3.18,3.01,1.34,5.47,3.51,7.11,6.28,1.79,3.02,2.53,6.54,2.2,10.49,3.38,2.56,3.63,6.22,2.4,8.6-2.36,4.54-10.49,7.26-16.99,7.26ZM29.12,46.28c-3.76,0-7.35,1.46-9.87,4.22-2.64,2.89-5.06,8.42-3.91,15.26.03.2-.03.39-.17.53-1.44,1.42-2.08,3.13-1.81,4.79.3,1.88,1.75,3.54,4.07,4.69,2.8,1.38,5.71,2.13,13.07,2.13,6.88,0,14.01-2.96,15.91-6.6,1.03-1.98.75-5.1-2.31-7.25-.18-.13-.28-.34-.26-.56.71-7.25-2.49-13.19-8.56-15.89-2.01-.89-4.11-1.33-6.15-1.33Z"/>
        <ellipse class="cls-1" cx="33.71" cy="65.5" rx="1.44" ry="1.56" transform="translate(-9.78 6.04) rotate(-8.95)"/>
        <ellipse class="cls-1" cx="26.04" cy="65.86" rx="1.56" ry="1.44" transform="translate(-41.06 88.53) rotate(-87.1)"/>
        <path class="cls-1" d="M11.43,55.84c-1.46,0-2.58-.54-3.4-1.18-2.09-1.64-2.9-4.58-2.43-5.75.29-.72.99-1.3,1.99-1.65,2.66-.93,6.69-.08,10.79,2.27.29.17.39.54.22.83-.17.29-.54.39-.83.22-5.62-3.23-8.91-2.48-9.78-2.18-.65.23-1.11.57-1.26.95-.21.53.31,2.97,2.06,4.35,1.89,1.49,4.48,1.14,7.49-.99.27-.19.65-.13.85.15.19.27.13.65-.15.85-2.23,1.58-4.07,2.14-5.55,2.14Z"/>
        <path class="cls-1" d="M34.22,46.54c-.3,0-.56-.22-.6-.52-.32-2.23-1.48-3.66-2.12-3.62-.31.02-.93.69-1,3.09-.01.34-.3.59-.63.59-.34-.01-.6-.29-.59-.63.11-3.61,1.4-4.22,2.15-4.27.03,0,.06,0,.09,0,1.46,0,2.94,2.06,3.31,4.67.05.33-.18.64-.52.69-.03,0-.06,0-.09,0Z"/>
        <path class="cls-1" d="M22.54,47.6c-.3,0-.57-.23-.6-.54-.32-2.66.61-5.08,2.07-5.39.74-.15,2.14.1,3.19,3.56.1.32-.08.66-.41.76-.32.1-.66-.08-.76-.41-.7-2.3-1.46-2.78-1.77-2.72-.62.13-1.38,1.81-1.11,4.05.04.33-.2.64-.53.68-.02,0-.05,0-.07,0Z"/>
        <path class="cls-1" d="M34.97,57.03c-.65-1.09-1.64-1.26-2.41-.7-.18.13-.11.42.12.44.71.07,1.33.3,1.98.61.22.1.44-.14.31-.35Z"/>
        <path class="cls-1" d="M24.07,57.44c.65-1.09,1.64-1.26,2.41-.7.18.13.11.42-.12.44-.71.07-1.33.3-1.98.61-.22.1-.44-.14-.31-.35Z"/>
        <circle class="cls-1" cx="31.35" cy="71.44" r=".57"/>
        <circle class="cls-1" cx="29.57" cy="71.44" r=".57"/>
        <path class="cls-3" d="M25.95,74.56c.25-1.57,1.68-1.55,4.29-1.21s2.12,2.61.35,2.57c-1.78-.05-4.93.49-4.64-1.36Z"/>
        <path class="cls-1" d="M28.41,76.58c-1.13,0-2.16-.12-2.72-.76-.22-.25-.45-.68-.34-1.35h0c.37-2.33,2.82-2.01,4.98-1.72,1.72.23,2.42,1.24,2.35,2.14-.08.97-.98,1.69-2.1,1.65-.33,0-.71,0-1.11.02-.35.01-.7.02-1.05.02ZM28.04,73.78c-1.11,0-1.39.29-1.48.88h0c-.04.24.03.31.05.34.35.4,1.83.35,2.81.32.42-.01.83-.03,1.19-.02.53.02.82-.26.84-.52.02-.31-.37-.7-1.28-.82-.92-.12-1.61-.18-2.12-.18ZM25.95,74.56h0,0Z"/>
      </g>
      <path class="cls-9" d="M9.95,107.66h239.38c4.68,0,8.47,3.79,8.47,8.47v68.65s9.69,9.69,9.69,9.69h-9.69s0,.5,0,.5c0,4.68-3.79,8.47-8.47,8.47H9.95c-4.68,0-8.47-3.79-8.47-8.47v-78.84c0-4.68,3.79-8.47,8.47-8.47Z"/>
      <g>
        <path d="M19.13,132.84c0-.97.54-1.95,1.74-2.78-1.96.29-3.99.54-5.83.78l-.2-1.47c.55-.01,1.27-.08,2.07-.13,1.69-.99,3.57-2.4,4.87-3.51-1.63.25-2.92.36-4.06.4l-.25-1.44c1.74-.03,3.4-.11,5.86-.46l1.14.9c-.96,1.08-3.06,2.59-5.03,3.86,2.67-.29,5.59-.68,7.26-.99l.27,1.51c-1.23-.01-2.42.11-3.39.44-1.65.55-2.95,1.72-2.95,2.89,0,1.25,1.5,1.93,3.99,2.05l-.5,1.49c-2.91-.2-4.99-1.44-4.99-3.54Z"/>
        <path d="M33.21,135.36c1.84-.72,2.59-1.23,3.33-2.01.67-.72,1.26-1.88,1.26-2.96,0-1.47-.98-1.99-1.91-1.99-.5,0-.97.07-2.21.4-1.12.3-1.69.46-2.61.72l-.44-1.47c.92-.22,1.49-.38,2.54-.63,1.39-.34,2.13-.48,2.94-.48,1.77,0,3.36.99,3.36,3.21,0,1.89-.79,3.13-1.56,4.03-.81.95-1.95,1.68-3.45,2.27l-1.26-1.1ZM32.82,124.89l.57-1.33c1.5.27,2.91.57,4.54,1.35l-.63,1.38c-1.46-.72-3-1.09-4.49-1.4Z"/>
        <path d="M48.54,134.48c0-.66.49-1.23,1.21-1.23s1.21.57,1.21,1.23-.5,1.21-1.21,1.21-1.21-.55-1.21-1.21ZM48.87,124.79h1.76l-.09,7.33h-1.56l-.11-7.33Z"/>
        <path d="M59.79,133.7c0-1.09,1.11-2.11,2.86-2.11.44,0,.9.03,1.32.09l-.04-1.16c0-.08-.01-.15-.01-.24-.36.02-.68.03-.96.03-1.71,0-2.53-.38-2.53-1.2,0-.46.29-1.08.94-1.84l.99.57c-.36.36-.5.6-.5.76,0,.36.5.42,1.23.42.19,0,.45-.01.75-.03l-.09-2c-.56.01-1.1.03-1.65.03-1.04,0-1.95-.01-2.85-.07l-.06-1.49c1.16.08,2.27.11,3.32.11.42,0,.82,0,1.23-.02,0-.67-.01-1.39,0-2l1.61.08c-.04.56-.08,1.19-.08,1.83,1.29-.09,2.55-.27,3.79-.52l.18,1.47c-1.21.22-2.58.39-3.99.5l.05,1.92c.97-.14,2.1-.38,3.18-.75l.39,1.44c-1.14.32-2.4.53-3.51.65,0,.13.01.25.01.38.03.48.06.99.08,1.45,1.32.41,2.75,1.07,4.05,1.92l-.85,1.32c-1.17-.79-2.22-1.37-3.12-1.72v.08c0,1.68-1.09,2.35-2.7,2.35-1.81,0-3.03-.76-3.03-2.24ZM62.64,134.52c.85,0,1.37-.29,1.37-1.09v-.36c-.48-.1-.95-.15-1.21-.15-.84,0-1.47.31-1.47.81s.48.79,1.32.79Z"/>
        <path d="M73.43,126.98c1.74-.06,3.36-.17,4.9-.33-.36-.82-.66-1.71-.91-2.67l1.54-.35c.16.92.48,1.89.88,2.82,1.33-.18,2.62-.44,3.85-.75l.33,1.47c-1.05.25-2.24.48-3.51.67.81,1.5,1.83,2.8,2.77,3.53l-.93,1.21c-.5-.41-.96-.66-1.68-.88-.79-.26-1.47-.35-2.25-.35-1.7,0-2.55.77-2.55,1.56,0,1.11,1.5,1.56,3.71,1.56.84,0,1.74-.06,2.41-.15l.15,1.46c-.67.09-1.83.15-2.64.15-3.21,0-5.16-.96-5.16-2.96,0-1.62,1.65-2.91,4.08-2.91.71,0,1.46.14,2.13.35-.58-.74-1.11-1.52-1.56-2.37-1.73.21-3.57.36-5.42.43l-.17-1.5Z"/>
        <path d="M88.02,131c0-1.42.32-3.93.86-6.79l1.53.24c-.6,2.89-.92,5.41-.92,6.58,0,.47.03,1,.11,1.46.24-.76.62-1.65.9-2.19l.9.9c-.46.93-.67,1.53-.84,2.1-.2.69-.3,1.36-.24,1.99l-1.18.5c-.62-1.21-1.11-2.82-1.11-4.78ZM92.37,132.63c0-.65.27-1.37.99-2.17l1.42.48c-.69.6-.92,1.08-.92,1.46,0,.75.63,1.19,2.29,1.19.66,0,1.63-.09,2.59-.32l.3,1.56c-1.04.17-2.07.21-2.7.21-2.71,0-3.99-.72-3.99-2.4ZM92.54,125.73c1.68.03,4.29-.12,6-.39l.18,1.5c-1.72.27-4.32.44-6.04.39l-.14-1.5Z"/>
        <path d="M108.39,127.17c0-1.14.83-2.42,1.79-3.15h1.39c-.96.79-1.86,1.98-1.75,2.86.78.04,1.37.42,1.37,1.05s-.51,1.11-1.18,1.11c-.95,0-1.61-.76-1.61-1.88ZM111.71,127.17c0-1.14.83-2.42,1.79-3.15h1.4c-.96.79-1.86,1.98-1.75,2.86.78.04,1.36.42,1.36,1.05s-.51,1.11-1.18,1.11c-.95,0-1.61-.76-1.61-1.88Z"/>
        <path d="M115.94,134.99c3.87-1.78,5.62-4.93,5.62-10.02v-1.2h1.65v1.14c0,4.29,1.88,7.48,5.76,9.76l-1.05,1.41c-2.54-1.53-4.71-4.29-5.42-6.88-.58,3.03-2.65,5.7-5.49,7.12l-1.08-1.33Z"/>
        <path d="M130.55,127.37c1.09-1.07,1.93-2.5,2.42-4.11l1.48.23c-.12.42-.21.69-.39,1.08h8.37v1.2h-8.92c-.55,1.04-1.23,1.94-1.99,2.67l-.96-1.06ZM130.82,135.26c1.59-.5,2.85-1.21,3.87-2.19-1.16-.76-1.94-1.21-2.88-1.65l.92-.98c.97.47,1.92.99,2.89,1.59.48-.6.92-1.33,1.23-2.13l1.38.56c-.36.81-.81,1.56-1.42,2.37.97.64,1.69,1.2,2.61,1.98l-1.04,1.17c-.72-.67-1.5-1.32-2.5-2.08-1.26,1.18-2.58,1.98-4.2,2.54l-.86-1.17ZM140.45,135.12c-.51-1.07-.75-2.72-.75-5.37h-8.64v-1.19h10.08c.02,2.91.11,4.28.38,5.21.15.46.27.71.36.71.15,0,.32-.69.5-2.08l1.21.92c-.41,2.33-.87,3.22-1.67,3.22-.54,0-1.04-.46-1.47-1.41ZM133.07,126.57h8.08v1.15h-8.08v-1.15Z"/>
        <path d="M151.25,134.58c2.75-.69,4.38-2.37,4.38-4.5s-1.47-3.53-3.6-3.66c-.11,1.7-.38,3.17-.84,4.6-.72,2.25-2,3.48-3.36,3.48s-2.52-1.4-2.52-3.32c0-3.48,2.88-6.21,6.42-6.21,3.25,0,5.49,1.98,5.49,5.08,0,2.69-1.65,4.68-4.74,5.75l-1.23-1.23ZM147.87,132.9c.77,0,1.41-.9,1.88-2.38.41-1.32.65-2.49.74-3.96-2.07.53-3.64,2.42-3.64,4.65,0,.92.49,1.69,1.03,1.69Z"/>
        <path d="M164.52,134.61c-.79.6-1.61.96-2.42.96-1.32,0-2.1-.96-2.1-2.35,0-1.29.66-2.55,1.74-3.51.53-.48,1.14-.87,1.79-1.14.01-.49.04-1.11.11-1.77-1.14.06-2.18.09-2.92.09l-.08-1.36c.81.03,1.9,0,3.12-.06.06-.69.15-1.38.24-1.98l1.53.21c-.12.52-.23,1.09-.32,1.68,1.4-.12,2.87-.29,4.14-.53l.11,1.38c-1.35.21-2.92.36-4.42.48-.06.52-.11,1.04-.13,1.47.71-.15,1.48-.22,2.31-.21.08-.34.11-.63.15-.97l1.41.21c-.04.31-.1.62-.18.92,1.83.42,3.11,1.72,3.11,3.42,0,1.9-.96,3.67-4.19,4.69l-1.11-1.11c2.85-.84,3.76-2.13,3.76-3.56,0-1.08-.76-1.89-1.92-2.23-.57,1.58-1.53,3.21-2.55,4.32.13.27.27.54.43.79l-1.18,1.02c-.15-.27-.29-.56-.42-.86ZM162.24,134.15c.54,0,1.19-.3,1.82-.87-.27-.9-.47-2.08-.53-3.3-.33.2-.69.48-1.04.83-.54.54-1.04,1.35-1.04,2.24,0,.75.33,1.11.78,1.11ZM165.2,132.2c.66-.82,1.29-1.93,1.7-3.03-.74,0-1.41.08-2.01.25.02.95.09,1.91.32,2.77Z"/>
        <path d="M177.32,133.76c0-1.05.95-1.82,2.23-1.82s2.39.72,3.12,2.01c.72-.48,1.19-1.18,1.19-2.02,0-1.05-1.07-1.91-2.79-1.91-1.09,0-2.42.36-3.42.99-.69.43-1.2.86-1.96,1.63l-1.04-1.12c1.65-1.27,4.05-3.39,6.21-5.82-1.21.21-2.73.34-3.99.41l-.27-1.44c1.72-.03,3.61-.15,5.77-.55l.85,1.05c-1.44,1.54-2.56,2.61-3.91,3.83.69-.21,1.33-.3,1.93-.3,2.52,0,4.16,1.33,4.16,3.2,0,2.4-2.4,4.05-5.24,4.05-1.54,0-2.85-.83-2.85-2.17ZM180.32,134.61c.39,0,.75-.04,1.11-.13-.46-.81-1.11-1.26-1.8-1.26-.51,0-.81.25-.81.58,0,.52.66.81,1.5.81Z"/>
        <path d="M189.18,129.9c0-.52.38-1.26,1.02-1.92l1.05.51c-.4.36-.64.67-.64.88,0,.33.43.48,1.5.48h.22c.06-.36.11-.73.17-1.14.06-.45.13-.93.2-1.42-1-.01-2.01-.08-2.9-.2l-.07-1.42c1.05.15,2.11.24,3.15.24.12-.93.24-1.8.3-2.43l1.56.21c-.11.52-.24,1.32-.38,2.17.92-.04,1.83-.15,2.74-.32l.09,1.42c-.89.15-2.04.25-3.06.29-.07.53-.13,1.02-.19,1.47-.04.38-.09.72-.12,1.04,1.06-.1,2.17-.3,3.03-.57l.33,1.41c-1.11.24-2.37.39-3.51.46-.04.56-.08.96-.08,1.22,0,1.38.62,2.16,2.07,2.14,1.54-.01,2.92-1.09,2.92-2.89,0-.93-.33-1.68-.93-2.69l1.56-.06c.66,1.09.88,2.17.88,2.94,0,2.66-1.84,4.2-4.47,4.2-2.43,0-3.54-1.21-3.54-3.33,0-.34.03-.84.09-1.46h-.36c-1.96,0-2.64-.55-2.64-1.25Z"/>
        <path d="M209.09,134.58c2.75-.69,4.38-2.37,4.38-4.5s-1.47-3.53-3.6-3.66c-.11,1.7-.38,3.17-.84,4.6-.72,2.25-2,3.48-3.36,3.48s-2.52-1.4-2.52-3.32c0-3.48,2.88-6.21,6.42-6.21,3.25,0,5.49,1.98,5.49,5.08,0,2.69-1.65,4.68-4.74,5.75l-1.23-1.23ZM205.71,132.9c.77,0,1.41-.9,1.88-2.38.41-1.32.65-2.49.74-3.96-2.07.53-3.64,2.42-3.64,4.65,0,.92.49,1.69,1.03,1.69Z"/>
        <path d="M218.4,131.03c0-1.33.3-3.96.84-6.81l1.53.27c-.65,2.92-.95,5.56-.95,6.67,0,.46.03.97.09,1.44.24-.76.54-1.47.87-2.19l.9.9c-.45.93-.65,1.47-.79,2.03-.23.84-.3,1.27-.29,1.95l-1.19.5c-.63-1.36-1.02-2.73-1.02-4.75ZM222.17,133.47c0-1.05.86-2.04,2.55-2.04.42,0,.87.04,1.32.12l-.04-1.17c-.04-.64-.08-1.38-.09-2.07-1.19.08-2.37.11-3.38.11l-.11-1.5c1.07.01,2.26-.01,3.46-.09,0-.84-.01-1.58.03-2.79l1.58.04c-.08,1.02-.11,1.83-.14,2.61.79-.08,1.54-.18,2.24-.32l.15,1.51c-.72.12-1.53.23-2.39.3.02.78.03,1.49.06,2.16.01.6.04,1.14.06,1.59.86.32,1.71.78,2.54,1.4l-.87,1.38c-.55-.53-1.11-.92-1.65-1.2-.12,1.46-1.1,2.19-2.71,2.19-1.5,0-2.61-.86-2.61-2.24ZM224.75,134.36c.81,0,1.35-.39,1.33-1.21v-.2c-.45-.13-.88-.21-1.25-.21-.88,0-1.26.36-1.26.81,0,.5.43.81,1.17.81Z"/>
        <path d="M231.83,124.68h5.47v-1.36h1.53v1.36h5.56v1.16h-12.57v-1.16ZM232.23,129.9h11.76v5.31c0,.87-.41,1.2-1.44,1.2-.58,0-1.33-.03-1.86-.07l-.26-1.38c.56.09,1.17.13,1.65.13.39,0,.48-.09.48-.44v-3.61h-8.91v5.5h-1.42v-6.65ZM234.21,126.48h7.8v2.79h-7.8v-2.79ZM235.07,131.66h5.97v3h-4.61v.72h-1.36v-3.72ZM240.59,128.25v-.76h-4.95v.76h4.95ZM239.67,133.59v-.92h-3.24v.92h3.24Z"/>
        <path d="M18.21,158.12c-1.21-.81-1.58-1.22-1.58-1.89,0-.63.53-1.11,1.72-2.07,1.56-1.25,2.9-2.42,4.32-4.12l1.35,1.02c-1.56,1.75-2.61,2.58-4.36,3.93-1,.77-1.29,1.04-1.29,1.26,0,.28.18.43,1.29,1.12,1.81,1.12,3.06,1.9,5.2,3.93l-1.18,1.18c-1.93-1.95-3.25-2.88-5.47-4.36Z"/>
        <path d="M29.39,158.84c1.35-2.04,2.19-3.66,2.8-5.29-.99.09-1.93.15-2.67.17l-.19-1.42c1-.02,2.19-.08,3.38-.2.22-.76.45-1.56.66-2.43l1.53.38c-.2.66-.38,1.27-.57,1.86.89-.12,1.73-.27,2.42-.45l.27,1.42c-.78.18-1.95.36-3.18.51-.73,2.04-1.6,3.92-3.03,6.27l-1.41-.81ZM32.46,160.14c0-1.14,1.06-2.05,2.67-2.05.36,0,.75.03,1.14.09-.03-.5-.06-1.08-.06-1.37,0-.42.06-1.15.51-1.92l1.33.77c-.29.58-.33.99-.33,1.41,0,.47.03.9.04,1.43,1.07.34,2.16.88,3.15,1.47l-.72,1.3c-.78-.55-1.58-1.02-2.35-1.35v.24c0,1.4-1,2.25-2.58,2.25-1.39,0-2.8-.71-2.8-2.26ZM35.25,160.98c.69,0,1.11-.31,1.11-.94,0-.12,0-.29-.01-.48-.34-.09-.69-.13-1-.13-.79,0-1.33.29-1.33.76,0,.53.55.79,1.25.79ZM37.52,153.77l.67-1.2c1.37.52,2.46,1.14,3.48,2.13l-.82,1.18c-1.16-1.07-2.04-1.59-3.33-2.12Z"/>
        <path d="M46.8,160.01c0-1.05.95-1.82,2.23-1.82s2.39.72,3.12,2.01c.72-.48,1.19-1.18,1.19-2.02,0-1.05-1.07-1.91-2.79-1.91-1.1,0-2.42.36-3.42.99-.69.43-1.2.86-1.96,1.63l-1.04-1.12c1.65-1.27,4.05-3.39,6.21-5.82-1.21.21-2.73.34-3.99.41l-.27-1.44c1.72-.03,3.61-.15,5.77-.55l.85,1.05c-1.44,1.54-2.56,2.61-3.91,3.83.69-.21,1.33-.3,1.93-.3,2.52,0,4.16,1.33,4.16,3.2,0,2.4-2.4,4.05-5.24,4.05-1.54,0-2.85-.83-2.85-2.17ZM49.8,160.86c.39,0,.75-.04,1.11-.13-.46-.81-1.11-1.26-1.8-1.26-.51,0-.81.25-.81.58,0,.52.66.81,1.5.81Z"/>
        <path d="M59.06,152.42c-.78-.03-1.37-.41-1.37-1.04s.51-1.11,1.19-1.11c.94,0,1.6.76,1.6,1.86s-.83,2.42-1.79,3.17h-1.39c.96-.81,1.86-1.98,1.75-2.88ZM62.37,152.42c-.78-.03-1.36-.41-1.36-1.04s.51-1.11,1.18-1.11c.95,0,1.61.76,1.61,1.86s-.83,2.42-1.79,3.17h-1.4c.96-.81,1.86-1.98,1.75-2.88Z"/>
        <path d="M77.57,160.52c2.99-.32,4.59-1.38,4.59-2.88,0-.95-.64-1.84-1.92-1.84-.67,0-1.5.18-2.46.38-.95.19-2.23.5-3.21.73l-.4-1.41c.96-.21,2.08-.44,3.28-.68,1.05-.21,2.05-.39,2.85-.39,2.17,0,3.42,1.37,3.42,3.13,0,2.31-1.8,3.76-5.28,4.29l-.87-1.33Z"/>
        <path d="M91.62,157.68c0-1.67,1.05-3.22,3.02-4.56-2.88.27-4.68.42-6.81.58l-.19-1.58c3.12-.12,7.92-.41,11.43-.97l.3,1.53c-2.08.29-2.79.51-4,1.47-1.38,1.08-2.21,2.19-2.21,3.55,0,1.71,1.37,2.59,4.04,2.94l-.67,1.46c-2.99-.42-4.89-1.86-4.89-4.42Z"/>
        <path d="M103.35,158.81c-.33-1.06-.55-2.97-.55-4.71,0-.75.03-1.81.09-2.75l1.59.33c-.09,1.02-.13,1.92-.13,2.88,0,1.64.17,2.81.43,3.67.32,1.02.76,1.64,1.2,1.64.48,0,1.11-1.04,1.51-2.94l1.32,1.11c-.63,2.37-1.7,3.51-2.8,3.51-1.21,0-2.13-1.07-2.66-2.75ZM110.21,153.15l1.14-1.02c1.8,1.65,2.32,3.67,2.71,6.52l-1.54.48c-.35-2.66-.9-4.77-2.31-5.98Z"/>
        <path d="M120.35,161.61c1.84-.72,2.59-1.23,3.33-2.01.67-.72,1.26-1.88,1.26-2.96,0-1.47-.98-1.99-1.91-1.99-.5,0-.97.07-2.21.4-1.12.3-1.69.46-2.61.72l-.44-1.47c.92-.22,1.49-.38,2.54-.63,1.39-.34,2.13-.48,2.94-.48,1.77,0,3.36.99,3.36,3.21,0,1.89-.79,3.13-1.56,4.03-.81.95-1.95,1.68-3.45,2.27l-1.26-1.1ZM119.96,151.14l.57-1.33c1.5.27,2.91.57,4.54,1.35l-.63,1.38c-1.46-.72-3-1.09-4.49-1.4Z"/>
        <path d="M129.92,159.72l1.3-1.12c.92.78,1.98,2,2.77,3.13l-1.41,1.25c-.69-1.16-1.64-2.29-2.67-3.25Z"/>
        <path d="M145.35,159.14c2.17-.93,4.33-2.45,5.92-4.6-1.93.01-3.78.01-5.52.01l-.03-1.44c2.16.03,4.33.03,6.52,0l-.04-3.08h1.51c.02,1.05.02,2.07.03,3.06,1.25-.03,2.49-.06,3.75-.1l.04,1.44c-1.3.03-2.56.04-3.78.08.01,1.59.04,3.19.07,4.92.02.73.02.92.02,1.14,0,1.05-.42,1.54-1.58,1.54-.51,0-1.35-.03-2.19-.15l-.19-1.61c.81.18,1.46.22,1.84.22s.6-.16.6-.52v-1.26s-.06-3.3-.06-3.3c-1.53,2.1-3.55,3.82-5.82,4.89l-1.11-1.25Z"/>
        <path d="M159.81,155.43l11.97-.08.03,1.5-11.97.08-.03-1.5Z"/>
        <path d="M176.75,161.43c3.66-1.75,5.8-4.56,6.74-7.9-1.47.04-2.96.06-4.1.06-.82,1.42-1.81,2.66-3.01,3.67l-1.46-.78c2.08-1.78,3.51-3.93,4.35-6.37l1.56.4c-.21.56-.43,1.11-.67,1.64,1.17-.02,2.54-.05,4.23-.09l.96.77c-1.2,4.71-3.39,7.6-7.21,9.73l-1.38-1.12Z"/>
        <path d="M189.17,155.36l.79-1.3c1.22.57,2.07,1.07,3.18,1.95l-.93,1.3c-1.09-.9-2.04-1.46-3.04-1.95ZM190.46,160.82c3.66-.87,6.92-2.85,9.1-7.87l1.2,1.44c-2.44,4.93-5.67,6.94-9.61,7.95l-.69-1.52ZM191.21,152.15l.84-1.25c1.14.57,2.07,1.12,3.13,2.01l-.99,1.26c-1.07-.93-1.88-1.44-2.99-2.02Z"/>
        <path d="M205.25,159.87c2.19,0,4.41-.02,6.17-.04,0-.53.01-1.05.01-1.56-1.89.01-4.21.04-5.77.06l-.03-1.29c1.58,0,3.93-.02,5.82-.04v-1.47c-2.1.03-4.32.08-6.2.11l-.03-1.3c1.64,0,4.12-.03,7.65-.09-.03,2.5-.04,5.13-.03,7.63h-1.44v-.72c-1.92.01-4.1.03-6.12.06l-.03-1.33Z"/>
        <path d="M218.63,152.82l.9-1.29c1.3.67,2.17,1.21,3.51,2.28l-.96,1.32c-1.18-1.02-2.29-1.75-3.45-2.31ZM219.23,160.26c3.96-.99,7.03-3.29,9.07-7.54l1.16,1.47c-2.28,4.12-5.04,6.44-9.41,7.62l-.82-1.54Z"/>
        <path d="M238.01,160.83c2.75-.69,4.38-2.37,4.38-4.5s-1.47-3.53-3.6-3.66c-.11,1.7-.38,3.17-.84,4.6-.72,2.25-2,3.48-3.36,3.48s-2.52-1.4-2.52-3.32c0-3.48,2.88-6.21,6.42-6.21,3.25,0,5.49,1.98,5.49,5.08,0,2.69-1.65,4.68-4.74,5.75l-1.23-1.23ZM234.63,159.15c.77,0,1.41-.9,1.88-2.38.41-1.32.65-2.49.74-3.96-2.07.53-3.64,2.42-3.64,4.65,0,.92.49,1.69,1.03,1.69Z"/>
        <path d="M16.02,182.07c-.36.66-.76,1.23-1.26,1.87l-.69-1.42c1.32-1.72,2.41-4.06,3-6.49l1.47.33c-.32,1.14-.62,2.01-1.05,2.98v9.6h-1.47v-6.87ZM18.42,187.04h3.4v-5.55h-3.72v-1.38h3.72v-3.88h1.53v3.88h3.85v1.38h-3.85v5.55h3.46v1.38h-8.4v-1.38Z"/>
        <path d="M31.17,183.11c-1.09.11-1.65.17-2.25.2l-.32-1.35,1.33-.04c.29-.33.5-.62.81-.99-.66-.95-1.29-1.71-1.92-2.31l.84-.99.51.57c.55-.73,1.05-1.54,1.5-2.43l1.21.66c-.66,1.02-1.27,1.84-2,2.61l.63.84c.58-.78,1.22-1.7,1.7-2.45l1.17.74c-.99,1.39-1.95,2.56-3.04,3.72.74-.03,1.35-.08,1.94-.13-.15-.42-.21-.57-.48-1.14l1.07-.39c.43.83.85,1.83,1.15,2.87l-1.18.52c-.06-.27-.12-.52-.23-.83-.3.08-.66.12-1.14.18v6.09h-1.3v-5.94ZM28.71,187.46c.33-1.02.57-2.25.66-3.51l1.25.18c-.14,1.71-.33,2.98-.63,3.96l-1.27-.63ZM32.73,184.14l1.12-.38c.34.76.6,1.62.81,2.66l-1.25.51c-.18-1.17-.41-2.1-.69-2.79ZM33.96,187.35h1.35v-10.74h5.35v10.74h1.32v1.3h-8.02v-1.3ZM39.35,180.15v-2.28h-2.71v2.28h2.71ZM39.35,183.65v-2.28h-2.71v2.28h2.71ZM39.35,187.35v-2.47h-2.71v2.47h2.71Z"/>
        <path d="M43.53,184.46c0-1,.49-1.73,1.48-2.24.84-.43,1.75-.64,3.15-.67.4-.97.84-2.14,1.17-3.13-.98.2-2.4.38-3.38.42l-.38-1.44c1.92-.07,3.24-.28,4.5-.58l1.08.63c-.55,1.68-1.06,3-1.57,4.18,1.02.1,2.05.31,3.06.62.13-.83.21-1.71.24-2.62l1.46.38c-.04.96-.14,1.88-.29,2.73.97.39,1.84.84,2.58,1.33l-.84,1.26c-.62-.45-1.32-.85-2.07-1.18-.51,1.72-1.46,3.24-3.22,4.53l-1.47-.81c1.82-1.11,2.78-2.55,3.3-4.26-1.12-.38-2.27-.62-3.32-.71-1.27,2.64-2.21,3.87-3.55,3.87-1.26,0-1.93-1.08-1.93-2.29ZM45.63,185.28c.52,0,1.21-.97,1.93-2.44-.6.04-1.15.18-1.59.39-.62.29-.97.69-.97,1.2,0,.45.21.85.63.85Z"/>
        <path d="M59.57,185.25c0-1.32,1-2.5,2.88-3.69-.61-1.41-1.3-3.21-1.71-4.98l1.58-.38c.27,1.41.88,3.25,1.44,4.62,1.14-.6,2.5-1.21,4.02-1.84l.69,1.47c-3.94,1.35-7.35,3.1-7.35,4.63,0,.94.79,1.51,2.99,1.51,1.32,0,2.92-.1,4.67-.43l.27,1.6c-1.79.3-3.62.36-4.79.36-3.46,0-4.68-1.16-4.68-2.88Z"/>
        <path d="M72.92,176.66h11.52v10.84c0,1.03-.35,1.35-1.58,1.35-.65,0-1.56-.03-2.35-.08l-.26-1.53c.75.09,1.56.15,2.16.15.44,0,.55-.1.55-.51v-8.94h-8.58v11.11h-1.47v-12.4ZM75.14,179.16h7.06v1.21h-7.06v-1.21ZM75.72,181.5h5.79v4.3h-4.41v1h-1.38v-5.31ZM80.13,184.65v-2.02h-3.03v2.02h3.03Z"/>
        <path d="M89.67,184.49c0-.84.03-2.65.06-3.78.03-.98.01-2.97-.01-4.28l1.72.03c-.03,1.29-.08,3.18-.12,4.12-.04,1-.08,2.75-.08,3.67,0,1.79.5,2.66,1.89,2.66,1.72,0,3.57-1.23,4.56-3.04l.83,1.63c-1.16,1.65-3.21,2.92-5.4,2.92-2.62,0-3.45-1.63-3.45-3.95ZM94.2,177.83l.96-.46c.51.79.86,1.54,1.23,2.49l-1,.5c-.35-.96-.75-1.77-1.19-2.52ZM95.9,177.33l.97-.46c.53.75.86,1.47,1.26,2.49l-1.02.46c-.39-1.05-.75-1.82-1.21-2.49Z"/>
        <path d="M102.63,186.12c0-1.28,1.11-2.22,3.15-2.22.36,0,.72.03,1.11.08-.02-.31-.04-.64-.06-.96-.09-1.37-.17-3.42-.17-4.41,0-.71-.01-1.5.02-2.48l1.6.08c-.09,1-.1,1.7-.12,2.66,1.23-.06,2.49-.21,3.72-.46l.17,1.5c-1.41.23-2.7.36-3.87.42.01.88.06,1.9.12,2.68.03.43.06.88.07,1.3,1.44.41,2.94,1.11,4.21,2.04l-.85,1.3c-1.19-.9-2.31-1.5-3.29-1.88v.29c0,1.58-.94,2.37-2.8,2.37s-3.01-.86-3.01-2.31ZM105.51,187.01c.84,0,1.44-.29,1.44-1.19,0-.1,0-.25-.01-.46-.41-.08-.79-.1-1.12-.1-1.09,0-1.65.38-1.65.88,0,.58.57.87,1.35.87Z"/>
        <path d="M120.84,186.98c0-.66.49-1.23,1.21-1.23s1.21.57,1.21,1.23-.5,1.21-1.21,1.21-1.21-.55-1.21-1.21ZM121.17,177.29h1.76l-.09,7.33h-1.56l-.11-7.33Z"/>
      </g>
      <circle class="cls-10" cx="308.3" cy="188.25" r="30"/>
      <path class="cls-9" d="M329.84,1.42H90.46c-4.68,0-8.47,3.79-8.47,8.47v43.9s-9.69,9.69-9.69,9.69h9.69s0,.5,0,.5c0,4.68,3.79,8.47,8.47,8.47h239.38c4.68,0,8.47-3.79,8.47-8.47V9.89c0-4.68-3.79-8.47-8.47-8.47Z"/>
      <g>
        <path d="M95.79,27.24c1.35-2.04,2.19-3.66,2.8-5.29-.99.09-1.93.15-2.67.17l-.19-1.42c1-.02,2.19-.08,3.38-.2.22-.76.45-1.56.66-2.43l1.53.38c-.2.66-.38,1.27-.57,1.86.89-.12,1.73-.27,2.42-.45l.27,1.42c-.78.18-1.95.36-3.18.51-.73,2.04-1.6,3.92-3.03,6.27l-1.41-.81ZM98.87,28.55c0-1.14,1.06-2.05,2.67-2.05.36,0,.75.03,1.14.09-.03-.5-.06-1.08-.06-1.37,0-.42.06-1.15.51-1.92l1.33.77c-.29.58-.33.99-.33,1.41,0,.47.03.9.04,1.43,1.06.34,2.16.88,3.15,1.47l-.72,1.3c-.78-.55-1.58-1.02-2.35-1.35v.24c0,1.4-1,2.25-2.58,2.25-1.39,0-2.8-.71-2.8-2.26ZM101.66,29.39c.69,0,1.11-.31,1.11-.94,0-.12,0-.29-.01-.48-.34-.09-.69-.13-1-.13-.79,0-1.33.29-1.33.76,0,.53.55.79,1.25.79ZM103.92,22.17l.67-1.2c1.37.52,2.46,1.14,3.48,2.13l-.82,1.18c-1.16-1.07-2.04-1.59-3.33-2.12Z"/>
        <path d="M110.1,29.79c2.04-4.32,3.55-7.62,5.26-11.5l1.54.58c-1.04,2.04-1.91,3.81-2.81,5.71.79-.69,1.65-1.02,2.33-1.02,1.04,0,1.38.83,1.38,2.64,0,1.93.24,2.58,1.02,2.58,1.05,0,2.05-1.28,2.95-3.99l1.23,1.19c-1.04,2.8-2.36,4.3-4.17,4.3s-2.52-1.23-2.52-3.57c0-1.27-.12-1.6-.58-1.6-.53,0-1.37.67-2.01,1.47-.76.93-1.15,1.65-2.2,4l-1.42-.79Z"/>
        <path d="M124.62,29.99c1.23-2.76,2.1-5.34,2.71-7.94-1.02.08-1.98.12-2.78.15l-.16-1.51c1.03-.03,2.14-.08,3.28-.15.15-.81.3-1.63.42-2.47l1.54.24c-.13.72-.28,1.42-.43,2.11,1.11-.12,2.21-.25,3.27-.46l.24,1.5c-1.18.2-2.54.36-3.85.48-.69,2.92-1.54,5.7-2.71,8.65l-1.53-.6ZM129.86,28.05c0-.55.21-1.23.68-1.89l1.36.43c-.39.45-.57.9-.57,1.21,0,.58.66.92,2.13.92.96,0,1.98-.1,2.79-.28l.3,1.56c-.93.18-2.13.21-2.85.21-2.74,0-3.84-.9-3.84-2.16ZM130.62,23.25c1.71-.29,3.7-.42,5.4-.34l-.2,1.49c-1.63-.09-3.45.03-4.8.27l-.4-1.41ZM133.14,19.27l.9-.54c.55.71.85,1.25,1.24,2.11l-.94.57c-.39-.87-.71-1.46-1.2-2.14ZM134.85,18.75l.88-.55c.54.67.88,1.25,1.26,2.08l-.93.57c-.39-.87-.71-1.42-1.21-2.1Z"/>
        <path d="M139.38,29.55c1.28-2.38,2.07-4.33,2.71-6.57-.92.13-1.77.25-2.43.36l-.25-1.45c.69-.06,1.96-.2,2.98-.35.24-1.04.45-2.11.65-3.25l1.53.24c-.19.93-.4,1.86-.64,2.82.42-.03.81-.06,1.12-.06,1.44,0,2.4.88,2.4,2.68,0,1.29-.12,2.91-.45,4.28-.38,1.56-1.28,1.96-2.17,1.96-.71,0-1.4-.13-2.01-.36l-.12-1.65c.7.34,1.38.48,1.83.48.58,0,.89-.31,1.11-1.35.2-.88.3-2,.3-3.06s-.43-1.59-1.18-1.59c-.27,0-.62.03-1.16.09-.71,2.62-1.48,4.83-2.8,7.51l-1.41-.74ZM147.99,21.14l1.28-.84c1.04,1.47,1.75,3.2,2.34,5.46l-1.44.81c-.56-2.29-1.1-3.92-2.18-5.43Z"/>
        <path d="M152.57,28.13l1.3-1.12c.92.78,1.98,2,2.77,3.13l-1.41,1.25c-.69-1.16-1.64-2.29-2.67-3.25Z"/>
        <path d="M168,27.54c2.17-.93,4.33-2.45,5.92-4.6-1.93.01-3.78.01-5.52.01l-.03-1.44c2.16.03,4.33.03,6.52,0l-.04-3.08h1.51c.02,1.05.02,2.07.03,3.06,1.25-.03,2.49-.06,3.75-.1l.04,1.44c-1.3.03-2.56.04-3.78.08.01,1.59.04,3.19.07,4.92.02.73.02.92.02,1.14,0,1.05-.42,1.54-1.58,1.54-.51,0-1.35-.03-2.19-.15l-.19-1.61c.81.18,1.46.22,1.84.22s.6-.16.6-.52v-1.26s-.06-3.3-.06-3.3c-1.53,2.1-3.55,3.82-5.82,4.89l-1.11-1.25Z"/>
        <path d="M182.46,23.84l11.97-.08.03,1.5-11.97.08-.03-1.5Z"/>
        <path d="M199.4,29.84c3.66-1.75,5.8-4.56,6.74-7.9-1.47.04-2.96.06-4.1.06-.82,1.42-1.81,2.66-3.01,3.67l-1.46-.78c2.08-1.78,3.51-3.93,4.35-6.37l1.56.4c-.21.56-.43,1.11-.67,1.64,1.17-.02,2.54-.05,4.23-.09l.96.77c-1.2,4.71-3.39,7.6-7.21,9.73l-1.38-1.12Z"/>
        <path d="M211.82,23.76l.79-1.3c1.22.57,2.07,1.07,3.18,1.95l-.93,1.3c-1.09-.9-2.04-1.46-3.04-1.95ZM213.11,29.22c3.66-.87,6.92-2.85,9.1-7.87l1.2,1.44c-2.44,4.93-5.67,6.94-9.61,7.95l-.69-1.52ZM213.86,20.56l.84-1.25c1.14.57,2.07,1.12,3.13,2.01l-.99,1.26c-1.07-.93-1.88-1.44-2.99-2.02Z"/>
        <path d="M227.9,28.28c2.19,0,4.41-.02,6.17-.04,0-.53.01-1.05.01-1.56-1.89.02-4.21.04-5.77.06l-.03-1.29c1.58,0,3.93-.02,5.82-.04v-1.47c-2.1.03-4.32.08-6.2.11l-.03-1.3c1.64,0,4.12-.03,7.65-.09-.03,2.5-.04,5.13-.03,7.63h-1.44v-.72c-1.92.02-4.1.03-6.12.06l-.03-1.33Z"/>
        <path d="M241.28,21.23l.9-1.29c1.3.67,2.17,1.21,3.51,2.28l-.96,1.32c-1.18-1.02-2.29-1.75-3.45-2.31ZM241.88,28.67c3.96-.99,7.03-3.29,9.07-7.54l1.16,1.47c-2.28,4.12-5.04,6.44-9.41,7.62l-.82-1.54Z"/>
        <path d="M254.54,26.61c0-1,.49-1.73,1.48-2.24.84-.43,1.75-.64,3.15-.67.4-.97.84-2.14,1.17-3.13-.98.2-2.4.38-3.38.42l-.38-1.44c1.92-.07,3.24-.28,4.5-.58l1.08.63c-.55,1.68-1.06,3-1.57,4.18,1.02.1,2.05.31,3.06.62.13-.83.21-1.71.24-2.62l1.46.38c-.04.96-.14,1.88-.29,2.73.97.39,1.84.84,2.58,1.33l-.84,1.26c-.62-.45-1.32-.85-2.07-1.18-.51,1.72-1.46,3.24-3.22,4.53l-1.47-.81c1.82-1.11,2.78-2.55,3.3-4.26-1.12-.38-2.26-.62-3.31-.71-1.27,2.64-2.21,3.87-3.55,3.87-1.26,0-1.93-1.08-1.93-2.29ZM256.64,27.44c.52,0,1.21-.97,1.93-2.44-.6.04-1.15.18-1.59.39-.62.29-.97.69-.97,1.2,0,.45.21.85.63.85Z"/>
        <path d="M269.45,29.99c1.23-2.76,2.1-5.34,2.71-7.94-1.02.08-1.98.12-2.77.15l-.17-1.51c1.04-.03,2.14-.08,3.29-.15.15-.81.3-1.63.42-2.47l1.54.24c-.14.72-.29,1.42-.44,2.11,1.11-.12,2.21-.25,3.27-.46l.24,1.5c-1.18.2-2.53.36-3.85.48-.69,2.92-1.54,5.7-2.71,8.65l-1.53-.6ZM274.68,28.05c0-.55.21-1.23.67-1.89l1.37.43c-.39.45-.57.9-.57,1.21,0,.58.66.92,2.13.92.96,0,1.98-.1,2.79-.28l.3,1.56c-.93.18-2.13.21-2.85.21-2.75,0-3.84-.9-3.84-2.16ZM275.45,23.25c1.71-.29,3.71-.42,5.4-.34l-.19,1.49c-1.63-.09-3.45.03-4.8.27l-.41-1.41Z"/>
        <path d="M285.06,27.21c-.33-1.06-.55-2.97-.55-4.71,0-.75.03-1.81.09-2.75l1.59.33c-.09,1.02-.13,1.92-.13,2.88,0,1.64.17,2.81.43,3.67.32,1.02.76,1.64,1.2,1.64.48,0,1.11-1.04,1.51-2.94l1.32,1.11c-.63,2.37-1.7,3.51-2.8,3.51-1.21,0-2.13-1.07-2.66-2.75ZM291.92,21.56l1.14-1.02c1.8,1.65,2.32,3.67,2.71,6.52l-1.54.48c-.35-2.66-.9-4.77-2.31-5.98Z"/>
        <path d="M298.14,29.99c1.23-2.76,2.1-5.34,2.71-7.94-1.02.08-1.98.12-2.77.15l-.17-1.51c1.03-.03,2.14-.08,3.28-.15.15-.81.3-1.63.42-2.47l1.54.24c-.13.72-.29,1.42-.43,2.11,1.11-.12,2.21-.25,3.27-.46l.24,1.5c-1.18.2-2.54.36-3.85.48-.69,2.92-1.54,5.7-2.71,8.65l-1.53-.6ZM303.38,28.05c0-.55.21-1.23.68-1.89l1.36.43c-.39.45-.57.9-.57,1.21,0,.58.66.92,2.13.92.96,0,1.98-.1,2.79-.28l.3,1.56c-.93.18-2.13.21-2.85.21-2.74,0-3.84-.9-3.84-2.16ZM304.14,23.25c1.71-.29,3.7-.42,5.4-.34l-.2,1.49c-1.63-.09-3.45.03-4.8.27l-.4-1.41ZM306.66,19.27l.9-.54c.55.71.85,1.25,1.24,2.11l-.94.57c-.39-.87-.71-1.46-1.2-2.14ZM308.37,18.75l.88-.55c.54.67.88,1.25,1.26,2.08l-.93.57c-.39-.87-.71-1.42-1.21-2.1Z"/>
        <path d="M97.92,53.1c-.48.6-1,1.31-1.62,2.21l-1.27-.94c.96-1.1,1.92-2.31,2.49-3.48.12-.24.27-.64.42-1.11v-1.21c-.72.18-1.66.33-2.34.39l-.24-1.38c.76-.06,1.71-.17,2.56-.38,0-1.08-.01-1.88-.03-2.66l1.59.06c-.03.84-.04,1.62-.06,2.5l.72.34c-.13.42-.43,1.17-.75,1.91v.15c1.54-1.65,3-2.91,4.8-2.91s2.73,1.5,2.73,4.46c0,.75-.08,1.5-.2,2.16.66.36,1.29.81,1.88,1.37l-.96,1.27c-.39-.46-.84-.87-1.3-1.18-.09.25-.2.46-.3.63-.5.79-1.43,1.2-2.5,1.2-1.59,0-2.58-.95-2.58-2.15s1.04-2.04,2.56-2.04c.57,0,1.17.11,1.79.29.06-.52.09-1.06.09-1.57,0-1.77-.41-2.96-1.35-2.96-1.26,0-2.94,1.47-4.65,3.33,0,1.92,0,3.38.03,5.61l-1.58.06c.03-1.51.04-2.76.08-3.96ZM103.53,55.07c.6,0,1.08-.29,1.33-.83.04-.09.09-.2.12-.3-.49-.2-1.02-.3-1.42-.3-.64,0-1.09.27-1.09.68,0,.45.36.75,1.07.75Z"/>
        <path d="M114.95,55.38c0-.66.49-1.23,1.21-1.23s1.21.57,1.21,1.23-.5,1.21-1.21,1.21-1.21-.55-1.21-1.21ZM115.28,45.69h1.76l-.09,7.33h-1.56l-.11-7.33Z"/>
      </g>
      <g>
        <path class="cls-1" d="M325.14,179.04c1.79.14,1.22,2.12.34,3.27-.18.24-.54.27-.77.08-1.56-1.33-1.01-3.46.43-3.34Z"/>
        <path class="cls-1" d="M325.04,179.82c-.31,0-.56-.25-.56-.56v-3.55l-.89-1.24c-.18-.25-.12-.61.13-.79.25-.18.61-.12.79.13l1,1.39c.07.1.11.21.11.33v3.73c0,.31-.25.56-.56.56Z"/>
        <path class="cls-7" d="M310.28,205.42c1.34-.08,2.63-.26,3.88-.53,9.79-2.16,10.15-7.15,10.02-11.31s-1.03-19.07-13.04-19.88-15.11,8.74-17.43,11.84c-2.32,3.1-10.78,12.79,5.09,18.2,1.55.53,3.09.93,4.6,1.21"/>
        <polygon class="cls-6" points="322.21 170.16 316.13 169.59 318.83 175.06 325.04 175.72 322.21 170.16"/>
        <rect class="cls-6" x="315.55" y="173.24" width="6.62" height="2.88" transform="translate(177.79 -160.41) rotate(38.45)"/>
        <path class="cls-13" d="M290.07,191.35c5.03.33,7.93,5.64,6.07,11.34-4.9-2.67-7.64-5.38-6.07-11.34Z"/>
        <path class="cls-13" d="M323.67,193.48c-5.8-.8-10.25,4.19-9.34,10.68,6.16-1.72,9.86-3.98,9.34-10.68Z"/>
        <ellipse class="cls-1" cx="302.05" cy="193.66" rx="1.82" ry="1.68" transform="translate(63.76 461.9) rotate(-81.05)"/>
        <ellipse class="cls-1" cx="312.12" cy="194.7" rx="1.68" ry="1.82" transform="translate(-9.44 16.02) rotate(-2.9)"/>
        <path class="cls-1" d="M301.89,184.04c1.65-.67,3.13-.04,3.82,1.25.16.3-.14.56-.46.4-1.03-.52-2.05-.78-3.16-.99-.37-.07-.51-.53-.2-.66Z"/>
        <path class="cls-1" d="M314.96,186.55c-1.22-1.29-2.83-1.33-4-.45-.27.21-.11.57.26.56,1.16-.05,2.19.14,3.29.41.37.09.68-.27.45-.52Z"/>
        <path class="cls-1" d="M310.28,205.98c-.3,0-.55-.23-.56-.53-.02-.31.22-.58.53-.6,1.29-.08,2.57-.25,3.79-.52,9.84-2.17,9.68-7.33,9.58-10.74-.13-4.28-.81-7.98-2.03-11-2.08-5.2-5.61-8-10.49-8.33-9.65-.65-13.25,5.48-15.63,9.54-.48.82-.9,1.53-1.31,2.07-.11.15-.24.32-.38.51-1.66,2.17-4.75,6.2-3.58,10.07.84,2.78,3.8,5.06,8.79,6.76,1.5.51,3.02.91,4.52,1.19.31.06.51.35.45.66s-.35.51-.66.45c-1.55-.29-3.12-.71-4.67-1.23-5.35-1.82-8.55-4.35-9.5-7.5-1.34-4.42,2.11-8.92,3.77-11.08.14-.18.26-.35.38-.5.37-.49.77-1.18,1.24-1.97,2.37-4.04,6.34-10.8,16.68-10.1,5.35.36,9.2,3.4,11.46,9.03,1.26,3.14,1.97,6.98,2.11,11.39.14,4.6-.54,9.69-10.46,11.88-1.28.28-2.61.47-3.97.54-.01,0-.02,0-.03,0Z"/>
        <path class="cls-1" d="M301.12,193.02c-.06,0-.12-.02-.17-.06-.75-.59-1.13-1.2-1.42-2.25-.04-.15.05-.31.2-.35.15-.04.31.05.35.2.29,1.06.65,1.51,1.23,1.96.12.1.14.27.05.4-.06.07-.14.11-.22.11Z"/>
        <path class="cls-1" d="M300.93,193.61c-.79,0-1.64-.46-2.32-1.25-.1-.12-.09-.3.03-.4.12-.1.3-.09.4.03.62.73,1.39,1.12,2.05,1.05.15-.02.29.09.31.25.02.15-.09.29-.25.31-.07,0-.15.01-.22.01Z"/>
        <path class="cls-1" d="M313.3,194.19c-.14,0-.26-.1-.28-.24-.02-.15.09-.3.24-.32.66-.09,1.42-.66,1.85-1.39.08-.13.25-.18.39-.1.13.08.18.25.1.39-.52.88-1.43,1.54-2.26,1.66-.01,0-.03,0-.04,0Z"/>
        <path class="cls-1" d="M314.37,195.43c-.37,0-.75-.07-1.11-.24-.14-.06-.2-.23-.14-.37.06-.14.23-.2.37-.14.85.39,1.82.09,2.47-.24.14-.07.31-.01.38.13.07.14.01.31-.13.38-.5.25-1.16.48-1.85.48Z"/>
        <g>
          <path class="cls-4" d="M311.91,199.31c-.67-1.82-3.62-3.78-5.13-3.57-1.51.21-4.67,2.04-5.66,1.99s-1.67-.72-1.79,1.58,1.69,3.49,4.1,2.64c3.35,1.91,9.62.49,8.48-2.64Z"/>
          <path class="cls-4" d="M311.91,201.67c-.74,3.66-4.9,5.8-6.16,5.26-1.26-.54-2.84-1.41-1.46-4.59,2.49.53,6.87-.11,6.98-1.62s.63.95.63.95Z"/>
          <path class="cls-11" d="M305.53,202.66c-.72,1.34-.37,3.05,1.82,1.98s2.19-2.27,2.19-2.27c0,0,1.44-.72-.48,0-1.92.72-3.53.29-3.53.29Z"/>
          <path class="cls-1" d="M307.02,203.37c-1.05,0-2.18-.32-3.35-.98-2.28.65-3.54.04-4.21-.59-.84-.8-1.15-2.08-.82-3.34.33-1.27.9-1.38,1.78-1.4.64-.01,1.62-.04,3.2-.87,3.5-1.84,5.55-.78,7.54,1.37.19.2.17.51-.03.7s-.51.17-.7-.03c-1.78-1.92-3.39-2.73-6.36-1.17-1.79.94-2.9.97-3.64.98-.68.02-.69.03-.85.66-.24.9-.02,1.84.55,2.38.71.68,1.9.78,3.44.3.13-.04.28-.02.4.05,1.91,1.13,4.66,1.8,6.84-1.37.13-.19.38-.27.59-.18,0,0,.71.29,1.35.43.27.06.43.32.37.59s-.32.44-.59.37c-.42-.09-.85-.23-1.14-.34-1.22,1.62-2.71,2.44-4.39,2.44Z"/>
          <path class="cls-1" d="M306.33,207.48c-.6,0-1.17-.14-1.69-.42-.84-.45-1.38-1.1-1.59-1.91-.43-1.61.6-3.27.64-3.34.14-.23.45-.3.68-.16.23.14.3.45.16.68,0,.01-.84,1.38-.52,2.57.15.55.51.97,1.11,1.29.85.46,1.91.39,2.98-.19,1.5-.82,3.12-2.78,3.33-5.32.02-.27.26-.47.53-.45.27.02.47.26.45.53-.21,2.56-1.72,4.96-3.84,6.11-.75.41-1.51.61-2.23.61Z"/>
        </g>
        <path class="cls-1" d="M320.58,178.89c-.12,0-.25-.04-.35-.12-.24-.19-.29-.55-.09-.79l2.24-2.84c.12-.15.31-.23.5-.21l1.19.13-2.21-4.36-4.77-.45.69,1.4c.09.19.07.42-.05.59l-1.8,2.39c-.19.25-.54.3-.79.11-.25-.19-.3-.54-.11-.79l1.59-2.11-.99-1.99c-.09-.18-.08-.4.04-.57.12-.17.31-.26.52-.24l6.09.57c.19.02.36.13.45.31l2.82,5.57c.09.18.08.41-.04.58-.12.17-.32.26-.52.24l-1.91-.2-2.04,2.59c-.11.14-.28.21-.44.21Z"/>
      </g>
    </g>
  </g>
</svg>