<?xml version="1.0" encoding="UTF-8"?>
<svg id="_レイヤー_2" data-name="レイヤー 2" xmlns="http://www.w3.org/2000/svg" width="339.66" height="213.78" viewBox="0 0 339.66 213.78">
  <defs>
    <style>
      .cls-1 {
        fill: #211815;
      }

      .cls-2 {
        fill: #f5f19b;
      }

      .cls-3 {
        fill: #ecbb6e;
      }

      .cls-4 {
        fill: #93c9ce;
      }

      .cls-5 {
        fill: #5c948d;
      }

      .cls-6 {
        fill: #fffba1;
      }

      .cls-7, .cls-8 {
        fill: #fff;
      }

      .cls-9 {
        fill: #d3f2c9;
      }

      .cls-10 {
        fill: #de8a4c;
      }

      .cls-11 {
        fill: #ceeaeb;
      }

      .cls-12 {
        fill: #f2d496;
      }

      .cls-8 {
        stroke: #ceeaeb;
        stroke-miterlimit: 10;
        stroke-width: 2.83px;
      }
    </style>
  </defs>
  <g id="_レイヤー_1-2" data-name="レイヤー 1">
    <g>
      <path class="cls-8" d="M9.89,107.66h239.38c4.68,0,8.47,3.79,8.47,8.47v66.5s9.69,9.69,9.69,9.69h-9.69s0,.5,0,.5c0,4.68-3.79,8.47-8.47,8.47H9.89c-4.68,0-8.47-3.79-8.47-8.47v-76.69c0-4.68,3.79-8.47,8.47-8.47Z"/>
      <g>
        <path d="M17.22,126.47c-.66,0-1.04.02-1.35.06v-.77h-1.33c.04-.33.06-.58.06-1.06v-1.06c0-.39-.02-.71-.06-1.08.46.04.88.06,1.59.06h3.75v-.33c0-.35-.01-.58-.08-.9h1.75c-.06.29-.07.53-.07.9v.33h3.96c.71,0,1.11-.01,1.59-.06-.05.36-.06.66-.06,1.05v1.09c0,.44.01.74.06,1.06h-1.32v.77c-.36-.04-.71-.06-1.37-.06h-2.91c0,.27,0,.3-.01.78h2.68c.72,0,.95-.02,1.29-.06v1.38c-.34-.04-.61-.06-1.29-.06h-2.79c-.03.34-.04.46-.11.78h4.5c.75,0,1.06-.01,1.48-.07v1.51c-.51-.06-.93-.09-1.56-.09h-3.67c.5.6.79.87,1.35,1.2.62.39,1.52.74,2.54.99.36.09.81.19,1.59.33-.34.51-.55.96-.75,1.54-1.33-.31-1.92-.5-2.7-.83-1.53-.69-2.5-1.47-3.41-2.73-.5.96-1.12,1.64-2.1,2.25-1,.65-1.92.98-3.51,1.29-.27-.72-.35-.87-.77-1.48,1.49-.21,2.24-.42,3.11-.89.84-.42,1.39-.93,1.84-1.68h-3.17c-.57,0-1.05.03-1.56.09v-1.51c.42.06.72.07,1.47.07h3.76c.06-.25.09-.42.13-.78h-2.44c-.67,0-.96.02-1.29.06v-1.38c.34.04.58.06,1.29.06h2.53c0-.2.02-.47.02-.78h-2.68ZM19.92,125.19c-.01-.45-.03-.66-.06-.93h1.67c-.04.18-.04.35-.06.93h2.88c.56,0,.75,0,1.12-.04v-1.19h-9.37v1.19c.31.03.57.04,1.12.04h2.7Z"/>
        <path d="M32.67,130.61c.04.06.06.11.06.17q0,.09-.25.78c-.32.92-.51,1.67-.57,2.25-.01.19-.08.27-.27.31-.21.06-.61.09-1,.09-.15,0-.22-.03-.27-.12-.13-.28-.38-1.32-.5-2.16-.1-.71-.15-1.44-.15-2.21,0-1.73.2-3.36.74-6.3.09-.48.12-.71.17-1.17.69.09,1.17.23,1.6.44.23.12.32.23.32.36,0,.09-.03.17-.11.29-.61,1.05-1.18,4.29-1.18,6.69,0,.36.01.93.06,1.65.36-.93.52-1.35.85-2.07.11.41.21.6.51,1ZM35.19,126.66c-.72,0-.87-.03-.92-.19-.04-.13-.09-.61-.09-.96,0-.12,0-.24.01-.51.41.03.64.04,1.14.04.81,0,1.32-.02,2.1-.08-.02-1.9-.03-2.15-.18-2.85.74.01,1.29.07,1.77.19.22.06.31.14.31.29,0,.06-.01.1-.06.22-.15.35-.23.93-.25,1.98.55-.07,1.03-.18,1.93-.39.08-.03.1-.03.15-.03.09,0,.13.04.17.15.03.14.07.71.07,1.02,0,.38-.01.44-.17.5-.24.12-.9.23-2.17.39,0,1.03.09,2.74.2,3.72.95.4,1.59.75,2.25,1.21.42.3.51.41.51.51,0,.17-.27.67-.58,1.11-.18.25-.27.33-.38.33s-.1,0-.45-.33c-.33-.33-.67-.58-1.33-1.02v.12c0,1.32-1.09,2.19-2.76,2.19s-2.8-.9-2.8-2.25,1.14-2.35,2.66-2.35c.55,0,.84.02,1.24.08q-.06-1.17-.1-3.18c-.65.04-1.67.09-2.26.09ZM36.42,131.07c-.75,0-1.25.34-1.25.87,0,.48.46.78,1.19.78.79,0,1.21-.36,1.21-1.05,0-.21-.02-.38-.02-.38-.39-.15-.73-.23-1.14-.23Z"/>
        <path d="M45.88,126.02c-1.06.18-1.3.22-1.56.3-.15.04-.27.06-.36.06-.27,0-.4-.48-.46-1.65.87,0,1.35-.04,2.42-.24,0-.48.01-1.03.01-1.23,0-.58-.03-1.09-.09-1.47,1.58.07,2.04.18,2.04.46q0,.08-.13.39t-.2,1.62c.48.38.74.68.72.87,0,.04-.03.08-.09.14-.22.19-.25.22-.52.61q-.06.08-.15.19l-.06.09c0,.23,0,.25-.02.54.45-.51.87-.93,1.28-1.26,1.32-1.08,2.31-1.53,3.39-1.53s1.77.44,2.29,1.33c.45.78.69,1.88.69,3.17,0,.78-.06,1.38-.23,2.5.72.51,1.5,1.3,1.5,1.51,0,.24-.84,1.08-1.09,1.08-.1,0-.12-.02-.32-.31-.12-.17-.28-.36-.61-.72-.21.39-.33.56-.54.75-.55.51-1.3.78-2.19.78-1.56,0-2.56-.79-2.56-2,0-1.27,1.04-2.23,2.4-2.23.78,0,1.35.1,1.86.33.06-.56.08-.83.08-1.31,0-2.37-.45-3.3-1.59-3.3-.81,0-1.89.57-3.03,1.59-.41.38-.72.69-1.37,1.4v.87c0,1.99.04,4,.11,4.53v.06c0,.27-.21.34-.93.34-.66,0-.79-.06-.79-.34v-.12c.03-.44.04-.96.04-1.62q0-.99.01-2.17s-.03.04-.06.08c-.33.4-.87,1.14-1.22,1.63-.17.24-.25.31-.36.31-.15,0-.42-.27-.88-.87-.18-.23-.29-.42-.29-.5s.08-.17.45-.5c.27-.25,1.29-1.5,1.81-2.19.27-.38.46-.65.58-.84v-1.15ZM51.63,131.16c-.69,0-1.11.29-1.11.75s.32.69.89.69c.5,0,.9-.15,1.17-.45.13-.14.34-.51.34-.57v-.02c-.51-.31-.81-.4-1.29-.4Z"/>
        <path d="M57.94,130.86c.27-.24.34-.3.45-.3.19,0,1.09.66,1.75,1.29.75.69,1.59,1.69,1.59,1.9,0,.14-.03.17-.46.56-.57.52-.69.62-.79.62-.09,0-.18-.06-.25-.21-.53-.93-1.73-2.16-2.79-2.85-.12-.09-.18-.15-.18-.24,0-.1.03-.15.69-.76Z"/>
        <path d="M80.36,126.99h2.13c.68,0,1.1-.03,1.54-.09v1.63c-.48-.04-.93-.07-1.56-.07h-1.62c.86,1.5,2.1,2.74,3.58,3.58-.48.48-.69.78-.99,1.5-.61-.43-1.05-.85-1.62-1.5-.74-.85-1.05-1.32-1.53-2.22.03.54.04,1,.04,1.44v1.81c0,.67.03,1.2.09,1.67h-1.67c.06-.46.09-1,.09-1.68v-1.71c0-.4.02-.88.04-1.48-.91,1.65-1.93,2.76-3.39,3.73-.38-.71-.58-1-.9-1.36,1.54-.89,2.8-2.17,3.67-3.78h-.95c-.64,0-1.11.03-1.58.09v-.6c-.25.36-.43.69-.61,1.22-.38-.59-.6-1.05-.89-1.8.03.47.06,1.27.06,1.91v3.69c0,.77.03,1.32.09,1.77h-1.67c.06-.46.09-1.02.09-1.77v-3.1c0-.57.02-.93.11-1.86-.44,1.46-.87,2.43-1.52,3.41-.18-.68-.37-1.11-.67-1.6.72-.92,1.47-2.61,1.92-4.35h-.57c-.44,0-.69.02-.96.06v-1.53c.24.04.51.06.96.06h.72v-1.16c0-.76-.01-1.14-.08-1.5h1.65c-.06.39-.08.8-.08,1.5v1.16h.43c.36,0,.54-.02.78-.06v1.42c.57-1.02,1.05-2.52,1.09-3.49l1.46.38c-.06.17-.1.34-.21.79-.08.27-.1.4-.18.69h1.15v-.99c0-.61-.03-.99-.09-1.36h1.68c-.06.36-.09.77-.09,1.36v.99h1.7c.72,0,1.14-.03,1.54-.09v1.58c-.42-.04-.9-.08-1.54-.08h-1.7v1.81ZM77.22,125.18c-.25.62-.39.9-.81,1.6q-.36-.38-1.17-.94c.12-.17.17-.24.24-.35-.2-.03-.44-.04-.71-.04h-.38c.34.79.71,1.4,1.36,2.28v-.82c.45.06.87.09,1.56.09h1.53v-1.81h-1.63Z"/>
        <path d="M91.2,131.04c-.72,1.25-1.71,1.94-2.73,1.94-1.56,0-2.67-1.53-2.67-3.66,0-2.37,1.2-4.41,3.25-5.49,1-.54,2.08-.78,3.51-.78,3.14,0,5.46,2.22,5.46,5.19,0,2.62-1.29,4.51-3.78,5.58-.5.21-.89.33-1.08.33-.18,0-.25-.06-.45-.34-.25-.39-.54-.68-.95-.95,3.09-.79,4.49-2.25,4.49-4.68,0-1.25-.53-2.29-1.46-2.96-.53-.36-.95-.51-1.77-.64-.42,3.16-.92,4.89-1.83,6.46ZM89.04,125.73c-1,.88-1.58,2.15-1.58,3.55,0,1.16.38,1.83,1,1.83.75,0,1.52-1.04,2.08-2.82.36-1.12.54-1.98.77-3.65-1.07.23-1.59.48-2.28,1.08Z"/>
        <path d="M101.09,128.75c0-.52,0-1.03.03-1.6-.42.74-.62,1.02-1,1.5-.15-.6-.36-1.17-.65-1.71.96-1.06,1.59-2.14,2.13-3.58.35-.9.45-1.33.56-2.06l1.63.39q-.71,2.13-1.21,3.24v8.08c0,.63.01,1.12.07,1.66h-1.65c.06-.58.09-.97.09-1.68v-4.25ZM103.55,134.7c.06-.51.08-.89.08-1.77v-6.34c0-.72-.03-1.2-.09-1.62h1.6c-.04.45-.06.89-.06,1.64v6.04h6.34c.72,0,1.15-.01,1.59-.07v1.54c-.5-.06-.96-.09-1.61-.09h-6.33v.68h-1.53ZM105.2,123.98c-.58,0-.93.02-1.35.06v-1.52c.38.06.77.08,1.52.08h2.56c.06-.51.08-.65.1-1.2l1.59.09q-.14.79-.2,1.11h2.19c.69,0,1.02-.02,1.5-.09v1.53c-.42-.04-.84-.06-1.32-.06h-2.62c-.06.3-.13.61-.21.94h2.07c.6,0,.95-.02,1.21-.03-.04.46-.04.7-.04,1.38v4.36c0,.6,0,.82.04,1.27-.45-.02-.82-.03-1.23-.03h-3.71c-.42,0-.76.01-1.21.03.03-.31.04-.69.04-1.14v-4.71c0-.54-.01-.93-.04-1.17.36.03.57.03,1.16.03h.21c.1-.34.15-.58.22-.94h-2.49ZM107.6,126.89h3.15v-.75h-3.15v.75ZM107.6,128.73h3.15v-.77h-3.15v.77ZM107.6,130.65h3.15v-.84h-3.15v.84Z"/>
        <path d="M122.6,123.32c-.03.98-.12,1.46-.36,2.06-.28.72-.61,1.17-1.41,1.88-.41-.51-.57-.68-1.02-1.01-.54-.04-.62-.04-1.21-.04h-2.05v1.4h2.02c.72,0,.93-.02,1.35-.06v1.46c-.39-.03-.72-.04-1.33-.04h-2.04v1.72c1.58-.19,1.83-.24,3.52-.58l.03,1.4c-1.51.35-2.29.5-3.55.69v.95c0,.57.03,1,.09,1.53h-1.7c.06-.57.09-.98.09-1.52v-.75c-.24.04-.39.08-.48.09-.13.01-.15.01-.22.04l-.18-1.67c.17.02.21.02.25.02.15,0,.41-.02.63-.03v-6.99c0-.61-.02-.88-.08-1.32,1.41-.12,2.96-.45,3.87-.82.36-.14.38-.15.74-.38l.87,1.47q-.25.06-.88.27c-1.32.42-1.63.5-3,.75v1.03h2.04c.72,0,.93-.01,1.35-.06v1.12c.95-.75,1.25-1.54,1.25-3.29,0-.33-.01-.58-.04-.82.3.03.58.04,1.05.04h2.17c.55,0,.79-.02,1.14-.04-.03.38-.04.67-.04,1.2v2.08c0,.19.09.24.46.24.3,0,.39-.08.45-.36.06-.33.09-.66.11-1.35.43.27.75.4,1.25.57-.09,1.19-.2,1.69-.42,2.05-.22.35-.57.45-1.53.45-.66,0-1.17-.06-1.38-.18-.25-.13-.33-.33-.33-.82v-2.37h-1.46ZM127.01,128.18c-.15.23-.27.42-.39.65-.67,1.25-1.26,2.1-1.99,2.91.94.65,1.9,1.06,3.27,1.38-.36.52-.48.75-.76,1.5-1.59-.54-2.6-1.06-3.62-1.86-1.07.83-2.33,1.44-4.04,1.95-.21-.58-.42-.98-.79-1.47,1.63-.38,2.67-.79,3.76-1.54-.7-.88-1.06-1.53-1.51-2.8-.25.02-.39.03-.66.06v-1.59c.27.04.48.06.93.06h3.97c.54,0,.73-.01,1.02-.06l.81.82ZM122.37,128.88c.34.85.6,1.27,1.15,1.88.71-.72.92-.99,1.4-1.88h-2.55Z"/>
        <path d="M132.77,130.61c.04.06.06.11.06.17q0,.09-.25.78c-.32.92-.51,1.67-.57,2.25-.01.19-.08.27-.27.31-.21.06-.61.09-1,.09-.15,0-.22-.03-.27-.12-.13-.28-.38-1.32-.5-2.16-.1-.71-.15-1.44-.15-2.21,0-1.73.2-3.36.74-6.3.09-.48.12-.71.17-1.17.69.09,1.17.23,1.6.44.23.12.32.23.32.36,0,.09-.03.17-.11.29-.61,1.05-1.18,4.29-1.18,6.69,0,.36.01.93.06,1.65.36-.93.52-1.35.85-2.07.11.41.21.6.51,1ZM135.29,126.66c-.72,0-.87-.03-.92-.19-.04-.13-.09-.61-.09-.96,0-.12,0-.24.01-.51.41.03.64.04,1.14.04.81,0,1.32-.02,2.1-.08-.02-1.9-.03-2.15-.18-2.85.74.01,1.29.07,1.77.19.22.06.31.14.31.29,0,.06-.01.1-.06.22-.15.35-.23.93-.25,1.98.55-.07,1.03-.18,1.93-.39.08-.03.1-.03.15-.03.09,0,.13.04.17.15.03.14.07.71.07,1.02,0,.38-.01.44-.17.5-.24.12-.9.23-2.17.39,0,1.03.09,2.74.2,3.72.95.4,1.59.75,2.25,1.21.42.3.51.41.51.51,0,.17-.27.67-.58,1.11-.18.25-.27.33-.38.33s-.1,0-.45-.33c-.33-.33-.67-.58-1.33-1.02v.12c0,1.32-1.09,2.19-2.76,2.19s-2.8-.9-2.8-2.25,1.14-2.35,2.66-2.35c.55,0,.84.02,1.24.08q-.06-1.17-.1-3.18c-.65.04-1.67.09-2.26.09ZM136.52,131.07c-.75,0-1.25.34-1.25.87,0,.48.46.78,1.19.78.79,0,1.21-.36,1.21-1.05,0-.21-.02-.38-.02-.38-.39-.15-.73-.23-1.14-.23Z"/>
        <path d="M143.58,130.86c.27-.24.34-.3.45-.3.19,0,1.09.66,1.75,1.29.75.69,1.59,1.69,1.59,1.9,0,.14-.03.17-.46.56-.57.52-.69.62-.79.62-.09,0-.18-.06-.25-.21-.53-.93-1.73-2.16-2.79-2.85-.12-.09-.18-.15-.18-.24,0-.1.03-.15.69-.76Z"/>
        <path d="M157.77,128.04v-7.04h4.79v1.64h-3v5.4h-1.79Z"/>
        <path d="M172.95,126.99h2.13c.68,0,1.1-.03,1.54-.09v1.63c-.48-.04-.93-.07-1.56-.07h-1.62c.86,1.5,2.1,2.74,3.58,3.58-.48.48-.69.78-.99,1.5-.61-.43-1.05-.85-1.62-1.5-.74-.85-1.05-1.32-1.53-2.22.03.54.04,1,.04,1.44v1.81c0,.67.03,1.2.09,1.67h-1.67c.06-.46.09-1,.09-1.68v-1.71c0-.4.02-.88.04-1.48-.91,1.65-1.93,2.76-3.39,3.73-.38-.71-.58-1-.9-1.36,1.54-.89,2.8-2.17,3.67-3.78h-.95c-.64,0-1.11.03-1.58.09v-.6c-.25.36-.43.69-.61,1.22-.38-.59-.6-1.05-.89-1.8.03.47.06,1.27.06,1.91v3.69c0,.77.03,1.32.09,1.77h-1.67c.06-.46.09-1.02.09-1.77v-3.1c0-.57.02-.93.11-1.86-.44,1.46-.87,2.43-1.52,3.41-.18-.68-.37-1.11-.67-1.6.72-.92,1.47-2.61,1.92-4.35h-.57c-.44,0-.69.02-.96.06v-1.53c.24.04.51.06.96.06h.72v-1.16c0-.76-.01-1.14-.08-1.5h1.65c-.06.39-.08.8-.08,1.5v1.16h.43c.36,0,.54-.02.78-.06v1.42c.57-1.02,1.05-2.52,1.09-3.49l1.46.38c-.06.17-.1.34-.21.79-.08.27-.1.4-.18.69h1.15v-.99c0-.61-.03-.99-.09-1.36h1.68c-.06.36-.09.77-.09,1.36v.99h1.7c.72,0,1.14-.03,1.54-.09v1.58c-.42-.04-.9-.08-1.54-.08h-1.7v1.81ZM169.82,125.18c-.25.62-.39.9-.81,1.6q-.36-.38-1.17-.94c.12-.17.17-.24.24-.35-.2-.03-.44-.04-.71-.04h-.38c.34.79.71,1.4,1.36,2.28v-.82c.45.06.87.09,1.56.09h1.53v-1.81h-1.63Z"/>
        <path d="M179.11,128.76c0-.57.02-.99.03-1.57-.25.51-.57.99-.95,1.48-.19-.71-.34-1.11-.63-1.73.92-1,1.59-2.16,2.16-3.73.32-.87.45-1.35.54-1.98l1.54.63c-.11.32-.15.44-.27.8q-.28.88-.93,2.37v8.04c0,.79.02,1.23.06,1.67h-1.65c.08-.57.09-.99.09-1.68v-4.29ZM189.54,125.57c.54,0,.98-.02,1.31-.06-.04.38-.06.77-.06,1.35v5.98c0,.72.03,1.21.09,1.8h-1.65v-.79h-6.1v.78h-1.59c.05-.48.08-1.05.08-1.57v-6.17c0-.51-.03-.99-.06-1.38.41.04.72.06,1.3.06h1.37v-1.94h-.72c-.69,0-1.23.03-1.7.08v-1.6c.42.06.92.09,1.7.09h6.03c.79,0,1.32-.03,1.75-.09v1.6c-.42-.04-1.02-.08-1.71-.08h-1.48v1.94h1.45ZM183.07,126.95v5.5h1.16v-5.5h-1.16ZM186.71,123.63h-1.11v1.94h1.11v-1.94ZM185.6,132.45h1.11v-5.5h-1.11v5.5ZM188.09,132.45h1.2v-5.5h-1.2v5.5Z"/>
        <path d="M196.86,128.03v7.02h-4.78v-1.63h3.01v-5.38h1.77Z"/>
        <path d="M211.41,126.44c-.19-.66-.25-1.06-.43-2.91-.06-.72-.12-1.08-.27-1.59.91.02,1.5.06,1.9.17.23.06.33.17.33.33,0,.06-.01.13-.04.25-.1.36-.15.63-.15,1.02,0,.73.15,1.94.32,2.46.09.28.18.39.34.39.36,0,1.68-.69,2.4-1.24.19-.15.22-.17.3-.17.13,0,.27.1.5.39.38.51.67,1.06.67,1.27,0,.17-.11.27-.36.34-.93.25-2.46.85-3.49,1.35-1.83.9-2.66,1.73-2.66,2.65s.76,1.29,2.7,1.29c1.12,0,2.14-.1,3.52-.33.06-.02.17-.03.2-.03.12,0,.19.06.25.18.04.15.15,1.06.15,1.43,0,.21-.06.28-.26.34-.33.08-2.14.18-3.28.18-1.92,0-3.2-.25-3.99-.79-.67-.47-1.04-1.2-1.04-2.1,0-.69.2-1.31.6-1.9.52-.78,1.09-1.27,2.35-2.02-.31-.29-.43-.5-.57-.96Z"/>
        <path d="M234.4,125.31c-.48-.04-.98-.08-1.59-.08h-9.79c-.67,0-1.11.02-1.59.08v-1.53c.43.06.88.09,1.57.09h9.83c.71,0,1.14-.03,1.58-.09v1.53ZM224.59,134.67h-1.62c.04-.45.08-.93.08-1.33v-2.04c0-.54-.02-.84-.06-1.23.34.03.6.04,1.12.04h7.58c.58,0,.82-.02,1.14-.06-.04.34-.06.65-.06,1.26v2.04c0,.58.02.92.08,1.32h-1.63v-.6h-6.61v.6ZM232.76,123.21c-.48-.06-.93-.07-1.59-.07h-6.51c-.64,0-1.09.01-1.57.07v-1.46c.46.06.94.09,1.57.09h6.51c.66,0,1.14-.03,1.59-.09v1.46ZM232.64,127.32c-.41-.04-.8-.06-1.46-.06h-6.51c-.67,0-1.07.02-1.47.06v-1.4c.38.04.78.06,1.47.06h6.51c.69,0,1.08-.02,1.46-.06v1.4ZM232.64,129.35c-.38-.04-.8-.06-1.46-.06h-6.51c-.67,0-1.1.02-1.47.06v-1.4c.42.04.75.06,1.47.06h6.51c.72,0,1.05-.02,1.46-.06v1.4ZM224.59,132.69h6.63v-1.24h-6.63v1.24Z"/>
        <path d="M239.42,126.96c1.89-.52,3.25-.77,4.27-.77,2.12,0,3.42,1.16,3.42,3.03,0,1.12-.46,2.12-1.35,2.87-.58.49-1.46.92-2.61,1.26-.64.18-1.33.31-1.63.31-.18,0-.27-.04-.33-.19-.21-.52-.45-.9-.76-1.21,3.3-.35,4.98-1.4,4.98-3.1,0-.87-.72-1.54-1.65-1.54-1.62,0-3.39.54-5.25,1.57-.15.08-.24.12-.3.12-.25,0-.67-.75-1.02-1.83.74-.1.99-.17,2.24-.51Z"/>
        <path d="M16.82,151.79c-.39.09-.53.13-1.07.33-.19.08-.3.1-.39.1-.33,0-.63-.61-.9-1.9.96-.04,1.31-.09,2.97-.34,1.8-.27,4.08-.62,5.28-.77,1.35-.18,2.43-.36,3-.48.1-.03.15-.03.22-.03.2,0,.27.09.41.46.12.32.21.76.21.97,0,.18-.06.24-.27.24-.32,0-.6.03-.89.08-2.53.42-4.56,2.64-4.56,4.98,0,1.75,1.38,2.91,3.72,3.12.21.01.29.09.29.27,0,.38-.15,1.09-.29,1.42-.08.17-.19.24-.39.24s-.65-.09-1.11-.22c-2.55-.75-3.88-2.37-3.88-4.67,0-1.25.41-2.4,1.19-3.39.42-.54.78-.84,1.63-1.42-1.96.33-4.04.72-5.17,1Z"/>
        <path d="M29.02,157.11c.27-.24.34-.3.45-.3.19,0,1.09.66,1.75,1.29.75.69,1.59,1.7,1.59,1.91,0,.13-.03.17-.46.55-.57.53-.69.62-.79.62-.09,0-.18-.06-.25-.21-.53-.93-1.73-2.16-2.79-2.85-.12-.09-.18-.15-.18-.24,0-.11.03-.15.69-.76Z"/>
        <path d="M46.05,158.55c-.6,0-1.05.01-1.54.06.04-.41.06-.9.06-1.7v-3.31c0-.71-.02-1.19-.06-1.62.45.03.77.04,1.5.04h7.3c.84,0,1.17-.02,1.59-.04-.04.46-.06.87-.06,1.63v3.34c0,.79.01,1.32.06,1.65-.46-.05-.92-.06-1.53-.06h-1.07c1.02.57,2.37.93,4.12,1.12-.33.43-.51.75-.78,1.41-1.29-.2-1.92-.36-2.83-.72-.87-.36-1.35-.6-2.11-1.11l.85-.71h-4.03l.9.71c-.71.53-1.16.78-1.96,1.11-.92.38-1.54.55-2.64.76-.18-.51-.41-.84-.87-1.32,1.84-.29,3.13-.71,3.94-1.26h-.84ZM55.71,150.36c0,.54.01.81.06,1.16-.36-.03-.72-.05-1.48-.05h-9.2c-.72,0-1.18.02-1.5.05.05-.36.06-.62.06-1.16v-1.12c0-.55-.01-.81-.06-1.21.41.04.81.06,1.62.06h8.94c.81,0,1.22-.01,1.62-.06-.04.39-.06.66-.06,1.21v1.12ZM47.13,149.31h-2v.93h2v-.93ZM46.12,153.86h7.16v-.63h-7.16v.63ZM46.12,155.57h7.16v-.62h-7.16v.62ZM46.12,157.34h7.16v-.67h-7.16v.67ZM50.58,149.31h-2v.93h2v-.93ZM54.18,150.24v-.93h-2.14v.93h2.14Z"/>
        <path d="M58.56,150.84c0-.43-.02-1.02-.04-1.35.69.08,1.2.18,1.6.33.36.13.48.22.48.39q0,.09-.06.24c-.2.51-.25,1.08-.25,2.45,0,1.92.12,3.12.42,4.03.22.71.57,1.11.97,1.11.62,0,1.12-.72,1.68-2.38.28.76.39.99.81,1.53.08.11.12.21.12.32,0,.24-.22.75-.53,1.18-.58.86-1.33,1.32-2.13,1.32-1.15,0-2.02-.93-2.56-2.78-.34-1.2-.51-2.71-.51-4.81v-1.58ZM67.48,151.08c.09,0,.17.04.29.15.75.72,1.53,1.92,2.03,3.09.33.79.64,1.86.64,2.17,0,.15-.08.22-.39.39-.34.18-1.05.42-1.23.42-.13,0-.19-.08-.24-.34-.2-1.16-.46-2-.93-2.97-.42-.87-.45-.92-1.47-2.17.63-.46,1.12-.74,1.3-.74Z"/>
        <path d="M73.15,152.49h-.09c-.08.01-.14.01-.17.01-.13,0-.21-.06-.25-.25-.09-.38-.15-.84-.18-1.41.21.02.38.02.48.02.81,0,1.75-.06,2.55-.17.15-.99.22-1.75.22-2.37v-.34c1.74.22,2.07.33,2.06.6,0,.08-.03.12-.09.25-.18.34-.19.39-.43,1.58.58-.11,1.33-.3,1.63-.41.06-.03.08-.03.12-.03.13,0,.17.06.29.58.06.3.12.72.12.84,0,.1-.04.17-.18.19q-.27.09-2.32.45c-.69,3.04-1.41,5.29-2.57,8-.08.19-.15.27-.24.27-.2,0-.72-.21-1.23-.5-.25-.13-.33-.21-.33-.29,0-.06.04-.16.12-.31,1.14-2.16,1.96-4.46,2.54-6.93-.66.09-1.12.13-2.04.21ZM79.56,158.19c.44.29,1.07.42,1.95.42.97,0,1.82-.09,2.29-.24.12-.03.15-.04.21-.04.13,0,.2.04.24.18.1.32.18.93.18,1.39,0,.2-.06.27-.25.32-.5.11-1.33.17-2.22.17-1.88,0-2.92-.3-3.62-1.02-.25-.27-.46-.62-.58-.99-.09-.21-.15-.46-.15-.56,0-.25.45-.52,1.23-.78.17.63.34.9.72,1.15ZM83.77,153.83c-.3-.04-.93-.08-1.46-.08-1.11,0-1.57.04-2.89.27-.03.01-.08.01-.1.01-.09,0-.14-.03-.17-.12-.04-.1-.11-.84-.11-1.16,0-.19.03-.28.15-.33.06-.03.15-.04.46-.1,1.02-.18,1.88-.25,2.92-.25.87,0,1.32.03,1.42.1.08.06.09.18.09.68,0,.43-.03.82-.06.91-.02.05-.08.08-.15.08-.03,0-.08,0-.12-.01Z"/>
        <path d="M87.48,150.84c0-.43-.02-1.02-.04-1.35.69.08,1.2.18,1.6.33.36.13.48.22.48.39q0,.09-.06.24c-.2.51-.25,1.08-.25,2.45,0,1.92.12,3.12.42,4.03.22.71.57,1.11.97,1.11.62,0,1.12-.72,1.68-2.38.28.76.39.99.81,1.53.08.11.12.21.12.32,0,.24-.22.75-.53,1.18-.58.86-1.33,1.32-2.13,1.32-1.15,0-2.02-.93-2.56-2.78-.34-1.2-.51-2.71-.51-4.81v-1.58ZM96.4,151.08c.09,0,.17.04.29.15.75.72,1.53,1.92,2.03,3.09.33.79.64,1.86.64,2.17,0,.15-.08.22-.39.39-.34.18-1.05.42-1.23.42-.13,0-.19-.08-.24-.34-.2-1.16-.46-2-.93-2.97-.42-.87-.45-.92-1.47-2.17.63-.46,1.12-.74,1.3-.74Z"/>
        <path d="M108.43,147.84c-.04.24-.09.94-.09,1.48,0,2.34.38,3.84,1.41,5.68.6,1.07,1.25,1.83,2.26,2.73.86.73,1.29,1.05,2.22,1.54-.54.57-.78.92-1.11,1.6-1.74-1.21-2.64-2.05-3.66-3.39-.88-1.17-1.42-2.29-1.91-3.95-.28,1.16-.54,1.82-1.14,2.91-.57,1.05-1.2,1.83-2.21,2.76-.76.69-1.23,1.05-2.23,1.67-.33-.67-.62-1.04-1.12-1.48,1.48-.79,2.25-1.37,3.15-2.42,1.86-2.13,2.64-4.49,2.64-7.93,0-.56-.01-.83-.07-1.21h1.86Z"/>
        <path d="M119.94,152.69c-.19-.66-.25-1.07-.43-2.91-.06-.72-.12-1.08-.27-1.59.91.01,1.5.06,1.9.17.23.06.33.17.33.33,0,.06-.01.13-.04.25-.1.36-.15.63-.15,1.02,0,.74.15,1.94.32,2.46.09.29.18.39.34.39.36,0,1.68-.69,2.4-1.24.19-.15.22-.17.3-.17.13,0,.27.1.5.39.38.51.67,1.07.67,1.28,0,.17-.11.27-.36.34-.93.25-2.46.85-3.49,1.35-1.83.9-2.66,1.73-2.66,2.66s.76,1.29,2.7,1.29c1.12,0,2.14-.11,3.52-.33.06-.02.17-.03.2-.03.12,0,.19.06.25.18.04.15.15,1.07.15,1.43,0,.21-.06.28-.26.34-.33.08-2.14.18-3.28.18-1.92,0-3.2-.25-3.99-.79-.67-.46-1.04-1.2-1.04-2.1,0-.69.2-1.31.6-1.91.52-.78,1.09-1.27,2.35-2.02-.31-.29-.43-.5-.57-.96Z"/>
        <path d="M135.61,155.33c-.05.18-.06.29-.09.62-.12,1.36-.61,2.5-1.39,3.3-.45.45-1.08.88-1.7,1.18-.39.18-.75.32-1.56.55-.33-.71-.54-1.05-1.04-1.6.88-.12,1.35-.25,1.96-.54,1-.45,1.58-1.02,1.84-1.79.14-.39.24-.94.24-1.33,0-.13-.01-.33-.03-.48l1.75.09ZM130.12,156.45c.04-.34.06-.65.06-1.04v-1c0-.44-.01-.72-.06-1.07.45.04.86.06,1.54.06h9.51c.71,0,1.05-.02,1.58-.06-.04.3-.06.57-.06,1.02v1.04c0,.43.02.73.06,1.05h-1.68v-1.65h-9.3v1.65h-1.65ZM135.55,148.73c0-.51-.01-.78-.08-1.11h1.75c-.06.3-.07.57-.07,1.11v.17h3.88c.79,0,1.35-.03,1.72-.09v1.53c-.45-.04-.96-.08-1.7-.08h-3.91v.95h3.19c.72,0,1.11-.01,1.47-.08v1.49c-.42-.04-.75-.06-1.47-.06h-7.86c-.67,0-1.02.02-1.46.06v-1.49c.36.06.75.08,1.46.08h3.06v-.95h-3.69c-.75,0-1.23.02-1.71.08v-1.53c.36.06.93.09,1.74.09h3.66v-.17ZM138.55,158.76c0,.38.13.44,1.07.44,1.06,0,1.36-.05,1.5-.26.14-.17.2-.57.27-1.77.48.24.92.38,1.53.48-.12,1.47-.35,2.25-.72,2.59-.34.31-1.02.42-2.68.42-2.16,0-2.56-.2-2.56-1.23v-2.95c0-.59-.02-.89-.06-1.2h1.74c-.06.34-.08.57-.08,1.12v2.35Z"/>
        <path d="M148.95,153.3q.07-.12.73-1.23c.09.25.18.42.36.66.1.17.15.25.15.34s-.03.17-.39.75c-.25.45-.69,1.38-.87,1.83-.15.42-.21.45-.71.45s-.88-.06-.94-.15c-.09-.12-.15-.93-.15-2.04,0-1.47.11-2.5.5-5.11.04-.3.06-.45.06-.78,1.17.21,1.94.55,1.94.84,0,.08-.02.12-.12.25-.2.29-.32.67-.46,1.47-.18,1-.32,2.33-.32,3.12q.13-.24.23-.41ZM154.39,148.92v.25c.01.06.01.18.03.35q.01.24.04.61,0,.17.03.72c.04.72.07,1.44.07,1.8,0,2.82-.73,5.01-2.29,6.85-.6.71-1.12,1.11-1.42,1.11-.18,0-.19,0-.51-.24-.29-.22-.67-.42-1.06-.53,1.05-.75,1.62-1.27,2.17-2.07.93-1.33,1.38-2.92,1.38-4.86,0-2.05-.14-3.31-.48-4.23.63-.08,1.09-.11,1.53-.11s.51.03.51.29v.04Z"/>
        <path d="M159.91,152.49h-.09c-.08.01-.14.01-.17.01-.13,0-.21-.06-.25-.25-.09-.38-.15-.84-.18-1.41.21.02.38.02.48.02.81,0,1.75-.06,2.55-.17.15-.99.22-1.75.22-2.37v-.34c1.74.22,2.07.33,2.06.6,0,.08-.03.12-.09.25-.18.34-.19.39-.43,1.58.58-.11,1.33-.3,1.63-.41.06-.03.08-.03.12-.03.13,0,.17.06.29.58.06.3.12.72.12.84,0,.1-.04.17-.18.19q-.27.09-2.32.45c-.69,3.04-1.41,5.29-2.57,8-.08.19-.15.27-.24.27-.2,0-.72-.21-1.23-.5-.25-.13-.33-.21-.33-.29,0-.06.04-.16.12-.31,1.14-2.16,1.96-4.46,2.54-6.93-.66.09-1.12.13-2.04.21ZM166.32,158.19c.44.29,1.07.42,1.95.42.97,0,1.82-.09,2.29-.24.12-.03.15-.04.21-.04.13,0,.2.04.24.18.1.32.18.93.18,1.39,0,.2-.06.27-.25.32-.5.11-1.33.17-2.22.17-1.88,0-2.92-.3-3.62-1.02-.25-.27-.46-.62-.58-.99-.09-.21-.15-.46-.15-.56,0-.25.45-.52,1.23-.78.17.63.34.9.72,1.15ZM170.53,153.83c-.3-.04-.93-.08-1.46-.08-1.11,0-1.57.04-2.89.27-.03.01-.08.01-.1.01-.09,0-.14-.03-.17-.12-.04-.1-.11-.84-.11-1.16,0-.19.03-.28.15-.33.06-.03.15-.04.46-.1,1.02-.18,1.88-.25,2.92-.25.87,0,1.32.03,1.42.1.08.06.09.18.09.68,0,.43-.03.82-.06.91-.02.05-.08.08-.15.08-.03,0-.08,0-.12-.01Z"/>
        <path d="M174.24,150.84c0-.43-.02-1.02-.04-1.35.69.08,1.2.18,1.6.33.36.13.48.22.48.39q0,.09-.06.24c-.2.51-.25,1.08-.25,2.45,0,1.92.12,3.12.42,4.03.22.71.57,1.11.97,1.11.62,0,1.12-.72,1.68-2.38.28.76.39.99.81,1.53.08.11.12.21.12.32,0,.24-.22.75-.53,1.18-.58.86-1.33,1.32-2.13,1.32-1.15,0-2.02-.93-2.56-2.78-.34-1.2-.51-2.71-.51-4.81v-1.58ZM183.16,151.08c.09,0,.17.04.29.15.75.72,1.53,1.92,2.03,3.09.33.79.64,1.86.64,2.17,0,.15-.08.22-.39.39-.34.18-1.05.42-1.23.42-.13,0-.19-.08-.24-.34-.2-1.16-.46-2-.93-2.97-.42-.87-.45-.92-1.47-2.17.63-.46,1.12-.74,1.3-.74Z"/>
        <path d="M195.19,147.84c-.04.24-.09.94-.09,1.48,0,2.34.38,3.84,1.41,5.68.6,1.07,1.25,1.83,2.26,2.73.86.73,1.29,1.05,2.22,1.54-.54.57-.78.92-1.11,1.6-1.74-1.21-2.64-2.05-3.66-3.39-.88-1.17-1.42-2.29-1.91-3.95-.28,1.16-.54,1.82-1.14,2.91-.57,1.05-1.2,1.83-2.21,2.76-.76.69-1.23,1.05-2.23,1.67-.33-.67-.62-1.04-1.12-1.48,1.48-.79,2.25-1.37,3.15-2.42,1.86-2.13,2.64-4.49,2.64-7.93,0-.56-.01-.83-.07-1.21h1.86Z"/>
        <path d="M208.01,157.29c-.72,1.25-1.71,1.93-2.73,1.93-1.56,0-2.67-1.53-2.67-3.66,0-2.37,1.2-4.41,3.25-5.49,1-.54,2.08-.78,3.51-.78,3.14,0,5.46,2.22,5.46,5.19,0,2.62-1.29,4.51-3.78,5.58-.5.21-.89.33-1.08.33-.18,0-.25-.06-.45-.34-.25-.39-.54-.67-.95-.95,3.09-.79,4.49-2.25,4.49-4.68,0-1.25-.53-2.29-1.46-2.96-.53-.36-.95-.51-1.77-.64-.42,3.17-.92,4.89-1.83,6.46ZM205.85,151.98c-1,.88-1.58,2.14-1.58,3.55,0,1.16.38,1.83,1,1.83.75,0,1.52-1.04,2.08-2.82.36-1.12.54-1.98.77-3.64-1.07.22-1.59.48-2.28,1.08Z"/>
        <path d="M226.29,150c2.03,0,3.3,1.21,3.3,3.17s-1.41,3.09-3.75,3.09c-.51,0-1.04-.06-1.23-.13-.12-.04-.18-.12-.21-.25-.1-.5-.3-.98-.66-1.58.93.22,1.5.32,2.13.32,1.21,0,1.94-.56,1.94-1.52,0-.38-.11-.75-.25-.96-.27-.38-.86-.61-1.53-.61-.86,0-2.04.38-4.51,1.44q.94,2.35,1.47,3.79c.63,1.7,1.16,3.22,1.16,3.36,0,.12-.09.2-.39.33-.43.2-.99.38-1.18.38-.15,0-.17-.03-.32-.58-.69-2.52-1.3-4.35-2.22-6.58-1.14.52-1.68.82-2,1.12-.09.07-.18.12-.28.12-.2,0-.38-.15-.66-.55-.3-.42-.42-.64-.67-1.12.96-.27,1.57-.48,2.98-1.06-.78-1.79-.88-2-1.47-2.75.96-.38,1.5-.54,1.84-.54.32,0,.39.09.43.5.05.42.08.57.26.99.01.03.15.34.46,1.15,1.32-.54,1.78-.72,2.77-1.04-.06-.03-.08-.04-.12-.1-.51-.66-.82-.99-1.48-1.54-.03-.06-.04-.09-.04-.13q0-.09.51-.54c.2-.18.5-.36.58-.36.08,0,.15.03.24.09.92.69,1.54,1.32,1.54,1.58,0,.12-.45.62-.81.88.83-.22,1.54-.33,2.17-.33Z"/>
        <path d="M235.71,153.3q.07-.12.73-1.23c.09.25.18.42.36.66.1.17.15.25.15.34s-.03.17-.39.75c-.25.45-.69,1.38-.87,1.83-.15.42-.21.45-.71.45s-.88-.06-.94-.15c-.09-.12-.15-.93-.15-2.04,0-1.47.11-2.5.5-5.11.04-.3.06-.45.06-.78,1.17.21,1.94.55,1.94.84,0,.08-.02.12-.12.25-.2.29-.32.67-.46,1.47-.18,1-.32,2.33-.32,3.12q.13-.24.23-.41ZM241.15,148.92v.25c.01.06.01.18.03.35q.01.24.04.61,0,.17.03.72c.04.72.07,1.44.07,1.8,0,2.82-.73,5.01-2.29,6.85-.6.71-1.12,1.11-1.42,1.11-.18,0-.19,0-.51-.24-.29-.22-.67-.42-1.06-.53,1.05-.75,1.62-1.27,2.17-2.07.93-1.33,1.38-2.92,1.38-4.86,0-2.05-.14-3.31-.48-4.23.63-.08,1.09-.11,1.53-.11s.51.03.51.29v.04Z"/>
        <path d="M18.72,178.94c-.19-.66-.25-1.07-.43-2.91-.06-.72-.12-1.08-.27-1.59.91.01,1.5.06,1.9.17.23.06.33.17.33.33,0,.06-.01.13-.04.25-.1.36-.15.63-.15,1.02,0,.74.15,1.94.32,2.46.09.29.18.39.34.39.36,0,1.68-.69,2.4-1.24.19-.15.22-.17.3-.17.13,0,.27.1.5.39.38.51.67,1.07.67,1.28,0,.17-.11.27-.36.34-.93.25-2.46.85-3.49,1.35-1.83.9-2.66,1.73-2.66,2.66s.76,1.29,2.7,1.29c1.12,0,2.14-.11,3.52-.33.06-.02.17-.03.2-.03.12,0,.19.06.25.18.04.15.15,1.07.15,1.43,0,.21-.06.28-.26.34-.33.08-2.14.18-3.28.18-1.92,0-3.2-.25-3.99-.79-.67-.46-1.04-1.2-1.04-2.1,0-.69.2-1.31.6-1.91.52-.78,1.09-1.27,2.35-2.02-.31-.29-.43-.5-.57-.96Z"/>
        <path d="M33.27,179.55q.07-.12.73-1.23c.09.25.18.42.36.66.1.17.15.25.15.34s-.03.17-.39.75c-.25.45-.69,1.38-.87,1.83-.15.42-.21.45-.71.45s-.88-.06-.94-.15c-.09-.12-.15-.93-.15-2.04,0-1.47.11-2.5.5-5.11.04-.3.06-.45.06-.78,1.17.21,1.94.55,1.94.84,0,.08-.02.12-.12.25-.2.29-.32.67-.46,1.47-.18,1-.32,2.33-.32,3.12q.13-.24.23-.41ZM38.71,175.17v.25c.01.06.01.18.03.35q.01.24.04.61,0,.17.03.72c.04.72.07,1.44.07,1.8,0,2.82-.73,5.01-2.29,6.85-.6.71-1.12,1.11-1.42,1.11-.18,0-.19,0-.51-.24-.29-.22-.67-.42-1.06-.53,1.05-.75,1.62-1.27,2.17-2.07.93-1.33,1.38-2.92,1.38-4.86,0-2.05-.14-3.31-.48-4.23.63-.08,1.09-.11,1.53-.11s.51.03.51.29v.04Z"/>
        <path d="M45.73,178.04c-.39.09-.53.13-1.07.33-.19.08-.3.1-.39.1-.33,0-.63-.61-.9-1.9.96-.04,1.31-.09,2.97-.34,1.8-.27,4.08-.62,5.28-.77,1.35-.18,2.43-.36,3-.48.1-.03.15-.03.22-.03.2,0,.27.09.41.46.12.32.21.76.21.97,0,.18-.06.24-.27.24-.32,0-.6.03-.89.08-2.53.42-4.56,2.64-4.56,4.98,0,1.75,1.38,2.91,3.72,3.12.21.01.29.09.29.27,0,.38-.15,1.09-.29,1.42-.08.17-.19.24-.39.24s-.65-.09-1.11-.22c-2.55-.75-3.88-2.37-3.88-4.67,0-1.25.41-2.4,1.19-3.39.42-.54.78-.84,1.63-1.42-1.96.33-4.04.72-5.17,1ZM53.41,178.43c.21,0,1.48,1.43,1.48,1.65,0,.08-.09.17-.36.41-.29.24-.3.24-.42.28q-.08.03-.11.03c-.06,0-.08-.01-.34-.43-.24-.38-.5-.71-.97-1.2-.03-.03-.08-.11-.08-.12.03-.08.04-.12.06-.12.04-.06.3-.27.36-.31.15-.08.24-.14.25-.15.01-.03.04-.03.04-.03h.08ZM55.98,179.46c-.22.17-.36.25-.43.25-.06,0-.09-.03-.17-.15-.45-.67-.67-.96-1.16-1.42-.03-.05-.06-.09-.06-.12,0-.08.09-.17.3-.32.21-.15.39-.24.46-.24.11,0,.29.14.6.45.44.45.84,1,.84,1.14,0,.09-.11.2-.39.41Z"/>
        <path d="M58.35,177.56c1.03.57,1.57.96,2.59,1.81l-.92,1.35c-.99-.92-1.54-1.35-2.59-1.98l.92-1.18ZM60.9,182.45c-.56,1.69-1.05,2.86-1.73,4.06q-.1.2-.18.34t-.12.21l-1.38-1.2c.81-.98,1.41-2.16,2.15-4.32l1.26.9ZM58.96,174c1.02.6,1.59,1.04,2.54,1.92l-1,1.29c-.92-.94-1.37-1.32-2.52-2.05l.99-1.16ZM66.45,181.5c.85,1.88,2.26,3.15,4.41,4-.39.51-.55.84-.84,1.63-2.16-1.09-3.78-2.71-4.53-4.5-.71,2.06-1.94,3.41-4.19,4.61-.25-.58-.49-.93-.99-1.46,2.28-.96,3.46-2.25,3.93-4.29h-1.38c-.67,0-1.17.03-1.62.09v-1.69c.45.04.96.07,1.6.07h1.62c.06-.84.09-1.65.11-2.46h-1.19c-.61,0-1.15.03-1.53.08v-1.63c.46.06.9.08,1.53.08h1.17v-.76c0-.68-.03-.96-.09-1.37h1.74c-.08.42-.09.67-.09,1.33v.79h2.22c.66,0,1-.01,1.33-.06-.04.29-.06.6-.06,1.16v2.85q.6-.01,1.2-.09v1.71c-.46-.06-.96-.09-1.59-.09h-2.77ZM68.1,179.97v-2.46h-2c-.01,1.14-.04,1.82-.1,2.46h2.1Z"/>
        <path d="M77.85,179.51q-.03-.73-.04-1.67c-.13.02-.27.02-.33.02-.99,0-2.26-.11-2.79-.24-.15-.04-.18-.08-.18-.22,0-.33.04-.74.15-1.32.84.17,1.88.27,2.77.27.08,0,.21,0,.38-.01v-.99c0-.52-.01-.76-.04-1.29.75.05,1.26.09,1.62.18.3.06.39.13.39.3,0,.08-.01.1-.12.34-.1.25-.12.32-.18,1.35.9-.11,1.62-.26,2.33-.47.04-.01.06-.01.08-.01.1,0,.1.01.27.5.11.31.21.71.21.83,0,.1-.04.17-.19.21-.5.17-1.79.39-2.73.5,0,1.06,0,1.11.01,1.63,1.05-.14,1.62-.29,2.81-.72.07-.03.1-.04.15-.04.09,0,.12.04.27.41.15.38.29.79.29.95,0,.08-.06.13-.17.18-.83.3-2.33.66-3.27.76.03.57.06.89.15,2.06.84.25,1.18.39,1.83.73.72.36,1.11.62,1.75,1.12.12.09.17.17.17.29,0,.11-.14.36-.42.81-.33.5-.5.69-.6.69-.04,0-.09-.01-.13-.06-.9-.86-1.49-1.28-2.49-1.77-.06.72-.22,1.12-.63,1.5-.51.5-1.36.76-2.43.76-1.84,0-2.98-.81-2.98-2.11,0-.57.24-1.12.64-1.5.58-.54,1.47-.83,2.59-.83.36,0,.67.03,1.05.08-.07-.98-.1-1.32-.12-1.63-.34.01-.54.01-.72.01-1.04,0-2.29-.17-3-.38-.15-.04-.21-.12-.21-.24,0-.22.09-.71.23-1.32.93.22,2.11.36,3.22.36h.43ZM76.82,184.08c-.96,0-1.49.29-1.49.79,0,.45.43.69,1.28.69.97,0,1.42-.34,1.42-1.09v-.25c-.39-.1-.69-.13-1.21-.13Z"/>
        <path d="M90.11,179.46c1.89-.52,3.25-.76,4.27-.76,2.12,0,3.42,1.16,3.42,3.03,0,1.12-.46,2.12-1.35,2.87-.58.5-1.46.92-2.61,1.26-.64.18-1.33.32-1.63.32-.18,0-.27-.04-.33-.2-.21-.52-.45-.9-.76-1.21,3.3-.34,4.98-1.39,4.98-3.1,0-.87-.72-1.54-1.65-1.54-1.62,0-3.39.54-5.25,1.57-.15.08-.24.12-.3.12-.25,0-.67-.75-1.02-1.83.74-.1.99-.17,2.24-.51Z"/>
        <path d="M103.57,178.04c-.39.09-.53.13-1.07.33-.19.08-.3.1-.39.1-.33,0-.63-.61-.9-1.9.96-.04,1.31-.09,2.97-.34,1.8-.27,4.08-.62,5.28-.77,1.35-.18,2.43-.36,3-.48.1-.03.15-.03.22-.03.2,0,.27.09.41.46.12.32.21.76.21.97,0,.18-.06.24-.27.24-.32,0-.6.03-.89.08-2.53.42-4.56,2.64-4.56,4.98,0,1.75,1.38,2.91,3.72,3.12.21.01.29.09.29.27,0,.38-.15,1.09-.29,1.42-.08.17-.19.24-.39.24s-.65-.09-1.11-.22c-2.55-.75-3.88-2.37-3.88-4.67,0-1.25.41-2.4,1.19-3.39.42-.54.78-.84,1.63-1.42-1.96.33-4.04.72-5.17,1Z"/>
        <path d="M116.4,177.09c0-.43-.02-1.02-.04-1.35.69.08,1.2.18,1.6.33.36.13.48.22.48.39q0,.09-.06.24c-.2.51-.25,1.08-.25,2.45,0,1.92.12,3.12.42,4.03.22.71.57,1.11.97,1.11.62,0,1.12-.72,1.68-2.38.28.76.39.99.81,1.53.08.11.12.21.12.32,0,.24-.22.75-.53,1.18-.58.86-1.33,1.32-2.13,1.32-1.15,0-2.02-.93-2.56-2.78-.34-1.2-.51-2.71-.51-4.81v-1.58ZM125.32,177.33c.09,0,.17.04.29.15.75.72,1.53,1.92,2.03,3.09.33.79.64,1.86.64,2.17,0,.15-.08.22-.39.39-.34.18-1.05.42-1.23.42-.13,0-.19-.08-.24-.34-.2-1.16-.46-2-.93-2.97-.42-.87-.45-.92-1.47-2.17.63-.46,1.12-.74,1.3-.74Z"/>
        <path d="M138.01,179.19c2.12,0,3.62,1.44,3.62,3.48,0,1.39-.74,2.66-1.96,3.39-.86.51-1.91.77-3.09.77-1.91,0-3.02-.77-3.02-2.07,0-1.18.99-2.02,2.4-2.02,1.27,0,2.19.64,2.8,1.96.76-.56,1.08-1.14,1.08-1.95,0-1.29-.92-2.13-2.36-2.13s-3.04.73-4.35,2.04c-.24.24-.46.5-.73.84-.11.15-.18.21-.27.21-.27,0-1.33-1.05-1.33-1.32,0-.13.06-.21.39-.45.34-.27.84-.7,1.47-1.3,1.46-1.38,2.52-2.54,4.09-4.46-1.88.24-3.13.45-3.6.62-.08.02-.12.03-.17.03-.12,0-.2-.08-.29-.3-.18-.45-.27-.95-.32-1.61.41.06.69.08,1.02.08.72,0,1.93-.1,3.51-.29.55-.06.73-.1,1.16-.27.13-.06.21-.08.3-.08.21,0,.42.18.81.78.29.39.38.58.38.71,0,.19-.04.25-.38.46-.27.17-.43.3-.78.63-.75.72-.76.72-1.69,1.67-.66.67-.74.75-1.33,1.35.97-.54,1.74-.76,2.64-.76ZM136.57,184.38c-.23-.15-.48-.22-.77-.22-.46,0-.76.22-.76.58,0,.43.46.71,1.18.71.33,0,.62-.03.99-.14-.18-.5-.33-.72-.64-.93Z"/>
        <path d="M150.16,183.54c-.72,1.25-1.71,1.93-2.73,1.93-1.56,0-2.67-1.53-2.67-3.66,0-2.37,1.2-4.41,3.25-5.49,1-.54,2.08-.78,3.51-.78,3.14,0,5.46,2.22,5.46,5.19,0,2.62-1.29,4.51-3.78,5.58-.5.21-.89.33-1.08.33-.18,0-.25-.06-.45-.34-.25-.39-.54-.67-.95-.95,3.09-.79,4.49-2.25,4.49-4.68,0-1.25-.53-2.29-1.46-2.96-.53-.36-.95-.51-1.77-.64-.42,3.17-.92,4.89-1.83,6.46ZM148,178.23c-1,.88-1.58,2.14-1.58,3.55,0,1.16.38,1.83,1,1.83.75,0,1.52-1.04,2.08-2.82.36-1.12.54-1.98.77-3.64-1.07.22-1.59.48-2.28,1.08Z"/>
        <path d="M165.9,179.21c.03,1.12.06,1.71.21,3.21,1.26.41,1.86.66,2.75,1.14,1.18.67,1.79,1.12,1.79,1.33,0,.18-.2.53-.54,1.02-.23.33-.39.48-.51.48-.08,0-.14-.03-.24-.13-1.07-1.02-1.92-1.58-3.18-2.08-.03.92-.2,1.39-.63,1.84-.53.53-1.44.81-2.62.81-1.96,0-3.17-.87-3.17-2.29,0-1.52,1.32-2.48,3.38-2.48.5,0,.93.03,1.3.08-.15-2.46-.2-3.64-.21-5.85-.01-.87-.04-1.39-.13-2.1.69.01,1.38.09,1.79.19.24.08.33.15.33.32,0,.08-.01.12-.06.24-.17.39-.22.96-.25,2.62q.12,0,.58-.03c.72-.04,1.74-.23,2.88-.54.04-.01.08-.01.12-.01.09,0,.12.03.18.18.15.36.32,1.09.32,1.35,0,.12-.06.17-.2.21-1.16.27-2.77.5-3.66.5h-.21ZM162.96,183.53c-1.02,0-1.63.34-1.63.91,0,.53.51.8,1.46.8,1.15,0,1.66-.41,1.66-1.35v-.12c-.49-.18-.92-.24-1.48-.24Z"/>
        <path d="M181.02,185.66c0,.66-.52,1.18-1.18,1.18s-1.19-.53-1.19-1.18.53-1.19,1.19-1.19,1.18.53,1.18,1.19ZM180.49,183.44h-1.33l-.41-8.98h2.16l-.42,8.98Z"/>
      </g>
      <circle class="cls-9" cx="308.24" cy="183.78" r="30"/>
      <path class="cls-8" d="M329.77,1.42H90.4c-4.68,0-8.47,3.79-8.47,8.47v43.9s-9.69,9.69-9.69,9.69h9.69s0,.5,0,.5c0,4.68,3.79,8.47,8.47,8.47h239.38c4.68,0,8.47-3.79,8.47-8.47V9.89c0-4.68-3.79-8.47-8.47-8.47Z"/>
      <g>
        <path d="M104.5,23.55h2.13c.68,0,1.1-.03,1.54-.09v1.63c-.48-.04-.93-.07-1.56-.07h-1.62c.86,1.5,2.1,2.74,3.58,3.58-.48.48-.69.78-.99,1.5-.61-.43-1.05-.85-1.62-1.5-.74-.85-1.05-1.32-1.53-2.22.03.54.04,1,.04,1.44v1.81c0,.67.03,1.2.09,1.67h-1.67c.06-.46.09-1,.09-1.68v-1.71c0-.4.02-.88.04-1.48-.91,1.65-1.93,2.76-3.39,3.73-.38-.71-.58-1-.9-1.36,1.54-.89,2.8-2.17,3.67-3.78h-.95c-.64,0-1.11.03-1.58.09v-.6c-.25.36-.43.69-.61,1.22-.38-.59-.6-1.05-.89-1.8.03.47.06,1.27.06,1.91v3.69c0,.77.03,1.32.09,1.77h-1.67c.06-.46.09-1.02.09-1.77v-3.1c0-.57.02-.93.11-1.86-.44,1.46-.87,2.43-1.52,3.41-.18-.68-.37-1.11-.67-1.6.72-.92,1.47-2.61,1.92-4.35h-.57c-.44,0-.69.02-.96.06v-1.53c.24.04.51.06.96.06h.72v-1.16c0-.76-.01-1.14-.08-1.5h1.65c-.06.39-.08.8-.08,1.5v1.16h.43c.36,0,.54-.02.78-.06v1.42c.57-1.02,1.05-2.52,1.09-3.49l1.46.38c-.06.17-.1.34-.21.79-.08.27-.1.4-.18.69h1.15v-.99c0-.61-.03-.99-.09-1.36h1.68c-.06.36-.09.77-.09,1.36v.99h1.7c.72,0,1.14-.03,1.54-.09v1.58c-.42-.04-.9-.08-1.54-.08h-1.7v1.81ZM101.37,21.74c-.25.62-.39.9-.81,1.6q-.36-.38-1.17-.94c.12-.17.17-.24.24-.35-.2-.03-.44-.04-.71-.04h-.38c.34.79.71,1.4,1.36,2.28v-.82c.45.06.87.09,1.56.09h1.53v-1.81h-1.63Z"/>
        <path d="M115.35,27.6c-.72,1.25-1.71,1.94-2.73,1.94-1.56,0-2.67-1.53-2.67-3.66,0-2.37,1.2-4.41,3.25-5.49,1-.54,2.08-.78,3.51-.78,3.14,0,5.46,2.22,5.46,5.19,0,2.62-1.29,4.51-3.78,5.58-.5.21-.89.33-1.08.33-.18,0-.25-.06-.45-.34-.25-.39-.54-.68-.95-.95,3.09-.79,4.49-2.25,4.49-4.68,0-1.25-.53-2.29-1.46-2.96-.53-.36-.95-.51-1.77-.64-.42,3.16-.92,4.89-1.83,6.46ZM113.19,22.29c-1,.88-1.58,2.15-1.58,3.55,0,1.16.38,1.83,1,1.83.75,0,1.52-1.04,2.08-2.82.36-1.12.54-1.98.77-3.65-1.07.23-1.59.48-2.28,1.08Z"/>
        <path d="M125.23,25.31c0-.52,0-1.03.03-1.6-.42.74-.62,1.02-1,1.5-.15-.6-.36-1.17-.65-1.71.96-1.06,1.59-2.14,2.13-3.58.35-.9.45-1.33.56-2.06l1.63.39q-.71,2.13-1.21,3.24v8.08c0,.63.01,1.12.07,1.66h-1.65c.06-.58.09-.97.09-1.68v-4.25ZM127.69,31.26c.06-.51.08-.89.08-1.77v-6.34c0-.72-.03-1.2-.09-1.62h1.6c-.04.45-.06.89-.06,1.64v6.04h6.34c.72,0,1.15-.01,1.59-.07v1.54c-.5-.06-.96-.09-1.61-.09h-6.33v.68h-1.53ZM129.34,20.54c-.58,0-.93.02-1.35.06v-1.52c.38.06.77.08,1.52.08h2.56c.06-.51.08-.65.1-1.2l1.59.09q-.14.79-.2,1.11h2.19c.69,0,1.02-.02,1.5-.09v1.53c-.42-.04-.84-.06-1.32-.06h-2.62c-.06.3-.13.61-.21.94h2.07c.6,0,.95-.02,1.21-.03-.04.46-.04.7-.04,1.38v4.36c0,.6,0,.82.04,1.27-.45-.02-.82-.03-1.23-.03h-3.71c-.42,0-.76.01-1.21.03.03-.31.04-.69.04-1.14v-4.71c0-.54-.01-.93-.04-1.17.36.03.57.03,1.16.03h.21c.1-.34.15-.58.22-.94h-2.49ZM131.74,23.45h3.15v-.75h-3.15v.75ZM131.74,25.29h3.15v-.77h-3.15v.77ZM131.74,27.21h3.15v-.84h-3.15v.84Z"/>
        <path d="M146.74,19.88c-.03.98-.12,1.46-.36,2.06-.28.72-.61,1.17-1.41,1.88-.41-.51-.57-.68-1.02-1.01-.54-.04-.62-.04-1.21-.04h-2.05v1.4h2.02c.72,0,.93-.02,1.35-.06v1.46c-.39-.03-.72-.04-1.33-.04h-2.04v1.72c1.58-.19,1.83-.24,3.52-.58l.03,1.4c-1.51.35-2.29.5-3.55.69v.95c0,.57.03,1,.09,1.53h-1.7c.06-.57.09-.98.09-1.52v-.75c-.24.04-.39.08-.48.09-.13.01-.15.01-.22.04l-.18-1.67c.17.02.21.02.25.02.15,0,.41-.02.63-.03v-6.99c0-.61-.02-.88-.08-1.32,1.41-.12,2.96-.45,3.87-.82.36-.14.38-.15.74-.38l.87,1.47q-.25.06-.88.27c-1.32.42-1.63.5-3,.75v1.03h2.04c.72,0,.93-.01,1.35-.06v1.12c.95-.75,1.25-1.54,1.25-3.29,0-.33-.01-.58-.04-.82.3.03.58.04,1.05.04h2.17c.55,0,.79-.02,1.14-.04-.03.38-.04.67-.04,1.2v2.08c0,.19.09.24.46.24.3,0,.39-.08.45-.36.06-.33.09-.66.11-1.35.43.27.75.4,1.25.57-.09,1.19-.2,1.69-.42,2.05-.22.35-.57.45-1.53.45-.66,0-1.17-.06-1.38-.18-.25-.13-.33-.33-.33-.82v-2.37h-1.46ZM151.15,24.74c-.15.23-.27.42-.39.65-.67,1.25-1.26,2.1-1.99,2.91.94.65,1.9,1.06,3.27,1.38-.36.52-.48.75-.76,1.5-1.59-.54-2.6-1.06-3.62-1.86-1.07.83-2.33,1.44-4.04,1.95-.21-.58-.42-.98-.79-1.47,1.63-.38,2.67-.79,3.76-1.54-.7-.88-1.06-1.53-1.51-2.8-.25.02-.39.03-.66.06v-1.59c.27.04.48.06.93.06h3.97c.54,0,.73-.01,1.02-.06l.81.82ZM146.52,25.44c.34.85.6,1.27,1.15,1.88.71-.72.92-.99,1.4-1.88h-2.55Z"/>
        <path d="M156.51,23.52c1.89-.52,3.25-.77,4.27-.77,2.12,0,3.42,1.16,3.42,3.03,0,1.12-.46,2.12-1.35,2.87-.58.49-1.46.92-2.61,1.26-.64.18-1.33.31-1.63.31-.18,0-.27-.04-.33-.19-.21-.52-.45-.9-.76-1.21,3.3-.35,4.98-1.4,4.98-3.1,0-.87-.72-1.54-1.65-1.54-1.62,0-3.39.54-5.25,1.57-.15.08-.24.12-.3.12-.25,0-.67-.75-1.02-1.83.74-.1.99-.17,2.24-.51Z"/>
        <path d="M169.98,22.1c-.39.09-.53.13-1.07.33-.19.08-.3.1-.39.1-.33,0-.63-.61-.9-1.9.96-.04,1.31-.09,2.97-.34,1.8-.27,4.08-.62,5.28-.77,1.35-.18,2.43-.36,3-.48.1-.03.15-.03.22-.03.2,0,.27.09.41.46.12.31.21.76.21.97,0,.18-.06.24-.27.24-.32,0-.6.03-.89.08-2.53.42-4.56,2.64-4.56,4.98,0,1.75,1.38,2.91,3.72,3.12.21.01.29.09.29.27,0,.38-.15,1.09-.29,1.42-.08.17-.19.24-.39.24s-.65-.09-1.11-.22c-2.55-.75-3.88-2.37-3.88-4.67,0-1.25.41-2.4,1.19-3.39.42-.54.78-.84,1.63-1.43-1.96.33-4.04.72-5.17,1.01Z"/>
        <path d="M181.86,20.39c.33.06.62.07,1.16.07h2.82c.58,0,.84-.02,1.16-.06v1.47c-.34-.04-.53-.04-1.09-.04h-2.88c-.51,0-.83.01-1.16.06v-1.5ZM182.34,18.38c.36.04.59.06,1.17.06h1.98c.58,0,.79-.02,1.17-.06v1.41c-.36-.03-.66-.04-1.17-.04h-1.98c-.51,0-.8.01-1.17.04v-1.41ZM182.34,31.25c.05-.44.08-.94.08-1.4v-2.11c0-.48-.01-.72-.06-1.12.36.03.6.04,1.12.04h2.23c.5,0,.75-.02.96-.04-.03.31-.03.5-.03,1.05v2.28c0,.56.01.77.04,1.11h-1.4v-.48h-1.47v.67h-1.49ZM192.43,26.09h.9c.57,0,.9-.02,1.18-.06v1.41c-.21-.04-.63-.06-1.18-.06h-.9v1.71h1.12c.69,0,1.1-.01,1.42-.07v1.53c-.4-.04-.87-.07-1.45-.07h-4.32v.78h-1.54c.06-.46.08-.84.08-1.5v-5.2c0-.06.01-.18.01-.31,0-.21,0-.29.02-.45-.18.27-.26.36-.51.66-.22-.42-.38-.68-.64-1.06v.54c-.29-.03-.46-.05-.88-.05h-2.43c-.45,0-.63.02-.92.05v-1.35c.25.03.49.04.92.04h2.43c.45,0,.64-.02.88-.04v.21c1.08-1.27,1.83-3,2.12-4.84l1.65.34c-.08.17-.2.5-.36,1-.15.41-.33.92-.42,1.14h1.54c.47-.94.71-1.57.93-2.43l1.54.42c-.48,1.11-.65,1.47-.93,2.01h.6c.62,0,1.09-.03,1.46-.08v1.53c-.39-.04-.78-.06-1.46-.06h-.86v1.47h.9c.58,0,.88-.01,1.18-.06v1.41c-.3-.04-.55-.06-1.17-.06h-.92v1.52ZM182.38,24.57c.25.03.49.04.92.04h2.43c.43,0,.64-.01.88-.04v1.35c-.25-.03-.48-.04-.92-.04h-2.42c-.42,0-.63.01-.9.04v-1.35ZM183.79,29.31h1.5v-1.44h-1.5v1.44ZM190.99,23.28v-1.47h-1.79v1.47h1.79ZM189.21,26.09h1.79v-1.52h-1.79v1.52ZM189.21,29.09h1.79v-1.71h-1.79v1.71Z"/>
        <path d="M197.7,23.88c-.12.03-.18.06-.27.1-.08.04-.12.06-.18.06-.33,0-.57-.57-.75-1.68h.29c.63,0,2.24-.19,3.2-.39.31-1.31.48-2.31.48-3.02,0-.06,0-.15-.01-.25.64.06,1.26.19,1.68.38.24.09.36.21.36.36,0,.08-.02.14-.09.26q-.23.39-.69,2.04c.36-.04.76-.07,1.02-.07.62,0,1.1.12,1.44.36.6.44.9,1.32.9,2.69,0,2.23-.41,4.15-1.1,5.1-.48.66-1.11.98-2,.98-.54,0-1.05-.08-1.2-.17q-.12-.08-.17-.63c-.04-.41-.13-.77-.32-1.19.78.27.98.31,1.46.31.72,0,1.02-.35,1.35-1.56.23-.79.35-1.81.35-2.92,0-1.17-.29-1.59-1.08-1.59-.27,0-.71.04-1.05.09-.04.18-.06.19-.12.39-.42,1.54-1.19,3.55-1.95,5.17-.79,1.63-.99,1.96-1.18,1.96-.12,0-.53-.21-.96-.5-.35-.21-.44-.3-.44-.42q0-.07.62-1.05c.83-1.27,1.91-3.77,2.28-5.25-1.11.25-1.73.39-1.86.44ZM207.12,20.81c-.24.18-.41.25-.48.25-.04,0-.09-.03-.13-.1-.32-.51-.84-1.1-1.28-1.47-.03-.03-.04-.06-.04-.09,0-.06.11-.17.36-.36.25-.18.33-.23.43-.23.24,0,1.56,1.33,1.56,1.58,0,.09-.12.19-.42.42ZM205.53,22.4c0-.1.13-.24.57-.58.3-.23.45-.31.57-.31.2,0,.87.72,1.5,1.6.52.75,1.09,1.81,1.09,2.07,0,.15-.04.19-.52.58-.3.24-.65.44-.77.44-.1,0-.15-.04-.25-.3-.29-.72-.54-1.21-.95-1.86-.4-.65-.43-.67-1.15-1.45-.06-.08-.09-.12-.09-.18ZM207.49,17.79c.25,0,1.53,1.27,1.53,1.53,0,.07-.09.16-.39.38-.27.21-.41.28-.46.28q-.08,0-.38-.42c-.25-.34-.74-.85-1-1.08-.04-.04-.08-.07-.08-.12,0-.12.62-.57.78-.57Z"/>
        <path d="M211.51,21.62c1.03.57,1.57.96,2.59,1.81l-.92,1.35c-.99-.92-1.54-1.35-2.59-1.98l.92-1.18ZM214.06,26.51c-.56,1.69-1.05,2.86-1.73,4.06q-.1.19-.18.34t-.12.21l-1.38-1.2c.81-.98,1.41-2.16,2.15-4.32l1.26.9ZM212.13,18.06c1.02.6,1.59,1.04,2.54,1.92l-1,1.29c-.92-.94-1.37-1.32-2.52-2.05l.99-1.16ZM219.61,25.56c.85,1.87,2.26,3.15,4.41,4-.39.51-.55.84-.84,1.63-2.16-1.1-3.78-2.71-4.53-4.5-.71,2.06-1.94,3.4-4.19,4.6-.25-.58-.49-.93-.99-1.46,2.28-.96,3.46-2.25,3.93-4.29h-1.38c-.67,0-1.17.03-1.62.09v-1.69c.45.04.96.07,1.6.07h1.62c.06-.84.09-1.65.11-2.46h-1.19c-.61,0-1.15.03-1.53.08v-1.63c.46.06.9.07,1.53.07h1.17v-.76c0-.68-.03-.96-.09-1.37h1.74c-.08.42-.09.68-.09,1.33v.79h2.22c.66,0,1-.01,1.33-.06-.04.29-.06.6-.06,1.16v2.85q.6-.01,1.2-.09v1.71c-.46-.06-.96-.09-1.59-.09h-2.77ZM221.26,24.03v-2.46h-2c-.01,1.14-.04,1.81-.1,2.46h2.1Z"/>
        <path d="M232.14,21.26c.23-1.23.3-1.75.3-2.25,0-.06,0-.15-.01-.26,1.26.18,1.98.47,1.98.79,0,.12-.02.14-.18.44-.12.21-.22.57-.43,1.37,1.02.18,1.88.63,2.55,1.3.83.83,1.23,1.85,1.23,3.09,0,2.08-1.14,3.71-3.16,4.53-.41.17-1.2.38-1.4.38-.12,0-.2-.06-.3-.21-.24-.39-.6-.78-1.04-1.09,1.51-.26,2.24-.52,2.99-1.14.79-.65,1.2-1.48,1.2-2.5,0-1.52-.97-2.74-2.41-3.03-.5,1.56-1.04,2.8-1.7,3.94.22.23.36.36.6.58.17.15.23.24.23.34,0,.26-.84,1.08-1.08,1.08-.12,0-.32-.13-.75-.57-.92,1.09-1.82,1.63-2.71,1.63-1.25,0-2.07-1.05-2.07-2.65,0-1.44.6-2.77,1.75-3.9-.21-.54-.24-.67-.57-1.71-.12-.39-.25-.81-.44-1.24.54-.12,1.25-.23,1.61-.23.15,0,.24.04.28.15q.05.08.06.44c.01.31.15.88.38,1.57.97-.55,2.07-.87,3.1-.85ZM228.36,24.62c-.56.74-.86,1.52-.86,2.22s.29,1.12.72,1.12c.46,0,.9-.31,1.51-1.06-.55-.74-.93-1.37-1.38-2.28ZM231.79,22.61c-.83.12-1.47.36-2.23.87.39.78.69,1.29,1.15,1.9.51-.99.81-1.75,1.08-2.77Z"/>
        <path d="M242.28,22.1c-.39.09-.53.13-1.07.33-.19.08-.3.1-.39.1-.33,0-.63-.61-.9-1.9.96-.04,1.31-.09,2.97-.34,1.8-.27,4.08-.62,5.28-.77,1.35-.18,2.43-.36,3-.48.1-.03.15-.03.22-.03.2,0,.27.09.41.46.12.31.21.76.21.97,0,.18-.06.24-.27.24-.32,0-.6.03-.89.08-2.53.42-4.56,2.64-4.56,4.98,0,1.75,1.38,2.91,3.72,3.12.21.01.29.09.29.27,0,.38-.15,1.09-.29,1.42-.08.17-.19.24-.39.24s-.65-.09-1.11-.22c-2.55-.75-3.88-2.37-3.88-4.67,0-1.25.41-2.4,1.19-3.39.42-.54.78-.84,1.63-1.43-1.96.33-4.04.72-5.17,1.01Z"/>
        <path d="M262.26,23.25c2.12,0,3.62,1.44,3.62,3.48,0,1.39-.74,2.65-1.96,3.39-.86.51-1.91.77-3.09.77-1.91,0-3.02-.77-3.02-2.07,0-1.19.99-2.02,2.4-2.02,1.27,0,2.19.64,2.8,1.96.76-.56,1.08-1.14,1.08-1.95,0-1.29-.92-2.13-2.36-2.13s-3.04.73-4.35,2.04c-.24.24-.46.5-.73.84-.11.15-.18.21-.27.21-.27,0-1.33-1.05-1.33-1.32,0-.13.06-.21.39-.45.34-.27.84-.7,1.47-1.3,1.46-1.38,2.52-2.54,4.09-4.46-1.88.24-3.13.45-3.6.62-.08.02-.12.03-.17.03-.12,0-.2-.07-.29-.3-.18-.45-.27-.94-.32-1.6.41.06.69.08,1.02.08.72,0,1.93-.1,3.51-.29.55-.06.73-.1,1.16-.27.13-.06.21-.08.3-.08.21,0,.42.18.81.78.29.39.38.58.38.71,0,.19-.04.25-.38.46-.27.17-.43.3-.78.63-.75.72-.76.72-1.69,1.67-.66.67-.74.75-1.33,1.35.97-.54,1.74-.77,2.64-.77ZM260.82,28.44c-.23-.15-.48-.23-.77-.23-.46,0-.76.23-.76.58,0,.44.46.71,1.18.71.33,0,.62-.03.99-.14-.18-.5-.33-.72-.64-.93Z"/>
        <path d="M274.41,27.6c-.72,1.25-1.71,1.94-2.73,1.94-1.56,0-2.67-1.53-2.67-3.66,0-2.37,1.2-4.41,3.25-5.49,1-.54,2.08-.78,3.51-.78,3.14,0,5.46,2.22,5.46,5.19,0,2.62-1.29,4.51-3.78,5.58-.5.21-.89.33-1.08.33-.18,0-.25-.06-.45-.34-.25-.39-.54-.68-.95-.95,3.09-.79,4.49-2.25,4.49-4.68,0-1.25-.53-2.29-1.46-2.96-.53-.36-.95-.51-1.77-.64-.42,3.16-.92,4.89-1.83,6.46ZM272.25,22.29c-1,.88-1.58,2.15-1.58,3.55,0,1.16.38,1.83,1,1.83.75,0,1.52-1.04,2.08-2.82.36-1.12.54-1.98.77-3.65-1.07.23-1.59.48-2.28,1.08Z"/>
        <path d="M285.79,20.98c.34-.9.67-1.38,1.25-1.86.69-.57,1.51-.84,2.56-.84,2.25,0,3.69,1.23,3.69,3.15,0,.65-.18,1.26-.53,1.75-.27.39-.39.51-1.23,1.27-1.17,1.05-1.42,1.46-1.42,2.25v.79h-1.53v-.84c0-.67.13-1.27.41-1.75.21-.38.43-.63,1.03-1.23.63-.61.83-.84.99-1.11.21-.3.33-.72.33-1.12,0-1-.67-1.63-1.74-1.63s-1.69.55-2.14,1.86l-1.67-.69ZM290.58,29.72c0,.66-.53,1.18-1.19,1.18s-1.18-.52-1.18-1.18.52-1.19,1.18-1.19,1.19.52,1.19,1.19Z"/>
        <path d="M300.45,22.69c-.96.6-1.29.78-2.31,1.24-.25-.58-.48-.97-.84-1.48,1.53-.6,2.54-1.15,3.62-2,.96-.73,1.68-1.51,2.28-2.43h1.7c.76,1.06,1.35,1.63,2.45,2.4,1.21.87,2.4,1.48,3.7,1.95-.4.62-.6,1.02-.81,1.62-.9-.39-1.46-.69-2.45-1.32v1.12c-.39-.04-.75-.06-1.29-.06h-4.82c-.41,0-.84.02-1.23.06v-1.11ZM299.65,26.39c-.75,0-1.23.03-1.7.09v-1.66c.45.04,1.02.07,1.7.07h8.95c.72,0,1.21-.03,1.7-.07v1.66c-.48-.06-.96-.09-1.7-.09h-4.93c-.48,1.1-.93,1.94-1.5,2.79q2.49-.14,4.56-.36c-.46-.51-.72-.78-1.51-1.59l1.42-.63c1.54,1.56,2.17,2.29,3.33,3.82l-1.4.92c-.4-.61-.52-.79-.85-1.24-1.2.15-2.05.25-2.59.3-1.5.15-4.23.4-4.84.45-.81.04-1.53.12-1.86.19l-.22-1.75c.43.03.62.04.81.04.12,0,.56-.02,1.29-.06.71-1.08,1.16-1.94,1.53-2.88h-2.17ZM306.48,22.23c.2,0,.33,0,.63-.02-1.3-.87-2.14-1.65-3.01-2.8-.75,1.02-1.62,1.84-2.98,2.8.24.02.36.02.58.02h4.78Z"/>
        <path d="M315.64,29.79c0,.68.02,1.05.09,1.47h-1.74c.06-.44.09-.83.09-1.5v-3.61c-.58.52-.88.75-1.61,1.23-.18-.56-.43-1.08-.73-1.5,1-.58,1.7-1.12,2.47-1.95.67-.71,1.09-1.3,1.56-2.22h-2.34c-.51,0-.86.02-1.2.06v-1.6c.38.04.66.06,1.12.06h.73v-1.2c0-.39-.03-.76-.09-1.09h1.72c-.06.31-.07.66-.07,1.11v1.19h.6c.43,0,.6-.02.83-.04l.69.75c-.12.19-.21.37-.31.61-.48,1.05-.74,1.48-1.44,2.46.67.77,1.33,1.29,2.28,1.81-.33.46-.54.85-.78,1.42-.76-.48-1.21-.88-1.88-1.62v4.17ZM321.76,29.1h1.72c.72,0,1.21-.03,1.65-.07v1.72c-.51-.06-1.07-.09-1.65-.09h-4.92c-.6,0-1.12.03-1.62.09v-1.72c.45.04.96.07,1.63.07h1.57v-5.62h-1.08c-.48,0-.96.03-1.41.07v-1.63c.41.06.81.08,1.41.08h1.08v-2.54c0-.6-.03-.94-.09-1.5h1.79c-.08.57-.09.85-.09,1.5v2.54h1.51c.66,0,1.04-.02,1.42-.08v1.63c-.46-.04-.92-.07-1.42-.07h-1.51v5.62Z"/>
        <path d="M100.89,53.85c-.72,1.25-1.71,1.94-2.73,1.94-1.56,0-2.67-1.53-2.67-3.66,0-2.37,1.2-4.41,3.25-5.49,1-.54,2.08-.78,3.51-.78,3.14,0,5.46,2.22,5.46,5.19,0,2.62-1.29,4.51-3.78,5.58-.5.21-.89.33-1.08.33-.18,0-.25-.06-.45-.34-.25-.39-.54-.68-.95-.95,3.09-.79,4.49-2.25,4.49-4.68,0-1.25-.53-2.29-1.46-2.96-.53-.36-.95-.51-1.77-.64-.42,3.16-.92,4.89-1.83,6.46ZM98.73,48.54c-1,.88-1.58,2.15-1.58,3.55,0,1.16.38,1.83,1,1.83.75,0,1.52-1.04,2.08-2.82.36-1.12.54-1.98.77-3.65-1.07.23-1.59.48-2.28,1.08Z"/>
        <path d="M117,44.41c-.04.24-.09.94-.09,1.48,0,2.34.38,3.84,1.41,5.68.6,1.06,1.25,1.83,2.26,2.73.86.73,1.29,1.05,2.22,1.54-.54.57-.78.92-1.11,1.6-1.74-1.21-2.64-2.06-3.66-3.39-.88-1.17-1.42-2.29-1.91-3.94-.28,1.16-.54,1.81-1.14,2.91-.57,1.05-1.2,1.83-2.21,2.76-.76.69-1.23,1.05-2.23,1.67-.33-.67-.62-1.04-1.12-1.48,1.48-.79,2.25-1.37,3.15-2.42,1.86-2.13,2.64-4.48,2.64-7.93,0-.56-.01-.83-.07-1.21h1.86Z"/>
        <path d="M126.73,47.23c.34-.9.67-1.38,1.25-1.86.69-.57,1.51-.84,2.56-.84,2.25,0,3.69,1.23,3.69,3.15,0,.65-.18,1.26-.53,1.75-.27.39-.39.51-1.23,1.27-1.17,1.05-1.42,1.46-1.42,2.25v.79h-1.53v-.84c0-.67.13-1.27.41-1.75.21-.38.43-.63,1.03-1.23.63-.61.83-.84.99-1.11.21-.3.33-.72.33-1.12,0-1-.67-1.63-1.74-1.63s-1.69.55-2.14,1.86l-1.67-.69ZM131.52,55.97c0,.66-.53,1.18-1.19,1.18s-1.18-.52-1.18-1.18.52-1.19,1.18-1.19,1.19.52,1.19,1.19Z"/>
        <path d="M150.15,50.54c-.69,0-1.79.23-2.54.51-1.59.61-2.64,1.74-2.64,2.83,0,.69.45,1.15,1.35,1.38.41.1,1.11.18,1.6.17h.15c.25,0,.34.09.34.28,0,.5-.09,1.19-.17,1.38-.06.12-.13.16-.29.16-.91,0-2.07-.24-2.85-.6-1.15-.51-1.79-1.4-1.79-2.5,0-.71.27-1.43.78-2.07.29-.35.51-.56,1.05-.93-2.73.83-4.09,1.35-5.01,1.95-.12.08-.19.1-.27.1-.17,0-.3-.13-.51-.51-.21-.35-.36-.77-.36-.99,0-.14.06-.18.42-.29.34-.1.58-.25,1.16-.66.69-.51,1.77-1.44,2.7-2.32.77-.73,1.2-1.19,2.1-2.23-.87.1-3.23.51-3.57.6-.21.06-.22.06-.27.06-.14,0-.2-.06-.25-.21-.12-.33-.23-.88-.3-1.51.21.01.32.01.45.01.67,0,2.13-.12,3.93-.34.67-.08,1.07-.17,1.33-.3.18-.09.21-.1.32-.1.18,0,.42.19.84.7.3.35.39.51.39.68s-.06.24-.25.38q-.27.17-1.53,1.33c-1.04.96-2.27,2.01-3.65,3.1,2.12-.63,3.22-.93,5.52-1.44.51-.1,1.01-.24,1.58-.42.08-.03.13-.04.18-.04.12,0,.18.06.25.19.17.35.36,1.08.36,1.35,0,.21-.06.3-.22.3h-.34Z"/>
        <path d="M155.83,48.77c-.67.13-1.32.3-1.74.45-.11.04-.2.06-.27.06-.13,0-.21-.07-.3-.33-.11-.33-.21-.85-.27-1.38.22.02.33.03.46.03.57,0,1.18-.08,2.13-.26l.03-.9c.02-.21.02-.36.02-.4,0-.65-.02-1.04-.08-1.44.79.03,1.29.09,1.77.21.2.04.29.13.29.27,0,.06-.01.1-.09.27-.13.28-.15.46-.25,1.71.33.23.62.54.62.69,0,.09-.04.17-.18.33-.22.24-.3.34-.58.76q-.03.39-.03.5c.5-.44.82-.72,1.33-1.09.57-.44,1.2-.84,1.65-1.06.58-.32.99-.42,1.53-.42.79,0,1.37.3,1.68.87.18.36.25.71.25,1.29,0,.51-.03.99-.12,2.08-.12,1.29-.18,2.25-.18,2.83s.13.76.55.76c.6,0,1.33-.44,1.98-1.17.01.58.06.77.25,1.37.04.12.06.19.06.25,0,.17-.08.3-.33.5-.61.49-1.5.81-2.29.81-1.32,0-1.92-.69-1.92-2.2,0-.69.04-1.58.2-3.67.04-.5.06-.92.06-1.12,0-.62-.21-.9-.66-.9s-1.33.48-2.52,1.39c-.6.45-.94.77-1.57,1.41v.69c0,1.12.07,3.72.13,4.63v.18c0,.12-.02.17-.04.21-.08.09-.51.15-1.2.15-.43,0-.53-.06-.53-.31,0-.09,0-.24.02-.4v-.35q.01-.52.08-3.38-.86,1.11-1.37,1.94c-.13.21-.23.29-.34.29s-.39-.24-.86-.75c-.29-.33-.39-.47-.39-.56,0-.07.03-.13.13-.24.95-.98,1.74-1.91,2.87-3.31l.03-1.27Z"/>
        <path d="M171.88,49.25c-.19-.66-.25-1.06-.43-2.91-.06-.72-.12-1.08-.27-1.59.91.02,1.5.06,1.9.17.23.06.33.17.33.33,0,.06-.01.13-.04.25-.1.36-.15.63-.15,1.02,0,.73.15,1.94.32,2.46.09.28.18.39.34.39.36,0,1.68-.69,2.4-1.24.19-.15.22-.17.3-.17.13,0,.27.1.5.39.38.51.67,1.06.67,1.27,0,.17-.11.27-.36.34-.93.25-2.46.85-3.49,1.35-1.83.9-2.66,1.73-2.66,2.65s.76,1.29,2.7,1.29c1.12,0,2.14-.1,3.52-.33.06-.02.17-.03.2-.03.12,0,.19.06.25.18.04.15.15,1.06.15,1.43,0,.21-.06.28-.26.34-.33.08-2.14.18-3.28.18-1.92,0-3.2-.25-3.99-.79-.67-.47-1.04-1.2-1.04-2.1,0-.69.2-1.31.6-1.9.52-.78,1.09-1.27,2.35-2.02-.31-.29-.43-.5-.57-.96Z"/>
        <path d="M185.98,48.98c-1.07-.21-1.88-.52-2.43-.92-.27-.18-.33-.25-.33-.39,0-.17.12-.46.54-1.3.73.46,1.56.79,2.5.99.21-1.05.3-1.92.31-2.9.77.14,1.44.36,1.82.57.17.09.22.18.21.3,0,.06-.03.12-.11.27-.22.46-.24.51-.55,1.98.15.02.34.02.46.02h.11c.36-.02.63-.02.76-.02h.04c.13,0,.18.06.18.25,0,.66-.04,1.2-.1,1.31-.04.07-.24.1-.87.1-.29,0-.51-.02-.93-.03q-.32,1.54-.45,2.35c.51.04.62.04.87.04h.84c.15-.01.22.02.27.09.06.09.11.57.11,1.11,0,.27-.02.34-.11.39-.07.03-.4.05-.97.05-.27,0-.67-.02-1.2-.05-.01.27-.01.45-.01.57,0,1.38.64,2.01,2.05,2.01,1.58,0,2.52-.77,2.52-2.05,0-.47-.1-.89-.34-1.35-.3-.57-.58-.9-1.3-1.47h.13c.24,0,.75-.07,1.2-.16.24-.05.33-.06.41-.06.22,0,.38.1.67.48.69.84,1.04,1.72,1.04,2.65,0,2.11-1.71,3.51-4.31,3.51-2.43,0-3.64-1.21-3.64-3.67,0-.21,0-.38.03-.63-1.49-.31-2.29-1.05-2.29-2.12,0-.55.17-.96.58-1.38.04-.06.1-.07.17-.07.09,0,.19.07.54.36.27.23.31.27.31.35q0,.06-.09.19c-.06.1-.12.27-.12.36,0,.19.12.36.35.46.21.1.27.12.75.23l.39-2.43Z"/>
        <path d="M196.69,46.38c0-.61-.03-1.15-.09-1.72.48.04.92.06,1.69.06h9.08c.71,0,1.17-.02,1.69-.08-.06.52-.07,1-.07,1.74v9.24c0,.98.01,1.41.07,1.86h-1.62v-.82h-9.2v.82h-1.65c.06-.42.09-.92.09-1.88v-9.22ZM198.25,55.26h9.18v-9.15h-9.18v9.15ZM200.4,48.36c-.63,0-.92.02-1.31.08v-1.46c.39.06.66.08,1.31.08h4.89c.66,0,.97-.02,1.35-.08v1.46c-.4-.06-.69-.08-1.33-.08h-1.83v1.52h1.47c.63,0,.92-.02,1.24-.08v1.44c-.3-.04-.55-.07-.93-.07.36.42.66.88.92,1.38l-.78.44c.71,0,.99-.02,1.43-.08v1.48c-.41-.06-.79-.07-1.37-.07h-5.22c-.65,0-.96.01-1.35.07v-1.48c.41.06.72.08,1.35.08h1.74v-1.81h-1.24c-.6,0-.87.01-1.23.07v-1.44c.33.06.6.08,1.23.08h1.24v-1.52h-1.57ZM203.47,52.98h1.54c-.28-.58-.54-.99-.9-1.44l.75-.38h-1.4v1.81Z"/>
        <path d="M215.26,49.25c-.19-.66-.25-1.06-.43-2.91-.06-.72-.12-1.08-.27-1.59.91.02,1.5.06,1.9.17.23.06.33.17.33.33,0,.06-.01.13-.04.25-.1.36-.15.63-.15,1.02,0,.73.15,1.94.32,2.46.09.28.18.39.34.39.36,0,1.68-.69,2.4-1.24.19-.15.22-.17.3-.17.13,0,.27.1.5.39.38.51.67,1.06.67,1.27,0,.17-.11.27-.36.34-.93.25-2.46.85-3.49,1.35-1.83.9-2.66,1.73-2.66,2.65s.76,1.29,2.7,1.29c1.12,0,2.14-.1,3.52-.33.06-.02.17-.03.2-.03.12,0,.19.06.25.18.04.15.15,1.06.15,1.43,0,.21-.06.28-.26.34-.33.08-2.14.18-3.28.18-1.92,0-3.2-.25-3.99-.79-.67-.47-1.04-1.2-1.04-2.1,0-.69.2-1.31.6-1.9.52-.78,1.09-1.27,2.35-2.02-.31-.29-.43-.5-.57-.96Z"/>
        <path d="M226.83,49.8c-.12.03-.18.06-.27.1-.08.04-.12.06-.2.06-.32,0-.55-.58-.74-1.69.12.02.23.02.29.02.63,0,2.24-.2,3.2-.39.31-1.32.48-2.31.48-3.03,0-.06,0-.14-.01-.25.64.07,1.26.21,1.68.38.24.09.36.22.36.38,0,.07-.02.12-.09.24q-.23.4-.69,2.05c.36-.04.76-.07,1.02-.07.62,0,1.1.12,1.44.36.6.44.9,1.32.9,2.69,0,2.23-.41,4.14-1.1,5.08-.48.66-1.11.98-1.99.98-.54,0-1.05-.07-1.2-.17q-.12-.07-.17-.63c-.04-.4-.13-.75-.32-1.17.78.25.98.3,1.46.3.72,0,1.02-.34,1.35-1.54.23-.79.35-1.83.35-2.92,0-1.17-.29-1.59-1.08-1.59-.27,0-.71.03-1.05.09-.04.17-.06.18-.12.39-.42,1.53-1.19,3.55-1.95,5.17-.79,1.63-.99,1.96-1.18,1.96-.12,0-.53-.21-.96-.5-.35-.21-.44-.3-.44-.42q0-.07.62-1.05c.83-1.27,1.91-3.78,2.28-5.25-1.11.24-1.73.39-1.86.44ZM234.48,48.13c0-.1.14-.24.57-.58.3-.23.45-.31.55-.31.09,0,.17.04.36.24.88.85,1.71,2,2.19,2.98.15.33.24.54.24.63,0,.15-.04.2-.52.58-.3.24-.65.44-.77.44-.1,0-.15-.04-.25-.3-.3-.73-.58-1.31-.94-1.86-.39-.6-.47-.69-1.35-1.64-.06-.09-.08-.13-.08-.18Z"/>
        <path d="M242.41,47.23c.34-.9.67-1.38,1.25-1.86.69-.57,1.51-.84,2.56-.84,2.25,0,3.69,1.23,3.69,3.15,0,.65-.18,1.26-.53,1.75-.27.39-.39.51-1.23,1.27-1.17,1.05-1.42,1.46-1.42,2.25v.79h-1.53v-.84c0-.67.13-1.27.41-1.75.21-.38.43-.63,1.03-1.23.63-.61.83-.84.99-1.11.21-.3.33-.72.33-1.12,0-1-.67-1.63-1.74-1.63s-1.69.55-2.14,1.86l-1.67-.69ZM247.2,55.97c0,.66-.53,1.18-1.19,1.18s-1.18-.52-1.18-1.18.52-1.19,1.18-1.19,1.19.52,1.19,1.19Z"/>
      </g>
      <circle class="cls-11" cx="31.42" cy="60.58" r="30"/>
      <g>
        <path class="cls-7" d="M45.85,63.39c.89-16.94-18.18-22.1-26.31-12.35-2.84,3.4-4.8,9.28-3.36,15.99-3.15,3.41-2.38,8.06,2.89,10.38,3.18,1.39,6.31,1.92,13.47,1.6,6.65-.3,14.21-3.45,16.18-7.69,1.1-2.37.52-5.78-2.87-7.94Z"/>
        <path class="cls-2" d="M34.67,46.18c-.79-4.18-4.45-6.35-4.37-.27"/>
        <path class="cls-2" d="M23,47.77c-.7-4.19,1.99-7.5,4.01-1.77"/>
        <path class="cls-7" d="M38.56,48.3c5.79-5.1,10.49-4.89,11.53-3.3.96,1.47.22,9.42-8.91,5.4"/>
        <path class="cls-7" d="M18.67,51.04c-6.85-3.54-11.36-2.19-11.99-.39-.57,1.66,2.8,9.74,10.68,3.62"/>
        <ellipse class="cls-1" cx="35.03" cy="65.83" rx="1.45" ry="1.57" transform="translate(-12.43 8.32) rotate(-11.51)"/>
        <path class="cls-4" d="M15.56,55.01c-2.32-3.61-7.18-2.47-8.28-1.89,2.12,3.55,4.7,4.58,8.28,1.89Z"/>
        <path class="cls-4" d="M42.93,50.7c1.99-3.8,6.4-3.27,7.55-2.79-1.8,3.72-3.74,5.15-7.55,2.79Z"/>
        <path class="cls-4" d="M28.18,45.99c1.57,7.43-1.68,14.59-11.91,15.05-.51-11.46,11.91-15.05,11.91-15.05Z"/>
        <path class="cls-4" d="M30.44,45.9c.38,8.43,7.4,12.45,14.47,12.66-.51-11.46-14.47-12.66-14.47-12.66Z"/>
        <path class="cls-4" d="M15.38,73.56c13.57-7.03,25.36-4.76,33.34-2.23-2.8,7.73-28.87,11.5-33.34,2.23Z"/>
        <path class="cls-1" d="M18.68,77.97c-2.75-1.21-4.52-3.12-4.99-5.38-.41-1.97.19-3.99,1.69-5.73-1.42-7.1.89-13.01,3.55-16.21,4.05-4.85,11.01-6.45,17.31-3.97,3.08,1.21,5.64,3.27,7.4,5.97,1.93,2.94,2.83,6.45,2.68,10.42,3.51,2.42,3.92,6.07,2.79,8.5-2.16,4.66-10.19,7.75-16.7,8.04-1.34.06-2.53.09-3.61.09-5.08,0-7.62-.64-10.13-1.74ZM19.86,51.43c-2.52,3.02-4.69,8.67-3.24,15.48.04.19-.01.39-.15.53-1.38,1.49-1.95,3.23-1.6,4.9.39,1.87,1.92,3.48,4.3,4.53,2.87,1.26,5.83,1.88,13.2,1.55,6.9-.31,13.93-3.6,15.66-7.34,1.35-2.91-.42-5.76-2.64-7.18-.18-.12-.29-.32-.28-.54.38-7.3-3.09-13.12-9.3-15.56-1.84-.72-3.73-1.07-5.58-1.07-4.02,0-7.82,1.64-10.37,4.69Z"/>
        <ellipse class="cls-1" cx="35.03" cy="65.83" rx="1.45" ry="1.57" transform="translate(-12.43 8.32) rotate(-11.51)"/>
        <ellipse class="cls-1" cx="27.35" cy="66.53" rx="1.57" ry="1.45" transform="translate(-39.34 93.5) rotate(-89.67)"/>
        <path class="cls-1" d="M45.69,52.14c1.99,0,3.23-.82,3.99-1.72,1.53-1.81,1.62-4.69.93-5.74-.42-.65-1.23-1.08-2.29-1.22-2.8-.38-6.6,1.26-10.15,4.4-.25.22-.27.6-.05.85.22.25.6.27.85.05,4.89-4.3,8.27-4.23,9.19-4.11.69.09,1.21.34,1.44.69.35.54.4,2.84-.84,4.31-1.39,1.64-3.92,1.71-7.33.21-.3-.13-.66,0-.79.31-.13.3,0,.66.31.79,1.93.85,3.49,1.18,4.75,1.18Z"/>
        <path class="cls-1" d="M12,57.14c1.54,0,3.44-.61,5.73-2.4.26-.2.31-.58.11-.85-.2-.26-.58-.31-.85-.11-2.93,2.28-5.52,2.74-7.48,1.33-1.82-1.3-2.45-3.73-2.26-4.28.14-.39.58-.76,1.23-1.02.86-.34,4.13-1.24,9.92,1.75.3.15.66.04.81-.26.15-.3.04-.66-.26-.81-4.21-2.17-8.29-2.84-10.91-1.79-.98.39-1.67,1.01-1.92,1.74-.42,1.2.53,4.1,2.7,5.65.79.57,1.85,1.04,3.19,1.04Z"/>
        <path class="cls-1" d="M34.67,46.78s.08,0,.11-.01c.33-.06.54-.38.48-.7-.5-2.64-2.12-4.67-3.61-4.52-.75.08-2.01.74-1.96,4.36,0,.33.27.59.6.59,0,0,0,0,0,0,.33,0,.6-.28.59-.61-.03-2.1.43-3.11.87-3.15.64-.07,1.88,1.32,2.3,3.55.05.29.31.49.59.49Z"/>
        <path class="cls-1" d="M23,48.37s.07,0,.1,0c.33-.05.55-.36.5-.69-.37-2.24.32-3.96.94-4.12.43-.11,1.21.67,1.91,2.66.11.31.45.48.77.37.31-.11.48-.45.37-.77-1.2-3.41-2.61-3.61-3.34-3.42-1.45.37-2.27,2.83-1.83,5.49.05.29.3.5.59.5Z"/>
        <path class="cls-1" d="M35.92,57.74c-1.1.64-2.05.31-2.46-.56-.1-.2.11-.42.32-.33.66.28,1.32.38,2.04.43.24.02.31.34.11.46Z"/>
        <path class="cls-1" d="M25.4,59.18c1.24.28,2.05-.31,2.19-1.26.03-.22-.23-.37-.4-.22-.55.47-1.14.75-1.82,1.01-.22.09-.2.42.04.47Z"/>
        <circle class="cls-1" cx="32.93" cy="71.89" r=".57"/>
        <circle class="cls-1" cx="31.15" cy="71.97" r=".57"/>
        <path class="cls-1" d="M29.42,76.08c.11,0,.23-.03.33-.1,1.68-1.09,3.08-1.24,4.55-.49.3.15.66.03.81-.26.15-.3.03-.66-.26-.81-1.86-.95-3.69-.78-5.75.55-.28.18-.36.55-.18.83.12.18.31.28.51.28Z"/>
      </g>
      <g>
        <path class="cls-1" d="M325.82,174.56c1.79.14,1.22,2.12.34,3.27-.18.24-.54.27-.77.08-1.56-1.33-1.01-3.46.43-3.34Z"/>
        <path class="cls-1" d="M325.72,175.34c-.31,0-.56-.25-.56-.56v-3.55l-.89-1.24c-.18-.25-.12-.61.13-.79.25-.18.61-.12.79.13l1,1.39c.07.1.11.21.11.33v3.73c0,.31-.25.56-.56.56Z"/>
        <path class="cls-6" d="M310.96,200.94c1.34-.08,2.63-.26,3.88-.53,9.79-2.16,10.15-7.15,10.02-11.31s-1.03-19.07-13.04-19.88c-12.01-.81-15.11,8.74-17.43,11.84s-10.78,12.79,5.09,18.2c1.55.53,3.09.93,4.6,1.21"/>
        <polygon class="cls-5" points="322.89 165.68 316.8 165.11 319.51 170.58 325.71 171.24 322.89 165.68"/>
        <rect class="cls-5" x="316.22" y="168.76" width="6.62" height="2.88" transform="translate(175.16 -161.8) rotate(38.45)"/>
        <path class="cls-12" d="M290.74,186.88c5.03.33,7.93,5.64,6.07,11.34-4.9-2.67-7.64-5.38-6.07-11.34Z"/>
        <path class="cls-12" d="M324.35,189c-5.8-.8-10.25,4.19-9.34,10.68,6.16-1.72,9.86-3.98,9.34-10.68Z"/>
        <ellipse class="cls-1" cx="302.72" cy="189.18" rx="1.82" ry="1.68" transform="translate(68.75 458.79) rotate(-81.05)"/>
        <ellipse class="cls-1" cx="312.8" cy="190.22" rx="1.68" ry="1.82" transform="translate(-9.21 16.05) rotate(-2.9)"/>
        <path class="cls-1" d="M302.56,179.56c1.65-.67,3.13-.04,3.82,1.25.16.3-.14.56-.46.4-1.03-.52-2.05-.78-3.16-.99-.37-.07-.51-.53-.2-.66Z"/>
        <path class="cls-1" d="M315.64,182.07c-1.22-1.29-2.83-1.33-4-.45-.27.21-.11.57.26.56,1.16-.05,2.19.14,3.29.41.37.09.68-.27.45-.52Z"/>
        <path class="cls-1" d="M310.96,201.51c-.3,0-.55-.23-.56-.53-.02-.31.22-.58.53-.6,1.29-.08,2.57-.25,3.79-.52,9.84-2.17,9.68-7.33,9.58-10.74-.13-4.28-.81-7.98-2.03-11-2.08-5.2-5.61-8-10.49-8.33-9.65-.65-13.25,5.48-15.63,9.54-.48.82-.9,1.53-1.31,2.07-.11.15-.24.32-.38.51-1.66,2.17-4.75,6.2-3.58,10.07.84,2.78,3.8,5.06,8.79,6.76,1.5.51,3.02.91,4.52,1.19.31.06.51.35.45.66s-.35.51-.66.45c-1.55-.29-3.12-.71-4.67-1.23-5.35-1.82-8.55-4.35-9.5-7.5-1.34-4.42,2.11-8.92,3.77-11.08.14-.18.26-.35.38-.5.37-.49.77-1.18,1.24-1.97,2.37-4.04,6.34-10.8,16.68-10.1,5.35.36,9.2,3.4,11.46,9.03,1.26,3.14,1.97,6.98,2.11,11.39.14,4.6-.54,9.69-10.46,11.88-1.28.28-2.61.47-3.97.54-.01,0-.02,0-.03,0Z"/>
        <path class="cls-1" d="M301.8,188.54c-.06,0-.12-.02-.17-.06-.75-.59-1.13-1.2-1.42-2.25-.04-.15.05-.31.2-.35.15-.04.31.05.35.2.29,1.06.65,1.51,1.23,1.96.12.1.14.27.05.4-.06.07-.14.11-.22.11Z"/>
        <path class="cls-1" d="M301.61,189.13c-.79,0-1.64-.46-2.32-1.25-.1-.12-.09-.3.03-.4.12-.1.3-.09.4.03.62.73,1.39,1.12,2.05,1.05.15-.02.29.09.31.25.02.15-.09.29-.25.31-.07,0-.15.01-.22.01Z"/>
        <path class="cls-1" d="M313.98,189.71c-.14,0-.26-.1-.28-.24-.02-.15.09-.3.24-.32.66-.09,1.42-.66,1.85-1.39.08-.13.25-.18.39-.1.13.08.18.25.1.39-.52.88-1.43,1.54-2.26,1.66-.01,0-.03,0-.04,0Z"/>
        <path class="cls-1" d="M315.05,190.96c-.37,0-.75-.07-1.11-.24-.14-.06-.2-.23-.14-.37.06-.14.23-.2.37-.14.85.39,1.82.09,2.47-.24.14-.07.31-.01.38.13.07.14.01.31-.13.38-.5.25-1.16.48-1.85.48Z"/>
        <g>
          <path class="cls-3" d="M312.59,194.83c-.67-1.82-3.62-3.78-5.13-3.57s-4.67,2.04-5.66,1.99-1.67-.72-1.79,1.58,1.69,3.49,4.1,2.64c3.35,1.91,9.62.49,8.48-2.64Z"/>
          <path class="cls-3" d="M312.59,197.19c-.74,3.66-4.9,5.8-6.16,5.26s-2.84-1.41-1.46-4.59c2.49.53,6.87-.11,6.98-1.62s.63.95.63.95Z"/>
          <path class="cls-10" d="M306.2,198.18c-.72,1.34-.37,3.05,1.82,1.98s2.19-2.27,2.19-2.27c0,0,1.44-.72-.48,0s-3.53.29-3.53.29Z"/>
          <path class="cls-1" d="M307.7,198.89c-1.05,0-2.18-.32-3.35-.98-2.28.65-3.54.04-4.21-.59-.84-.8-1.15-2.08-.82-3.34.33-1.27.9-1.38,1.78-1.4.64-.01,1.62-.04,3.2-.87,3.5-1.84,5.55-.78,7.54,1.37.19.2.17.51-.03.7s-.51.17-.7-.03c-1.78-1.92-3.39-2.73-6.36-1.17-1.79.94-2.9.97-3.64.98-.68.02-.69.03-.85.66-.24.9-.02,1.84.55,2.38.71.68,1.9.78,3.44.3.13-.04.28-.02.4.05,1.91,1.13,4.66,1.8,6.84-1.37.13-.19.38-.27.59-.18,0,0,.71.29,1.35.43.27.06.43.32.37.59s-.32.44-.59.37c-.42-.09-.85-.23-1.14-.34-1.22,1.62-2.71,2.44-4.39,2.44Z"/>
          <path class="cls-1" d="M307.01,203c-.6,0-1.17-.14-1.69-.42-.84-.45-1.38-1.1-1.59-1.91-.43-1.61.6-3.27.64-3.34.14-.23.45-.3.68-.16.23.14.3.45.16.68,0,.01-.84,1.38-.52,2.57.15.55.51.97,1.11,1.29.85.46,1.91.39,2.98-.19,1.5-.82,3.12-2.78,3.33-5.32.02-.27.26-.47.53-.45.27.02.47.26.45.53-.21,2.56-1.72,4.96-3.84,6.11-.75.41-1.51.61-2.23.61Z"/>
        </g>
        <path class="cls-1" d="M321.26,174.41c-.12,0-.25-.04-.35-.12-.24-.19-.29-.55-.09-.79l2.24-2.84c.12-.15.31-.23.5-.21l1.19.13-2.21-4.36-4.77-.45.69,1.4c.09.19.07.42-.05.59l-1.8,2.39c-.19.25-.54.3-.79.11-.25-.19-.3-.54-.11-.79l1.59-2.11-.99-1.99c-.09-.18-.08-.4.04-.57.12-.17.31-.26.52-.24l6.09.57c.19.02.36.13.45.31l2.82,5.57c.09.18.08.41-.04.58-.12.17-.32.26-.52.24l-1.91-.2-2.04,2.59c-.11.14-.28.21-.44.21Z"/>
      </g>
    </g>
  </g>
</svg>